STARTFONT 2.1
FONT -Deviation--11-110-75-75
SIZE 11 75 75
FONTBOUNDINGBOX 11 11 0 -1
STARTPROPERTIES 8
FONT_NAME "Deviation"
FONT_ASCENT 10
FONT_DESCENT 1
PIXEL_SIZE 11
POINT_SIZE 110
RESOLUTION_X 75
RESOLUTION_Y 75
RESOLUTION 75
ENDPROPERTIES
CHARS 15766
STARTCHAR uni0020
ENCODING 32
SWIDTH 500 0
DWIDTH 6 0
BBX 3 1 0 0
BITMAP
00
ENDCHAR
STARTCHAR uni0021
ENCODING 33
SWIDTH 500 0
DWIDTH 6 0
BBX 1 9 0 0
BITMAP
80
80
80
80
80
80
00
00
80
ENDCHAR
STARTCHAR uni0022
ENCODING 34
SWIDTH 500 0
DWIDTH 6 0
BBX 4 3 0 6
BITMAP
50
50
A0
ENDCHAR
STARTCHAR uni0023
ENCODING 35
SWIDTH 500 0
DWIDTH 6 0
BBX 6 9 0 0
BITMAP
28
28
28
7C
28
FC
50
50
50
ENDCHAR
STARTCHAR uni0024
ENCODING 36
SWIDTH 500 0
DWIDTH 6 0
BBX 5 9 0 0
BITMAP
20
70
A8
A0
70
28
A8
70
20
ENDCHAR
STARTCHAR uni0025
ENCODING 37
SWIDTH 500 0
DWIDTH 6 0
BBX 6 10 0 -1
BITMAP
48
A8
A8
B0
50
28
54
54
94
88
ENDCHAR
STARTCHAR uni0026
ENCODING 38
SWIDTH 500 0
DWIDTH 6 0
BBX 5 9 0 0
BITMAP
20
50
50
50
60
A8
90
90
68
ENDCHAR
STARTCHAR uni0027
ENCODING 39
SWIDTH 500 0
DWIDTH 6 0
BBX 2 3 0 6
BITMAP
C0
40
80
ENDCHAR
STARTCHAR uni0028
ENCODING 40
SWIDTH 500 0
DWIDTH 6 0
BBX 3 10 0 -1
BITMAP
20
40
40
80
80
80
80
40
40
20
ENDCHAR
STARTCHAR uni0029
ENCODING 41
SWIDTH 500 0
DWIDTH 6 0
BBX 3 10 0 -1
BITMAP
80
40
40
20
20
20
20
40
40
80
ENDCHAR
STARTCHAR uni002A
ENCODING 42
SWIDTH 500 0
DWIDTH 6 0
BBX 5 7 0 1
BITMAP
20
A8
70
20
70
A8
20
ENDCHAR
STARTCHAR uni002B
ENCODING 43
SWIDTH 500 0
DWIDTH 6 0
BBX 5 7 0 1
BITMAP
20
20
20
F8
20
20
20
ENDCHAR
STARTCHAR uni002C
ENCODING 44
SWIDTH 500 0
DWIDTH 6 0
BBX 2 3 0 0
BITMAP
C0
40
80
ENDCHAR
STARTCHAR uni002D
ENCODING 45
SWIDTH 500 0
DWIDTH 6 0
BBX 3 1 0 4
BITMAP
E0
ENDCHAR
STARTCHAR uni002E
ENCODING 46
SWIDTH 500 0
DWIDTH 6 0
BBX 1 2 0 0
BITMAP
80
80
ENDCHAR
STARTCHAR uni002F
ENCODING 47
SWIDTH 500 0
DWIDTH 6 0
BBX 5 10 0 -1
BITMAP
08
08
10
10
20
20
40
40
80
80
ENDCHAR
STARTCHAR uni0030
ENCODING 48
SWIDTH 500 0
DWIDTH 6 0
BBX 5 9 0 0
BITMAP
20
50
88
88
88
88
88
50
20
ENDCHAR
STARTCHAR uni0031
ENCODING 49
SWIDTH 500 0
DWIDTH 6 0
BBX 3 9 0 0
BITMAP
40
C0
40
40
40
40
40
40
E0
ENDCHAR
STARTCHAR uni0032
ENCODING 50
SWIDTH 500 0
DWIDTH 6 0
BBX 5 9 0 0
BITMAP
70
88
88
08
10
20
40
88
F8
ENDCHAR
STARTCHAR uni0033
ENCODING 51
SWIDTH 500 0
DWIDTH 6 0
BBX 5 9 0 0
BITMAP
70
88
08
08
30
08
08
88
70
ENDCHAR
STARTCHAR uni0034
ENCODING 52
SWIDTH 500 0
DWIDTH 6 0
BBX 5 9 0 0
BITMAP
10
30
30
50
50
90
F8
10
38
ENDCHAR
STARTCHAR uni0035
ENCODING 53
SWIDTH 500 0
DWIDTH 6 0
BBX 5 9 0 0
BITMAP
78
40
40
40
70
08
08
88
70
ENDCHAR
STARTCHAR uni0036
ENCODING 54
SWIDTH 500 0
DWIDTH 6 0
BBX 5 9 0 0
BITMAP
70
88
80
80
F0
88
88
88
70
ENDCHAR
STARTCHAR uni0037
ENCODING 55
SWIDTH 500 0
DWIDTH 6 0
BBX 5 9 0 0
BITMAP
F8
88
08
10
10
20
20
20
20
ENDCHAR
STARTCHAR uni0038
ENCODING 56
SWIDTH 500 0
DWIDTH 6 0
BBX 5 9 0 0
BITMAP
70
88
88
88
70
88
88
88
70
ENDCHAR
STARTCHAR uni0039
ENCODING 57
SWIDTH 500 0
DWIDTH 6 0
BBX 5 9 0 0
BITMAP
70
88
88
88
78
08
08
88
70
ENDCHAR
STARTCHAR uni003A
ENCODING 58
SWIDTH 500 0
DWIDTH 6 0
BBX 1 7 0 1
BITMAP
80
80
00
00
00
80
80
ENDCHAR
STARTCHAR uni003B
ENCODING 59
SWIDTH 500 0
DWIDTH 6 0
BBX 2 6 0 0
BITMAP
C0
00
00
C0
40
80
ENDCHAR
STARTCHAR uni003C
ENCODING 60
SWIDTH 500 0
DWIDTH 6 0
BBX 5 10 0 -1
BITMAP
08
10
20
40
80
80
40
20
10
08
ENDCHAR
STARTCHAR uni003D
ENCODING 61
SWIDTH 500 0
DWIDTH 6 0
BBX 5 3 0 2
BITMAP
F8
00
F8
ENDCHAR
STARTCHAR uni003E
ENCODING 62
SWIDTH 500 0
DWIDTH 6 0
BBX 5 10 0 -1
BITMAP
80
40
20
10
08
08
10
20
40
80
ENDCHAR
STARTCHAR uni003F
ENCODING 63
SWIDTH 500 0
DWIDTH 6 0
BBX 5 9 0 0
BITMAP
70
88
88
10
20
20
20
00
20
ENDCHAR
STARTCHAR uni0040
ENCODING 64
SWIDTH 500 0
DWIDTH 6 0
BBX 6 10 0 -1
BITMAP
30
48
B4
D4
D4
D4
D4
A8
80
78
ENDCHAR
STARTCHAR uni0041
ENCODING 65
SWIDTH 500 0
DWIDTH 6 0
BBX 5 9 0 0
BITMAP
20
20
20
50
50
70
88
88
88
ENDCHAR
STARTCHAR uni0042
ENCODING 66
SWIDTH 500 0
DWIDTH 6 0
BBX 5 9 0 0
BITMAP
F0
88
88
88
F0
88
88
88
F0
ENDCHAR
STARTCHAR uni0043
ENCODING 67
SWIDTH 500 0
DWIDTH 6 0
BBX 5 9 0 0
BITMAP
30
48
88
80
80
80
80
48
30
ENDCHAR
STARTCHAR uni0044
ENCODING 68
SWIDTH 500 0
DWIDTH 6 0
BBX 5 9 0 0
BITMAP
E0
90
88
88
88
88
88
90
E0
ENDCHAR
STARTCHAR uni0045
ENCODING 69
SWIDTH 500 0
DWIDTH 6 0
BBX 5 9 0 0
BITMAP
F8
80
80
80
F0
80
80
80
F8
ENDCHAR
STARTCHAR uni0046
ENCODING 70
SWIDTH 500 0
DWIDTH 6 0
BBX 5 9 0 0
BITMAP
F8
80
80
80
F0
80
80
80
80
ENDCHAR
STARTCHAR uni0047
ENCODING 71
SWIDTH 500 0
DWIDTH 6 0
BBX 5 9 0 0
BITMAP
30
48
80
80
80
98
88
48
30
ENDCHAR
STARTCHAR uni0048
ENCODING 72
SWIDTH 500 0
DWIDTH 6 0
BBX 5 9 0 0
BITMAP
88
88
88
88
F8
88
88
88
88
ENDCHAR
STARTCHAR uni0049
ENCODING 73
SWIDTH 500 0
DWIDTH 6 0
BBX 3 9 0 0
BITMAP
E0
40
40
40
40
40
40
40
E0
ENDCHAR
STARTCHAR uni004A
ENCODING 74
SWIDTH 500 0
DWIDTH 6 0
BBX 5 9 0 0
BITMAP
38
10
10
10
10
10
10
90
60
ENDCHAR
STARTCHAR uni004B
ENCODING 75
SWIDTH 500 0
DWIDTH 6 0
BBX 5 9 0 0
BITMAP
88
88
90
A0
E0
90
90
88
88
ENDCHAR
STARTCHAR uni004C
ENCODING 76
SWIDTH 500 0
DWIDTH 6 0
BBX 5 9 0 0
BITMAP
E0
40
40
40
40
40
40
48
F8
ENDCHAR
STARTCHAR uni004D
ENCODING 77
SWIDTH 500 0
DWIDTH 6 0
BBX 5 9 0 0
BITMAP
88
88
D8
D8
A8
A8
A8
88
88
ENDCHAR
STARTCHAR uni004E
ENCODING 78
SWIDTH 500 0
DWIDTH 6 0
BBX 5 9 0 0
BITMAP
88
C8
C8
A8
A8
A8
98
98
88
ENDCHAR
STARTCHAR uni004F
ENCODING 79
SWIDTH 500 0
DWIDTH 6 0
BBX 5 9 0 0
BITMAP
70
88
88
88
88
88
88
88
70
ENDCHAR
STARTCHAR uni0050
ENCODING 80
SWIDTH 500 0
DWIDTH 6 0
BBX 5 9 0 0
BITMAP
F0
48
48
48
70
40
40
40
E0
ENDCHAR
STARTCHAR uni0051
ENCODING 81
SWIDTH 500 0
DWIDTH 6 0
BBX 5 9 0 0
BITMAP
70
88
88
88
88
E8
98
70
08
ENDCHAR
STARTCHAR uni0052
ENCODING 82
SWIDTH 500 0
DWIDTH 6 0
BBX 5 9 0 0
BITMAP
F0
88
88
88
F0
A0
90
88
88
ENDCHAR
STARTCHAR uni0053
ENCODING 83
SWIDTH 500 0
DWIDTH 6 0
BBX 5 9 0 0
BITMAP
70
88
88
80
70
08
88
88
70
ENDCHAR
STARTCHAR uni0054
ENCODING 84
SWIDTH 500 0
DWIDTH 6 0
BBX 5 9 0 0
BITMAP
F8
A8
20
20
20
20
20
20
70
ENDCHAR
STARTCHAR uni0055
ENCODING 85
SWIDTH 500 0
DWIDTH 6 0
BBX 5 9 0 0
BITMAP
88
88
88
88
88
88
88
88
70
ENDCHAR
STARTCHAR uni0056
ENCODING 86
SWIDTH 500 0
DWIDTH 6 0
BBX 5 9 0 0
BITMAP
88
88
88
50
50
50
20
20
20
ENDCHAR
STARTCHAR uni0057
ENCODING 87
SWIDTH 500 0
DWIDTH 6 0
BBX 5 9 0 0
BITMAP
A8
A8
A8
A8
F8
50
50
50
50
ENDCHAR
STARTCHAR uni0058
ENCODING 88
SWIDTH 500 0
DWIDTH 6 0
BBX 5 9 0 0
BITMAP
88
88
50
50
20
50
50
88
88
ENDCHAR
STARTCHAR uni0059
ENCODING 89
SWIDTH 500 0
DWIDTH 6 0
BBX 5 9 0 0
BITMAP
88
88
50
50
20
20
20
20
20
ENDCHAR
STARTCHAR uni005A
ENCODING 90
SWIDTH 500 0
DWIDTH 6 0
BBX 5 9 0 0
BITMAP
F8
88
10
10
20
20
40
88
F8
ENDCHAR
STARTCHAR uni005B
ENCODING 91
SWIDTH 500 0
DWIDTH 6 0
BBX 2 10 0 -1
BITMAP
C0
80
80
80
80
80
80
80
80
C0
ENDCHAR
STARTCHAR uni005C
ENCODING 92
SWIDTH 500 0
DWIDTH 6 0
BBX 5 10 0 -1
BITMAP
80
80
40
40
20
20
10
10
08
08
ENDCHAR
STARTCHAR uni005D
ENCODING 93
SWIDTH 500 0
DWIDTH 6 0
BBX 2 10 0 -1
BITMAP
C0
40
40
40
40
40
40
40
40
C0
ENDCHAR
STARTCHAR uni005E
ENCODING 94
SWIDTH 500 0
DWIDTH 6 0
BBX 5 3 0 6
BITMAP
20
50
88
ENDCHAR
STARTCHAR uni005F
ENCODING 95
SWIDTH 500 0
DWIDTH 6 0
BBX 5 1 0 -1
BITMAP
F8
ENDCHAR
STARTCHAR uni0060
ENCODING 96
SWIDTH 500 0
DWIDTH 6 0
BBX 3 3 0 6
BITMAP
C0
40
20
ENDCHAR
STARTCHAR uni0061
ENCODING 97
SWIDTH 500 0
DWIDTH 6 0
BBX 5 6 0 0
BITMAP
E0
10
70
90
90
68
ENDCHAR
STARTCHAR uni0062
ENCODING 98
SWIDTH 500 0
DWIDTH 6 0
BBX 5 9 0 0
BITMAP
80
80
80
F0
88
88
88
C8
B0
ENDCHAR
STARTCHAR uni0063
ENCODING 99
SWIDTH 500 0
DWIDTH 6 0
BBX 5 6 0 0
BITMAP
70
88
80
80
88
70
ENDCHAR
STARTCHAR uni0064
ENCODING 100
SWIDTH 500 0
DWIDTH 6 0
BBX 5 9 0 0
BITMAP
08
08
08
78
88
88
88
98
68
ENDCHAR
STARTCHAR uni0065
ENCODING 101
SWIDTH 500 0
DWIDTH 6 0
BBX 5 6 0 0
BITMAP
70
88
F8
80
88
70
ENDCHAR
STARTCHAR uni0066
ENCODING 102
SWIDTH 500 0
DWIDTH 6 0
BBX 5 9 0 0
BITMAP
30
48
40
F0
40
40
40
40
E0
ENDCHAR
STARTCHAR uni0067
ENCODING 103
SWIDTH 500 0
DWIDTH 6 0
BBX 5 7 0 -1
BITMAP
68
90
90
60
90
88
70
ENDCHAR
STARTCHAR uni0068
ENCODING 104
SWIDTH 500 0
DWIDTH 6 0
BBX 5 9 0 0
BITMAP
80
80
80
B0
C8
88
88
88
88
ENDCHAR
STARTCHAR uni0069
ENCODING 105
SWIDTH 500 0
DWIDTH 6 0
BBX 3 9 0 0
BITMAP
40
00
00
C0
40
40
40
40
E0
ENDCHAR
STARTCHAR uni006A
ENCODING 106
SWIDTH 500 0
DWIDTH 6 0
BBX 3 10 0 -1
BITMAP
20
00
00
60
20
20
20
A0
A0
40
ENDCHAR
STARTCHAR uni006B
ENCODING 107
SWIDTH 500 0
DWIDTH 6 0
BBX 5 9 0 0
BITMAP
80
80
88
90
A0
C0
A0
90
88
ENDCHAR
STARTCHAR uni006C
ENCODING 108
SWIDTH 500 0
DWIDTH 6 0
BBX 3 9 0 0
BITMAP
C0
40
40
40
40
40
40
40
E0
ENDCHAR
STARTCHAR uni006D
ENCODING 109
SWIDTH 500 0
DWIDTH 6 0
BBX 5 6 0 0
BITMAP
D0
A8
A8
A8
A8
A8
ENDCHAR
STARTCHAR uni006E
ENCODING 110
SWIDTH 500 0
DWIDTH 6 0
BBX 5 6 0 0
BITMAP
B0
48
48
48
48
48
ENDCHAR
STARTCHAR uni006F
ENCODING 111
SWIDTH 500 0
DWIDTH 6 0
BBX 5 6 0 0
BITMAP
70
88
88
88
88
70
ENDCHAR
STARTCHAR uni0070
ENCODING 112
SWIDTH 500 0
DWIDTH 6 0
BBX 5 7 0 -1
BITMAP
F0
88
88
F0
80
80
80
ENDCHAR
STARTCHAR uni0071
ENCODING 113
SWIDTH 500 0
DWIDTH 6 0
BBX 5 7 0 -1
BITMAP
78
88
88
88
78
08
08
ENDCHAR
STARTCHAR uni0072
ENCODING 114
SWIDTH 500 0
DWIDTH 6 0
BBX 5 6 0 0
BITMAP
D0
68
40
40
40
E0
ENDCHAR
STARTCHAR uni0073
ENCODING 115
SWIDTH 500 0
DWIDTH 6 0
BBX 5 6 0 0
BITMAP
70
88
60
10
88
70
ENDCHAR
STARTCHAR uni0074
ENCODING 116
SWIDTH 500 0
DWIDTH 6 0
BBX 5 8 0 0
BITMAP
40
40
F0
40
40
40
48
30
ENDCHAR
STARTCHAR uni0075
ENCODING 117
SWIDTH 500 0
DWIDTH 6 0
BBX 5 6 0 0
BITMAP
88
88
88
88
98
68
ENDCHAR
STARTCHAR uni0076
ENCODING 118
SWIDTH 500 0
DWIDTH 6 0
BBX 5 6 0 0
BITMAP
88
88
50
50
20
20
ENDCHAR
STARTCHAR uni0077
ENCODING 119
SWIDTH 500 0
DWIDTH 6 0
BBX 5 6 0 0
BITMAP
A8
A8
A8
50
50
50
ENDCHAR
STARTCHAR uni0078
ENCODING 120
SWIDTH 500 0
DWIDTH 6 0
BBX 5 6 0 0
BITMAP
88
50
20
20
50
88
ENDCHAR
STARTCHAR uni0079
ENCODING 121
SWIDTH 500 0
DWIDTH 6 0
BBX 5 7 0 -1
BITMAP
88
88
50
50
20
20
C0
ENDCHAR
STARTCHAR uni007A
ENCODING 122
SWIDTH 500 0
DWIDTH 6 0
BBX 5 6 0 0
BITMAP
F8
88
10
20
48
F8
ENDCHAR
STARTCHAR uni007B
ENCODING 123
SWIDTH 500 0
DWIDTH 6 0
BBX 3 10 0 -1
BITMAP
20
40
40
40
40
80
40
40
40
20
ENDCHAR
STARTCHAR uni007C
ENCODING 124
SWIDTH 500 0
DWIDTH 6 0
BBX 1 11 0 -1
BITMAP
80
80
80
80
80
80
80
80
80
80
80
ENDCHAR
STARTCHAR uni007D
ENCODING 125
SWIDTH 500 0
DWIDTH 6 0
BBX 3 10 0 -1
BITMAP
80
40
40
40
40
20
40
40
40
80
ENDCHAR
STARTCHAR uni00A1
ENCODING 161
SWIDTH 500 0
DWIDTH 6 0
BBX 1 8 0 -1
BITMAP
80
00
80
80
80
80
80
80
ENDCHAR
STARTCHAR uni00A2
ENCODING 162
SWIDTH 500 0
DWIDTH 6 0
BBX 5 8 0 -1
BITMAP
10
70
A8
A0
A0
A8
70
40
ENDCHAR
STARTCHAR uni00A3
ENCODING 163
SWIDTH 500 0
DWIDTH 6 0
BBX 5 8 0 0
BITMAP
30
48
40
E0
40
40
48
B0
ENDCHAR
STARTCHAR uni00A4
ENCODING 164
SWIDTH 500 0
DWIDTH 6 0
BBX 4 6 0 1
BITMAP
90
60
90
90
60
90
ENDCHAR
STARTCHAR uni00A5
ENCODING 165
SWIDTH 500 0
DWIDTH 6 0
BBX 5 8 0 0
BITMAP
88
88
50
50
F8
20
F8
20
ENDCHAR
STARTCHAR uni00A6
ENCODING 166
SWIDTH 500 0
DWIDTH 6 0
BBX 1 10 0 -1
BITMAP
80
80
80
80
00
00
80
80
80
80
ENDCHAR
STARTCHAR uni00A7
ENCODING 167
SWIDTH 500 0
DWIDTH 6 0
BBX 5 10 0 -1
BITMAP
70
88
C0
70
98
C8
70
18
88
70
ENDCHAR
STARTCHAR uni00A8
ENCODING 168
SWIDTH 500 0
DWIDTH 6 0
BBX 3 1 0 7
BITMAP
A0
ENDCHAR
STARTCHAR uni00A9
ENCODING 169
SWIDTH 500 0
DWIDTH 6 0
BBX 7 7 0 0
BITMAP
38
44
9A
A2
9A
44
38
ENDCHAR
STARTCHAR uni00AA
ENCODING 170
SWIDTH 500 0
DWIDTH 6 0
BBX 4 7 0 1
BITMAP
C0
20
60
A0
F0
00
F0
ENDCHAR
STARTCHAR uni00AB
ENCODING 171
SWIDTH 500 0
DWIDTH 6 0
BBX 5 5 0 0
BITMAP
28
50
A0
50
28
ENDCHAR
STARTCHAR uni00AC
ENCODING 172
SWIDTH 500 0
DWIDTH 6 0
BBX 5 3 0 2
BITMAP
F8
08
08
ENDCHAR
STARTCHAR uni00AD
ENCODING 173
SWIDTH 500 0
DWIDTH 6 0
BBX 3 1 0 3
BITMAP
E0
ENDCHAR
STARTCHAR uni00AE
ENCODING 174
SWIDTH 500 0
DWIDTH 6 0
BBX 7 7 0 0
BITMAP
38
44
BA
AA
B2
6C
38
ENDCHAR
STARTCHAR uni00AF
ENCODING 175
SWIDTH 500 0
DWIDTH 6 0
BBX 3 1 0 7
BITMAP
E0
ENDCHAR
STARTCHAR uni00B0
ENCODING 176
SWIDTH 500 0
DWIDTH 6 0
BBX 4 4 0 3
BITMAP
60
90
90
60
ENDCHAR
STARTCHAR uni00B1
ENCODING 177
SWIDTH 500 0
DWIDTH 6 0
BBX 5 7 0 0
BITMAP
20
20
F8
20
20
00
F8
ENDCHAR
STARTCHAR uni00B2
ENCODING 178
SWIDTH 500 0
DWIDTH 6 0
BBX 3 4 0 3
BITMAP
40
A0
40
E0
ENDCHAR
STARTCHAR uni00B3
ENCODING 179
SWIDTH 500 0
DWIDTH 6 0
BBX 3 5 0 3
BITMAP
C0
20
40
20
C0
ENDCHAR
STARTCHAR uni00B4
ENCODING 180
SWIDTH 500 0
DWIDTH 6 0
BBX 2 2 0 6
BITMAP
40
80
ENDCHAR
STARTCHAR uni00B5
ENCODING 181
SWIDTH 500 0
DWIDTH 6 0
BBX 4 8 0 -1
BITMAP
90
90
90
90
90
F0
80
80
ENDCHAR
STARTCHAR uni00B6
ENCODING 182
SWIDTH 500 0
DWIDTH 6 0
BBX 6 10 0 -1
BITMAP
7C
E8
E8
E8
68
28
28
28
28
28
ENDCHAR
STARTCHAR uni00B7
ENCODING 183
SWIDTH 500 0
DWIDTH 6 0
BBX 2 1 0 3
BITMAP
C0
ENDCHAR
STARTCHAR uni00B8
ENCODING 184
SWIDTH 500 0
DWIDTH 6 0
BBX 2 2 0 -1
BITMAP
40
C0
ENDCHAR
STARTCHAR uni00B9
ENCODING 185
SWIDTH 500 0
DWIDTH 6 0
BBX 2 4 0 3
BITMAP
40
C0
40
40
ENDCHAR
STARTCHAR uni00BA
ENCODING 186
SWIDTH 500 0
DWIDTH 6 0
BBX 3 5 0 3
BITMAP
E0
A0
E0
00
E0
ENDCHAR
STARTCHAR uni00BB
ENCODING 187
SWIDTH 500 0
DWIDTH 6 0
BBX 5 5 0 0
BITMAP
A0
50
28
50
A0
ENDCHAR
STARTCHAR uni00BC
ENCODING 188
SWIDTH 500 0
DWIDTH 6 0
BBX 9 8 0 0
BITMAP
4200
C400
4400
4800
0900
1300
1780
2100
ENDCHAR
STARTCHAR uni00BD
ENCODING 189
SWIDTH 500 0
DWIDTH 6 0
BBX 8 8 0 0
BITMAP
42
C4
44
48
0B
15
12
27
ENDCHAR
STARTCHAR uni00BE
ENCODING 190
SWIDTH 500 0
DWIDTH 6 0
BBX 9 8 0 0
BITMAP
E200
4400
2400
C800
0900
1300
1780
2100
ENDCHAR
STARTCHAR uni00BF
ENCODING 191
SWIDTH 500 0
DWIDTH 6 0
BBX 4 8 0 -1
BITMAP
20
00
20
20
40
80
90
60
ENDCHAR
STARTCHAR uni00C0
ENCODING 192
SWIDTH 500 0
DWIDTH 6 0
BBX 5 10 0 0
BITMAP
4000
2000
0000
2000
2000
5000
5000
7000
5000
5000
ENDCHAR
STARTCHAR uni00C1
ENCODING 193
SWIDTH 500 0
DWIDTH 6 0
BBX 5 10 0 0
BITMAP
1000
2000
0000
2000
2000
5000
5000
7000
5000
5000
ENDCHAR
STARTCHAR uni00C2
ENCODING 194
SWIDTH 500 0
DWIDTH 6 0
BBX 5 10 0 0
BITMAP
2000
5000
0000
2000
2000
5000
5000
7000
5000
5000
ENDCHAR
STARTCHAR uni00C3
ENCODING 195
SWIDTH 500 0
DWIDTH 6 0
BBX 5 10 0 0
BITMAP
5000
A000
0000
2000
2000
5000
5000
7000
5000
5000
ENDCHAR
STARTCHAR uni00C4
ENCODING 196
SWIDTH 500 0
DWIDTH 6 0
BBX 5 10 0 0
BITMAP
5000
0000
2000
2000
5000
5000
5000
7000
8800
8800
ENDCHAR
STARTCHAR uni00C5
ENCODING 197
SWIDTH 500 0
DWIDTH 6 0
BBX 5 10 0 0
BITMAP
0000
2000
5000
2000
2000
5000
5000
7000
5000
5000
ENDCHAR
STARTCHAR uni00C6
ENCODING 198
SWIDTH 500 0
DWIDTH 6 0
BBX 7 8 0 0
BITMAP
0E00
1800
2800
2E00
4800
7800
4800
8E00
ENDCHAR
STARTCHAR uni00C7
ENCODING 199
SWIDTH 500 0
DWIDTH 6 0
BBX 2 4 0 -1
BITMAP
C000
0000
8000
C000
ENDCHAR
STARTCHAR uni00C8
ENCODING 200
SWIDTH 500 0
DWIDTH 6 0
BBX 3 10 0 0
BITMAP
8000
4000
0000
E000
8000
8000
E000
8000
8000
E000
ENDCHAR
STARTCHAR uni00C9
ENCODING 201
SWIDTH 500 0
DWIDTH 6 0
BBX 3 10 0 0
BITMAP
2000
4000
0000
E000
8000
8000
E000
8000
8000
E000
ENDCHAR
STARTCHAR uni00CA
ENCODING 202
SWIDTH 500 0
DWIDTH 6 0
BBX 3 10 0 0
BITMAP
4000
A000
0000
E000
8000
8000
E000
8000
8000
E000
ENDCHAR
STARTCHAR uni00CB
ENCODING 203
SWIDTH 500 0
DWIDTH 6 0
BBX 3 10 0 0
BITMAP
A000
0000
E000
8000
8000
E000
8000
8000
8000
E000
ENDCHAR
STARTCHAR uni00CC
ENCODING 204
SWIDTH 500 0
DWIDTH 6 0
BBX 2 10 0 0
BITMAP
8000
4000
0000
4000
4000
4000
4000
4000
4000
4000
ENDCHAR
STARTCHAR uni00CD
ENCODING 205
SWIDTH 500 0
DWIDTH 6 0
BBX 2 10 0 0
BITMAP
4000
8000
0000
8000
8000
8000
8000
8000
8000
8000
ENDCHAR
STARTCHAR uni00CE
ENCODING 206
SWIDTH 500 0
DWIDTH 6 0
BBX 3 10 0 0
BITMAP
4000
A000
0000
4000
4000
4000
4000
4000
4000
4000
ENDCHAR
STARTCHAR uni00CF
ENCODING 207
SWIDTH 500 0
DWIDTH 6 0
BBX 3 10 0 0
BITMAP
A000
0000
4000
4000
4000
4000
4000
4000
4000
4000
ENDCHAR
STARTCHAR uni00D0
ENCODING 208
SWIDTH 500 0
DWIDTH 6 0
BBX 5 8 0 0
BITMAP
7000
4800
4800
E800
4800
4800
4800
7000
ENDCHAR
STARTCHAR uni00D1
ENCODING 209
SWIDTH 500 0
DWIDTH 6 0
BBX 4 10 0 0
BITMAP
5000
A000
0000
9000
9000
D000
D000
B000
9000
9000
ENDCHAR
STARTCHAR uni00D2
ENCODING 210
SWIDTH 500 0
DWIDTH 6 0
BBX 4 10 0 0
BITMAP
4000
2000
0000
6000
9000
9000
9000
9000
9000
6000
ENDCHAR
STARTCHAR uni00D3
ENCODING 211
SWIDTH 500 0
DWIDTH 6 0
BBX 4 10 0 0
BITMAP
1000
2000
0000
6000
9000
9000
9000
9000
9000
6000
ENDCHAR
STARTCHAR uni00D4
ENCODING 212
SWIDTH 500 0
DWIDTH 6 0
BBX 4 10 0 0
BITMAP
6000
9000
0000
6000
9000
9000
9000
9000
9000
6000
ENDCHAR
STARTCHAR uni00D5
ENCODING 213
SWIDTH 500 0
DWIDTH 6 0
BBX 4 10 0 0
BITMAP
5000
A000
0000
6000
9000
9000
9000
9000
9000
6000
ENDCHAR
STARTCHAR uni00D6
ENCODING 214
SWIDTH 500 0
DWIDTH 6 0
BBX 4 10 0 0
BITMAP
9000
0000
6000
9000
9000
9000
9000
9000
9000
6000
ENDCHAR
STARTCHAR uni00D7
ENCODING 215
SWIDTH 500 0
DWIDTH 6 0
BBX 9 9 0 0
BITMAP
8080
4100
2200
1400
0800
1400
2200
4100
8080
ENDCHAR
STARTCHAR uni00D8
ENCODING 216
SWIDTH 500 0
DWIDTH 6 0
BBX 4 8 0 0
BITMAP
7000
9000
9000
B000
D000
9000
9000
E000
ENDCHAR
STARTCHAR uni00D9
ENCODING 217
SWIDTH 500 0
DWIDTH 6 0
BBX 4 10 0 0
BITMAP
4000
2000
0000
9000
9000
9000
9000
9000
9000
6000
ENDCHAR
STARTCHAR uni00DA
ENCODING 218
SWIDTH 500 0
DWIDTH 6 0
BBX 4 10 0 0
BITMAP
1000
2000
0000
9000
9000
9000
9000
9000
9000
6000
ENDCHAR
STARTCHAR uni00DB
ENCODING 219
SWIDTH 500 0
DWIDTH 6 0
BBX 4 10 0 0
BITMAP
2000
5000
0000
9000
9000
9000
9000
9000
9000
6000
ENDCHAR
STARTCHAR uni00DC
ENCODING 220
SWIDTH 500 0
DWIDTH 6 0
BBX 4 10 0 0
BITMAP
5000
0000
9000
9000
9000
9000
9000
9000
9000
6000
ENDCHAR
STARTCHAR uni00DD
ENCODING 221
SWIDTH 500 0
DWIDTH 6 0
BBX 5 10 0 0
BITMAP
1000
2000
0000
8800
5000
5000
2000
2000
2000
2000
ENDCHAR
STARTCHAR uni00DE
ENCODING 222
SWIDTH 500 0
DWIDTH 6 0
BBX 4 8 0 0
BITMAP
8000
E000
9000
9000
9000
E000
8000
8000
ENDCHAR
STARTCHAR uni00DF
ENCODING 223
SWIDTH 500 0
DWIDTH 6 0
BBX 5 8 0 0
BITMAP
3000
4800
C800
5000
5000
4800
4800
7000
ENDCHAR
STARTCHAR uni00E0
ENCODING 224
SWIDTH 500 0
DWIDTH 6 0
BBX 6 10 0 0
BITMAP
20
10
00
00
78
88
88
88
88
7C
ENDCHAR
STARTCHAR uni00E1
ENCODING 225
SWIDTH 500 0
DWIDTH 6 0
BBX 6 9 0 1
BITMAP
20
00
00
70
88
88
88
88
7C
ENDCHAR
STARTCHAR uni00E2
ENCODING 226
SWIDTH 500 0
DWIDTH 6 0
BBX 4 9 0 0
BITMAP
4000
A000
0000
C000
2000
6000
A000
A000
6000
ENDCHAR
STARTCHAR uni00E3
ENCODING 227
SWIDTH 500 0
DWIDTH 6 0
BBX 4 9 0 0
BITMAP
5000
A000
0000
C000
2000
6000
A000
A000
6000
ENDCHAR
STARTCHAR uni00E4
ENCODING 228
SWIDTH 500 0
DWIDTH 6 0
BBX 4 8 0 0
BITMAP
A000
0000
C000
2000
6000
A000
A000
6000
ENDCHAR
STARTCHAR uni00E5
ENCODING 229
SWIDTH 500 0
DWIDTH 6 0
BBX 4 10 0 0
BITMAP
4000
A000
4000
0000
C000
2000
6000
A000
A000
6000
ENDCHAR
STARTCHAR uni00E6
ENCODING 230
SWIDTH 500 0
DWIDTH 6 0
BBX 5 6 0 0
BITMAP
D000
2800
3800
6000
A000
5800
ENDCHAR
STARTCHAR uni00E7
ENCODING 231
SWIDTH 500 0
DWIDTH 6 0
BBX 2 4 0 -1
BITMAP
0000
8000
8000
8000
ENDCHAR
STARTCHAR uni00E8
ENCODING 232
SWIDTH 500 0
DWIDTH 6 0
BBX 5 10 0 0
BITMAP
40
30
00
00
70
88
F8
80
88
70
ENDCHAR
STARTCHAR uni00E9
ENCODING 233
SWIDTH 500 0
DWIDTH 6 0
BBX 5 10 0 0
BITMAP
10
20
00
00
70
88
F8
80
88
70
ENDCHAR
STARTCHAR uni00EA
ENCODING 234
SWIDTH 500 0
DWIDTH 6 0
BBX 5 9 0 1
BITMAP
70
08
00
70
88
F8
80
88
70
ENDCHAR
STARTCHAR uni00EB
ENCODING 235
SWIDTH 500 0
DWIDTH 6 0
BBX 3 8 0 0
BITMAP
A000
0000
4000
A000
E000
8000
8000
6000
ENDCHAR
STARTCHAR uni00EC
ENCODING 236
SWIDTH 500 0
DWIDTH 6 0
BBX 3 10 0 0
BITMAP
80
40
00
00
C0
40
40
40
40
E0
ENDCHAR
STARTCHAR uni00ED
ENCODING 237
SWIDTH 500 0
DWIDTH 6 0
BBX 3 10 0 0
BITMAP
40
80
00
00
C0
40
40
40
40
E0
ENDCHAR
STARTCHAR uni00EE
ENCODING 238
SWIDTH 500 0
DWIDTH 6 0
BBX 3 9 0 0
BITMAP
4000
A000
0000
4000
4000
4000
4000
4000
4000
ENDCHAR
STARTCHAR uni00EF
ENCODING 239
SWIDTH 500 0
DWIDTH 6 0
BBX 3 8 0 0
BITMAP
A000
0000
4000
4000
4000
4000
4000
4000
ENDCHAR
STARTCHAR uni00F0
ENCODING 240
SWIDTH 500 0
DWIDTH 6 0
BBX 4 8 0 0
BITMAP
6000
2000
7000
9000
9000
9000
9000
6000
ENDCHAR
STARTCHAR uni00F1
ENCODING 241
SWIDTH 500 0
DWIDTH 6 0
BBX 4 9 0 0
BITMAP
5000
A000
0000
6000
5000
5000
5000
5000
5000
ENDCHAR
STARTCHAR uni00F2
ENCODING 242
SWIDTH 500 0
DWIDTH 6 0
BBX 5 9 0 0
BITMAP
40
20
00
70
88
88
88
88
70
ENDCHAR
STARTCHAR uni00F3
ENCODING 243
SWIDTH 500 0
DWIDTH 6 0
BBX 5 10 0 0
BITMAP
10
20
00
00
70
88
88
88
88
70
ENDCHAR
STARTCHAR uni00F4
ENCODING 244
SWIDTH 500 0
DWIDTH 6 0
BBX 3 9 0 0
BITMAP
4000
A000
0000
4000
A000
A000
A000
A000
4000
ENDCHAR
STARTCHAR uni00F5
ENCODING 245
SWIDTH 500 0
DWIDTH 6 0
BBX 4 9 0 0
BITMAP
5000
A000
0000
4000
A000
A000
A000
A000
4000
ENDCHAR
STARTCHAR uni00F6
ENCODING 246
SWIDTH 500 0
DWIDTH 6 0
BBX 3 8 0 0
BITMAP
A000
0000
4000
A000
A000
A000
A000
4000
ENDCHAR
STARTCHAR uni00F7
ENCODING 247
SWIDTH 500 0
DWIDTH 6 0
BBX 8 7 0 1
BITMAP
18
18
00
FF
00
18
18
ENDCHAR
STARTCHAR uni00F8
ENCODING 248
SWIDTH 500 0
DWIDTH 6 0
BBX 4 8 0 -1
BITMAP
0000
3000
5000
7000
5000
5000
6000
0000
ENDCHAR
STARTCHAR uni00F9
ENCODING 249
SWIDTH 500 0
DWIDTH 6 0
BBX 6 9 0 0
BITMAP
20
10
00
CC
44
44
44
4C
34
ENDCHAR
STARTCHAR uni00FA
ENCODING 250
SWIDTH 500 0
DWIDTH 6 0
BBX 6 9 0 0
BITMAP
10
20
00
CC
44
44
44
4C
34
ENDCHAR
STARTCHAR uni00FB
ENCODING 251
SWIDTH 500 0
DWIDTH 6 0
BBX 4 9 0 0
BITMAP
4000
A000
0000
A000
A000
A000
A000
A000
6000
ENDCHAR
STARTCHAR uni00FC
ENCODING 252
SWIDTH 500 0
DWIDTH 6 0
BBX 6 9 0 0
BITMAP
44
00
00
CC
44
44
44
4C
34
ENDCHAR
STARTCHAR uni00FD
ENCODING 253
SWIDTH 500 0
DWIDTH 6 0
BBX 2 4 0 -1
BITMAP
8000
8000
8000
8000
ENDCHAR
STARTCHAR uni00FE
ENCODING 254
SWIDTH 500 0
DWIDTH 6 0
BBX 2 5 0 -1
BITMAP
8000
C000
C000
C000
8000
ENDCHAR
STARTCHAR uni00FF
ENCODING 255
SWIDTH 500 0
DWIDTH 6 0
BBX 2 4 0 -1
BITMAP
8000
8000
8000
8000
ENDCHAR
STARTCHAR uni0100
ENCODING 256
SWIDTH 500 0
DWIDTH 6 0
BBX 5 10 0 0
BITMAP
7000
0000
2000
2000
5000
5000
5000
7000
8800
8800
ENDCHAR
STARTCHAR uni0112
ENCODING 274
SWIDTH 500 0
DWIDTH 6 0
BBX 3 10 0 0
BITMAP
E000
0000
E000
8000
8000
E000
8000
8000
8000
E000
ENDCHAR
STARTCHAR uni012A
ENCODING 298
SWIDTH 500 0
DWIDTH 6 0
BBX 3 10 0 0
BITMAP
E000
0000
4000
4000
4000
4000
4000
4000
4000
4000
ENDCHAR
STARTCHAR uni0132
ENCODING 306
SWIDTH 500 0
DWIDTH 6 0
BBX 6 8 0 0
BITMAP
8400
8400
8400
8400
8400
8400
8400
B800
ENDCHAR
STARTCHAR uni014C
ENCODING 332
SWIDTH 500 0
DWIDTH 6 0
BBX 4 10 0 0
BITMAP
F000
0000
6000
9000
9000
9000
9000
9000
9000
6000
ENDCHAR
STARTCHAR uni0150
ENCODING 336
SWIDTH 500 0
DWIDTH 6 0
BBX 5 10 0 0
BITMAP
2800
5000
0000
6000
9000
9000
9000
9000
9000
6000
ENDCHAR
STARTCHAR uni0151
ENCODING 337
SWIDTH 500 0
DWIDTH 6 0
BBX 4 9 0 0
BITMAP
5000
A000
0000
4000
A000
A000
A000
A000
4000
ENDCHAR
STARTCHAR uni0152
ENCODING 338
SWIDTH 500 0
DWIDTH 6 0
BBX 6 8 0 0
BITMAP
7C00
9000
9000
9C00
9000
9000
9000
7C00
ENDCHAR
STARTCHAR uni0160
ENCODING 352
SWIDTH 500 0
DWIDTH 6 0
BBX 3 10 0 0
BITMAP
A000
4000
0000
6000
8000
8000
4000
2000
2000
C000
ENDCHAR
STARTCHAR uni016A
ENCODING 362
SWIDTH 500 0
DWIDTH 6 0
BBX 4 10 0 0
BITMAP
6000
0000
9000
9000
9000
9000
9000
9000
9000
6000
ENDCHAR
STARTCHAR uni0170
ENCODING 368
SWIDTH 500 0
DWIDTH 6 0
BBX 5 10 0 0
BITMAP
2800
5000
0000
9000
9000
9000
9000
9000
9000
6000
ENDCHAR
STARTCHAR uni0174
ENCODING 372
SWIDTH 500 0
DWIDTH 6 0
BBX 7 10 0 0
BITMAP
1000
2800
0000
8200
9200
9200
AA00
AA00
AA00
4400
ENDCHAR
STARTCHAR uni0175
ENCODING 373
SWIDTH 500 0
DWIDTH 6 0
BBX 7 9 0 0
BITMAP
1000
2800
0000
9200
9200
AA00
AA00
AA00
4400
ENDCHAR
STARTCHAR uni0176
ENCODING 374
SWIDTH 500 0
DWIDTH 6 0
BBX 5 10 0 0
BITMAP
2000
5000
0000
8800
5000
5000
2000
2000
2000
2000
ENDCHAR
STARTCHAR uni017D
ENCODING 381
SWIDTH 500 0
DWIDTH 6 0
BBX 3 10 0 0
BITMAP
A000
4000
0000
E000
2000
4000
4000
8000
8000
E000
ENDCHAR
STARTCHAR uni0400
ENCODING 1024
SWIDTH 500 0
DWIDTH 6 0
BBX 3 10 0 0
BITMAP
8000
4000
0000
E000
8000
8000
E000
8000
8000
E000
ENDCHAR
STARTCHAR uni0401
ENCODING 1025
SWIDTH 500 0
DWIDTH 6 0
BBX 6 9 0 1
BITMAP
48
FC
40
48
48
78
40
44
FC
ENDCHAR
STARTCHAR uni0402
ENCODING 1026
SWIDTH 500 0
DWIDTH 6 0
BBX 6 8 0 0
BITMAP
F800
2000
2000
3800
2400
2400
2400
2800
ENDCHAR
STARTCHAR uni0403
ENCODING 1027
SWIDTH 500 0
DWIDTH 6 0
BBX 3 10 0 0
BITMAP
2000
4000
0000
E000
8000
8000
8000
8000
8000
8000
ENDCHAR
STARTCHAR uni0404
ENCODING 1028
SWIDTH 500 0
DWIDTH 6 0
BBX 4 8 0 0
BITMAP
7000
8000
8000
F000
8000
8000
8000
7000
ENDCHAR
STARTCHAR uni0405
ENCODING 1029
SWIDTH 500 0
DWIDTH 6 0
BBX 4 8 0 0
BITMAP
7000
8000
8000
4000
2000
1000
1000
E000
ENDCHAR
STARTCHAR uni0406
ENCODING 1030
SWIDTH 500 0
DWIDTH 6 0
BBX 1 8 0 0
BITMAP
8000
8000
8000
8000
8000
8000
8000
8000
ENDCHAR
STARTCHAR uni0407
ENCODING 1031
SWIDTH 500 0
DWIDTH 6 0
BBX 3 10 0 0
BITMAP
A000
0000
4000
4000
4000
4000
4000
4000
4000
4000
ENDCHAR
STARTCHAR uni0408
ENCODING 1032
SWIDTH 500 0
DWIDTH 6 0
BBX 2 8 0 0
BITMAP
4000
4000
4000
4000
4000
4000
4000
8000
ENDCHAR
STARTCHAR uni0409
ENCODING 1033
SWIDTH 500 0
DWIDTH 6 0
BBX 8 8 0 0
BITMAP
7800
4800
4800
4E00
4900
4900
4900
8E00
ENDCHAR
STARTCHAR uni040A
ENCODING 1034
SWIDTH 500 0
DWIDTH 6 0
BBX 7 8 0 0
BITMAP
9000
9000
9000
FC00
9200
9200
9200
9C00
ENDCHAR
STARTCHAR uni040B
ENCODING 1035
SWIDTH 500 0
DWIDTH 6 0
BBX 6 8 0 0
BITMAP
F800
2000
2000
3800
2400
2400
2400
2400
ENDCHAR
STARTCHAR uni040C
ENCODING 1036
SWIDTH 500 0
DWIDTH 6 0
BBX 4 10 0 0
BITMAP
1000
2000
0000
9000
A000
A000
C000
A000
A000
9000
ENDCHAR
STARTCHAR uni040D
ENCODING 1037
SWIDTH 500 0
DWIDTH 6 0
BBX 4 10 0 0
BITMAP
4000
2000
0000
9000
B000
B000
D000
D000
D000
9000
ENDCHAR
STARTCHAR uni040E
ENCODING 1038
SWIDTH 500 0
DWIDTH 6 0
BBX 5 10 0 0
BITMAP
5000
2000
0000
5000
5000
5000
5000
2000
2000
4000
ENDCHAR
STARTCHAR uni040F
ENCODING 1039
SWIDTH 500 0
DWIDTH 6 0
BBX 3 5 0 -1
BITMAP
C000
C000
C000
C000
8000
ENDCHAR
STARTCHAR uni0410
ENCODING 1040
SWIDTH 500 0
DWIDTH 6 0
BBX 8 9 0 1
BITMAP
10
18
28
24
44
3C
42
82
C3
ENDCHAR
STARTCHAR uni0411
ENCODING 1041
SWIDTH 500 0
DWIDTH 6 0
BBX 6 9 0 1
BITMAP
F8
44
40
40
78
44
44
44
F8
ENDCHAR
STARTCHAR uni0412
ENCODING 1042
SWIDTH 500 0
DWIDTH 6 0
BBX 7 9 0 1
BITMAP
F8
44
44
44
78
44
42
42
FC
ENDCHAR
STARTCHAR uni0413
ENCODING 1043
SWIDTH 500 0
DWIDTH 6 0
BBX 6 9 0 1
BITMAP
FC
44
40
40
40
40
40
40
E0
ENDCHAR
STARTCHAR uni0414
ENCODING 1044
SWIDTH 500 0
DWIDTH 6 0
BBX 7 11 0 -1
BITMAP
7C
24
44
44
44
44
44
84
7C
82
82
ENDCHAR
STARTCHAR uni0415
ENCODING 1045
SWIDTH 500 0
DWIDTH 6 0
BBX 7 9 0 1
BITMAP
FC
44
42
48
78
48
40
42
FC
ENDCHAR
STARTCHAR uni0416
ENCODING 1046
SWIDTH 500 0
DWIDTH 6 0
BBX 8 9 0 1
BITMAP
39
92
92
92
7C
92
92
92
38
ENDCHAR
STARTCHAR uni0417
ENCODING 1047
SWIDTH 500 0
DWIDTH 6 0
BBX 6 9 0 1
BITMAP
38
44
04
08
38
04
84
84
78
ENDCHAR
STARTCHAR uni0418
ENCODING 1048
SWIDTH 500 0
DWIDTH 6 0
BBX 7 9 0 1
BITMAP
EE
44
4C
54
54
64
64
44
EE
ENDCHAR
STARTCHAR uni0419
ENCODING 1049
SWIDTH 500 0
DWIDTH 6 0
BBX 7 10 0 0
BITMAP
38
EE
44
4C
54
54
64
64
44
EE
ENDCHAR
STARTCHAR uni041A
ENCODING 1050
SWIDTH 500 0
DWIDTH 6 0
BBX 7 10 0 0
BITMAP
C6
4A
48
48
70
48
48
48
CA
04
ENDCHAR
STARTCHAR uni041B
ENCODING 1051
SWIDTH 500 0
DWIDTH 6 0
BBX 7 9 0 1
BITMAP
7E
24
24
24
24
24
24
24
CE
ENDCHAR
STARTCHAR uni041C
ENCODING 1052
SWIDTH 500 0
DWIDTH 6 0
BBX 9 9 0 1
BITMAP
C180
4100
4300
6500
6500
5500
5900
4900
EB80
ENDCHAR
STARTCHAR uni041D
ENCODING 1053
SWIDTH 500 0
DWIDTH 6 0
BBX 8 9 0 1
BITMAP
E7
42
42
42
7E
42
42
42
E7
ENDCHAR
STARTCHAR uni041E
ENCODING 1054
SWIDTH 500 0
DWIDTH 6 0
BBX 7 9 0 1
BITMAP
38
44
84
82
82
82
82
44
38
ENDCHAR
STARTCHAR uni041F
ENCODING 1055
SWIDTH 500 0
DWIDTH 6 0
BBX 7 9 0 1
BITMAP
FC
44
44
44
44
44
44
44
EE
ENDCHAR
STARTCHAR uni0420
ENCODING 1056
SWIDTH 500 0
DWIDTH 6 0
BBX 5 9 0 1
BITMAP
F0
88
88
88
F0
80
80
80
C0
ENDCHAR
STARTCHAR uni0421
ENCODING 1057
SWIDTH 500 0
DWIDTH 6 0
BBX 6 9 0 1
BITMAP
34
4C
40
80
80
80
80
44
38
ENDCHAR
STARTCHAR uni0422
ENCODING 1058
SWIDTH 500 0
DWIDTH 6 0
BBX 8 9 0 1
BITMAP
7F
89
08
08
08
08
08
08
1C
ENDCHAR
STARTCHAR uni0423
ENCODING 1059
SWIDTH 500 0
DWIDTH 6 0
BBX 7 9 0 1
BITMAP
E6
44
44
28
28
10
10
20
60
ENDCHAR
STARTCHAR uni0424
ENCODING 1060
SWIDTH 500 0
DWIDTH 6 0
BBX 7 9 0 1
BITMAP
38
10
7C
92
92
92
92
7C
38
ENDCHAR
STARTCHAR uni0425
ENCODING 1061
SWIDTH 500 0
DWIDTH 6 0
BBX 8 9 0 1
BITMAP
E7
44
24
18
10
18
24
44
E7
ENDCHAR
STARTCHAR uni0426
ENCODING 1062
SWIDTH 500 0
DWIDTH 6 0
BBX 6 10 0 0
BITMAP
EC
44
44
44
44
44
44
44
7C
04
ENDCHAR
STARTCHAR uni0427
ENCODING 1063
SWIDTH 500 0
DWIDTH 6 0
BBX 6 9 0 1
BITMAP
CC
88
88
88
88
98
68
08
1C
ENDCHAR
STARTCHAR uni0428
ENCODING 1064
SWIDTH 500 0
DWIDTH 6 0
BBX 8 9 0 1
BITMAP
FB
49
49
49
49
49
49
49
FF
ENDCHAR
STARTCHAR uni0429
ENCODING 1065
SWIDTH 500 0
DWIDTH 6 0
BBX 9 11 0 -1
BITMAP
F980
4900
4900
4900
4900
4900
4900
4900
C900
3680
0080
ENDCHAR
STARTCHAR uni042A
ENCODING 1066
SWIDTH 500 0
DWIDTH 6 0
BBX 8 9 0 1
BITMAP
78
90
10
10
1E
11
11
11
3E
ENDCHAR
STARTCHAR uni042B
ENCODING 1067
SWIDTH 500 0
DWIDTH 6 0
BBX 9 9 0 1
BITMAP
E380
4100
4100
4100
7100
4500
4500
4500
FB80
ENDCHAR
STARTCHAR uni042C
ENCODING 1068
SWIDTH 500 0
DWIDTH 6 0
BBX 6 9 0 1
BITMAP
E0
40
40
40
78
44
44
44
F8
ENDCHAR
STARTCHAR uni042D
ENCODING 1069
SWIDTH 500 0
DWIDTH 6 0
BBX 6 9 0 1
BITMAP
30
48
84
04
3C
04
84
88
70
ENDCHAR
STARTCHAR uni042E
ENCODING 1070
SWIDTH 500 0
DWIDTH 6 0
BBX 9 9 0 1
BITMAP
CE00
5100
6100
6080
6080
6080
6080
5100
CE00
ENDCHAR
STARTCHAR uni042F
ENCODING 1071
SWIDTH 500 0
DWIDTH 6 0
BBX 7 9 0 1
BITMAP
3E
44
44
44
3C
44
44
44
CE
ENDCHAR
STARTCHAR uni0430
ENCODING 1072
SWIDTH 500 0
DWIDTH 6 0
BBX 5 6 0 1
BITMAP
70
90
70
90
90
F8
ENDCHAR
STARTCHAR uni0431
ENCODING 1073
SWIDTH 500 0
DWIDTH 6 0
BBX 5 8 0 1
BITMAP
10
60
70
90
88
88
90
70
ENDCHAR
STARTCHAR uni0432
ENCODING 1074
SWIDTH 500 0
DWIDTH 6 0
BBX 6 6 0 1
BITMAP
F8
44
48
7C
44
F8
ENDCHAR
STARTCHAR uni0433
ENCODING 1075
SWIDTH 500 0
DWIDTH 6 0
BBX 5 6 0 1
BITMAP
F8
40
40
40
40
E0
ENDCHAR
STARTCHAR uni0434
ENCODING 1076
SWIDTH 500 0
DWIDTH 6 0
BBX 6 7 0 0
BITMAP
7C
24
44
44
44
FC
84
ENDCHAR
STARTCHAR uni0435
ENCODING 1077
SWIDTH 500 0
DWIDTH 6 0
BBX 5 6 0 1
BITMAP
70
88
F8
80
88
70
ENDCHAR
STARTCHAR uni0436
ENCODING 1078
SWIDTH 500 0
DWIDTH 6 0
BBX 6 6 0 1
BITMAP
B0
94
94
78
94
B0
ENDCHAR
STARTCHAR uni0437
ENCODING 1079
SWIDTH 500 0
DWIDTH 6 0
BBX 5 6 0 1
BITMAP
70
88
10
38
88
70
ENDCHAR
STARTCHAR uni0438
ENCODING 1080
SWIDTH 500 0
DWIDTH 6 0
BBX 6 6 0 1
BITMAP
CC
44
5C
64
44
CC
ENDCHAR
STARTCHAR uni0439
ENCODING 1081
SWIDTH 500 0
DWIDTH 6 0
BBX 6 7 0 1
BITMAP
78
CC
44
5C
64
44
CC
ENDCHAR
STARTCHAR uni043A
ENCODING 1082
SWIDTH 500 0
DWIDTH 6 0
BBX 5 7 0 0
BITMAP
D8
90
90
E0
90
D0
08
ENDCHAR
STARTCHAR uni043B
ENCODING 1083
SWIDTH 500 0
DWIDTH 6 0
BBX 7 6 0 1
BITMAP
3E
24
24
24
24
EE
ENDCHAR
STARTCHAR uni043C
ENCODING 1084
SWIDTH 500 0
DWIDTH 6 0
BBX 8 6 0 1
BITMAP
C3
C2
AE
AA
92
D7
ENDCHAR
STARTCHAR uni043D
ENCODING 1085
SWIDTH 500 0
DWIDTH 6 0
BBX 6 6 0 1
BITMAP
CC
44
44
7C
44
EC
ENDCHAR
STARTCHAR uni043E
ENCODING 1086
SWIDTH 500 0
DWIDTH 6 0
BBX 6 6 0 1
BITMAP
38
44
84
84
84
38
ENDCHAR
STARTCHAR uni043F
ENCODING 1087
SWIDTH 500 0
DWIDTH 6 0
BBX 6 6 0 1
BITMAP
FC
48
48
48
48
EC
ENDCHAR
STARTCHAR uni0440
ENCODING 1088
SWIDTH 500 0
DWIDTH 6 0
BBX 5 8 0 -1
BITMAP
B0
C8
88
88
88
F0
80
C0
ENDCHAR
STARTCHAR uni0441
ENCODING 1089
SWIDTH 500 0
DWIDTH 6 0
BBX 4 6 0 1
BITMAP
60
90
80
80
80
70
ENDCHAR
STARTCHAR uni0442
ENCODING 1090
SWIDTH 500 0
DWIDTH 6 0
BBX 7 6 0 1
BITMAP
FE
90
10
10
10
38
ENDCHAR
STARTCHAR uni0443
ENCODING 1091
SWIDTH 500 0
DWIDTH 6 0
BBX 6 8 0 -1
BITMAP
CC
88
48
50
30
20
20
C0
ENDCHAR
STARTCHAR uni0444
ENCODING 1092
SWIDTH 500 0
DWIDTH 6 0
BBX 7 11 0 -1
BITMAP
10
30
10
7C
92
92
92
92
7C
10
38
ENDCHAR
STARTCHAR uni0445
ENCODING 1093
SWIDTH 500 0
DWIDTH 6 0
BBX 7 6 0 1
BITMAP
EE
48
30
30
48
CE
ENDCHAR
STARTCHAR uni0446
ENCODING 1094
SWIDTH 500 0
DWIDTH 6 0
BBX 6 7 0 0
BITMAP
EC
44
44
44
44
44
38
ENDCHAR
STARTCHAR uni0447
ENCODING 1095
SWIDTH 500 0
DWIDTH 6 0
BBX 5 6 0 1
BITMAP
D8
88
88
98
68
18
ENDCHAR
STARTCHAR uni0448
ENCODING 1096
SWIDTH 500 0
DWIDTH 6 0
BBX 8 6 0 1
BITMAP
FB
49
49
49
49
FF
ENDCHAR
STARTCHAR uni0449
ENCODING 1097
SWIDTH 500 0
DWIDTH 6 0
BBX 8 7 0 0
BITMAP
F6
92
92
92
92
92
6D
ENDCHAR
STARTCHAR uni044A
ENCODING 1098
SWIDTH 500 0
DWIDTH 6 0
BBX 7 6 0 1
BITMAP
F0
A0
20
3C
22
7C
ENDCHAR
STARTCHAR uni044B
ENCODING 1099
SWIDTH 500 0
DWIDTH 6 0
BBX 8 6 0 1
BITMAP
E3
42
42
7A
46
FB
ENDCHAR
STARTCHAR uni044C
ENCODING 1100
SWIDTH 500 0
DWIDTH 6 0
BBX 5 6 0 1
BITMAP
E0
40
40
70
48
F0
ENDCHAR
STARTCHAR uni044D
ENCODING 1101
SWIDTH 500 0
DWIDTH 6 0
BBX 5 6 0 1
BITMAP
F0
88
08
78
88
70
ENDCHAR
STARTCHAR uni044E
ENCODING 1102
SWIDTH 500 0
DWIDTH 6 0
BBX 8 6 0 1
BITMAP
DC
A2
A1
E1
A2
DC
ENDCHAR
STARTCHAR uni044F
ENCODING 1103
SWIDTH 500 0
DWIDTH 6 0
BBX 6 6 0 1
BITMAP
7C
88
88
78
48
DC
ENDCHAR
STARTCHAR uni0450
ENCODING 1104
SWIDTH 500 0
DWIDTH 6 0
BBX 3 9 0 0
BITMAP
8000
4000
0000
4000
A000
E000
8000
8000
6000
ENDCHAR
STARTCHAR uni0451
ENCODING 1105
SWIDTH 500 0
DWIDTH 6 0
BBX 5 7 0 1
BITMAP
50
70
88
F8
80
88
70
ENDCHAR
STARTCHAR uni0452
ENCODING 1106
SWIDTH 500 0
DWIDTH 6 0
BBX 3 4 0 -1
BITMAP
4000
6000
6000
2000
ENDCHAR
STARTCHAR uni0453
ENCODING 1107
SWIDTH 500 0
DWIDTH 6 0
BBX 3 9 0 0
BITMAP
2000
4000
0000
C000
8000
8000
8000
8000
8000
ENDCHAR
STARTCHAR uni0454
ENCODING 1108
SWIDTH 500 0
DWIDTH 6 0
BBX 3 6 0 0
BITMAP
6000
8000
E000
8000
8000
6000
ENDCHAR
STARTCHAR uni0455
ENCODING 1109
SWIDTH 500 0
DWIDTH 6 0
BBX 3 6 0 0
BITMAP
6000
8000
4000
2000
2000
C000
ENDCHAR
STARTCHAR uni0456
ENCODING 1110
SWIDTH 500 0
DWIDTH 6 0
BBX 1 8 0 0
BITMAP
8000
0000
8000
8000
8000
8000
8000
8000
ENDCHAR
STARTCHAR uni0457
ENCODING 1111
SWIDTH 500 0
DWIDTH 6 0
BBX 3 8 0 0
BITMAP
A000
0000
4000
4000
4000
4000
4000
4000
ENDCHAR
STARTCHAR uni0458
ENCODING 1112
SWIDTH 500 0
DWIDTH 6 0
BBX 1 4 0 -1
BITMAP
8000
8000
8000
8000
ENDCHAR
STARTCHAR uni0459
ENCODING 1113
SWIDTH 500 0
DWIDTH 6 0
BBX 6 6 0 0
BITMAP
7000
5000
5800
5400
5400
9800
ENDCHAR
STARTCHAR uni045A
ENCODING 1114
SWIDTH 500 0
DWIDTH 6 0
BBX 5 6 0 0
BITMAP
A000
A000
F000
A800
A800
B000
ENDCHAR
STARTCHAR uni045B
ENCODING 1115
SWIDTH 500 0
DWIDTH 6 0
BBX 4 8 0 0
BITMAP
4000
E000
4000
6000
5000
5000
5000
5000
ENDCHAR
STARTCHAR uni045C
ENCODING 1116
SWIDTH 500 0
DWIDTH 6 0
BBX 4 9 0 0
BITMAP
2000
4000
0000
A000
A000
C000
C000
A000
A000
ENDCHAR
STARTCHAR uni045D
ENCODING 1117
SWIDTH 500 0
DWIDTH 6 0
BBX 4 9 0 0
BITMAP
4000
2000
0000
9000
B000
B000
D000
9000
9000
ENDCHAR
STARTCHAR uni045E
ENCODING 1118
SWIDTH 500 0
DWIDTH 6 0
BBX 2 4 0 -1
BITMAP
8000
8000
8000
8000
ENDCHAR
STARTCHAR uni1E80
ENCODING 7808
SWIDTH 500 0
DWIDTH 6 0
BBX 7 10 0 0
BITMAP
2000
1000
0000
8200
9200
9200
AA00
AA00
AA00
4400
ENDCHAR
STARTCHAR uni1E81
ENCODING 7809
SWIDTH 500 0
DWIDTH 6 0
BBX 7 9 0 0
BITMAP
2000
1000
0000
9200
9200
AA00
AA00
AA00
4400
ENDCHAR
STARTCHAR uni1E82
ENCODING 7810
SWIDTH 500 0
DWIDTH 6 0
BBX 7 10 0 0
BITMAP
0800
1000
0000
8200
9200
9200
AA00
AA00
AA00
4400
ENDCHAR
STARTCHAR uni4E00
ENCODING 19968
SWIDTH 500 0
DWIDTH 6 0
BBX 9 2 0 4
BITMAP
0100
FF80
ENDCHAR
STARTCHAR uni4E01
ENCODING 19969
SWIDTH 500 0
DWIDTH 6 0
BBX 9 10 0 -1
BITMAP
0100
FF80
0800
0800
0800
0800
0800
0800
3800
1000
ENDCHAR
STARTCHAR uni4E03
ENCODING 19971
SWIDTH 500 0
DWIDTH 6 0
BBX 10 10 0 -1
BITMAP
0800
0800
08C0
0F00
F800
0800
0800
0840
0840
07C0
ENDCHAR
STARTCHAR uni4E07
ENCODING 19975
SWIDTH 500 0
DWIDTH 6 0
BBX 9 10 0 -1
BITMAP
FF80
1000
1100
1F80
1100
2100
2100
4100
4700
8200
ENDCHAR
STARTCHAR uni4E08
ENCODING 19976
SWIDTH 500 0
DWIDTH 6 0
BBX 9 10 0 -1
BITMAP
0400
0500
FF80
0400
2400
2400
1800
0800
3600
C180
ENDCHAR
STARTCHAR uni4E09
ENCODING 19977
SWIDTH 500 0
DWIDTH 6 0
BBX 10 9 0 -1
BITMAP
7F80
0000
0000
0000
3F00
0000
0000
0000
FFC0
ENDCHAR
STARTCHAR uni4E0A
ENCODING 19978
SWIDTH 500 0
DWIDTH 6 0
BBX 10 10 0 -1
BITMAP
0800
0800
0800
0F80
0800
0800
0800
0800
0800
FFC0
ENDCHAR
STARTCHAR uni4E0B
ENCODING 19979
SWIDTH 500 0
DWIDTH 6 0
BBX 9 10 0 -1
BITMAP
FF80
0800
0800
0C00
0B00
0900
0800
0800
0800
0800
ENDCHAR
STARTCHAR uni4E0C
ENCODING 19980
SWIDTH 500 0
DWIDTH 6 0
BBX 10 10 0 -1
BITMAP
FFC0
1100
1100
1100
1100
1100
1100
1100
2100
4100
ENDCHAR
STARTCHAR uni4E0D
ENCODING 19981
SWIDTH 500 0
DWIDTH 6 0
BBX 9 10 0 -1
BITMAP
FF80
0800
0800
1A00
2900
4880
8880
0800
0800
0800
ENDCHAR
STARTCHAR uni4E0E
ENCODING 19982
SWIDTH 500 0
DWIDTH 6 0
BBX 9 10 0 -1
BITMAP
2100
3F80
4000
7F00
0100
0900
FD00
0100
0100
0600
ENDCHAR
STARTCHAR uni4E0F
ENCODING 19983
SWIDTH 500 0
DWIDTH 6 0
BBX 10 10 0 -1
BITMAP
FFC0
0400
0400
2780
2480
7F80
0080
0080
0780
0100
ENDCHAR
STARTCHAR uni4E10
ENCODING 19984
SWIDTH 500 0
DWIDTH 6 0
BBX 9 10 0 -1
BITMAP
FF80
0800
4F00
4800
8800
FF00
0100
0100
0F00
0200
ENDCHAR
STARTCHAR uni4E11
ENCODING 19985
SWIDTH 500 0
DWIDTH 6 0
BBX 9 10 0 -1
BITMAP
7F00
1100
1100
1100
7F00
2100
2100
2100
2100
FF80
ENDCHAR
STARTCHAR uni4E13
ENCODING 19987
SWIDTH 500 0
DWIDTH 6 0
BBX 9 10 0 -1
BITMAP
1000
FF00
1000
FF80
2000
3F00
0400
3800
0400
0200
ENDCHAR
STARTCHAR uni4E14
ENCODING 19988
SWIDTH 500 0
DWIDTH 6 0
BBX 9 10 0 -1
BITMAP
3E00
2200
2200
3E00
2200
2200
3E00
2200
2200
FF80
ENDCHAR
STARTCHAR uni4E15
ENCODING 19989
SWIDTH 500 0
DWIDTH 6 0
BBX 9 10 0 -1
BITMAP
FF80
0800
0800
1800
2A00
4980
8880
0800
0100
FF80
ENDCHAR
STARTCHAR uni4E16
ENCODING 19990
SWIDTH 500 0
DWIDTH 6 0
BBX 10 10 0 -1
BITMAP
2500
2500
FFC0
2500
2500
2500
2700
2000
2080
3FC0
ENDCHAR
STARTCHAR uni4E18
ENCODING 19992
SWIDTH 500 0
DWIDTH 6 0
BBX 10 10 0 -1
BITMAP
0180
3E00
2000
2080
3FC0
2200
2200
2200
2200
FFC0
ENDCHAR
STARTCHAR uni4E19
ENCODING 19993
SWIDTH 500 0
DWIDTH 6 0
BBX 10 10 0 -1
BITMAP
FFC0
0400
0400
7FC0
4440
4440
4A40
5140
4040
41C0
ENDCHAR
STARTCHAR uni4E1A
ENCODING 19994
SWIDTH 500 0
DWIDTH 6 0
BBX 9 10 0 -1
BITMAP
1400
1400
1400
9480
9480
5500
5500
1400
1400
FF80
ENDCHAR
STARTCHAR uni4E1B
ENCODING 19995
SWIDTH 500 0
DWIDTH 6 0
BBX 9 10 0 -1
BITMAP
2200
2200
2200
3200
2A00
4600
4900
9080
0000
FF80
ENDCHAR
STARTCHAR uni4E1C
ENCODING 19996
SWIDTH 500 0
DWIDTH 6 0
BBX 9 10 0 -1
BITMAP
1100
FF80
2000
4800
FF00
0800
2A00
4900
9880
0800
ENDCHAR
STARTCHAR uni4E1D
ENCODING 19997
SWIDTH 500 0
DWIDTH 6 0
BBX 10 10 0 -1
BITMAP
2100
4200
4A40
9480
E700
4100
4200
FBC0
0000
FFC0
ENDCHAR
STARTCHAR uni4E1E
ENCODING 19998
SWIDTH 500 0
DWIDTH 6 0
BBX 10 10 0 -1
BITMAP
7F80
0100
0200
7C80
1700
2500
4480
8C40
0400
FFC0
ENDCHAR
STARTCHAR uni4E1F
ENCODING 19999
SWIDTH 500 0
DWIDTH 6 0
BBX 10 10 0 -1
BITMAP
FFC0
0400
0400
7F80
0400
FFC0
0800
1080
FFC0
2040
ENDCHAR
STARTCHAR uni4E22
ENCODING 20002
SWIDTH 500 0
DWIDTH 6 0
BBX 9 10 0 -1
BITMAP
0700
F800
0800
7F00
0800
FF80
1000
2200
7F00
2100
ENDCHAR
STARTCHAR uni4E24
ENCODING 20004
SWIDTH 500 0
DWIDTH 6 0
BBX 10 10 0 -1
BITMAP
FFC0
1200
7FC0
5240
5240
5D40
64C0
4840
4040
40C0
ENDCHAR
STARTCHAR uni4E25
ENCODING 20005
SWIDTH 500 0
DWIDTH 6 0
BBX 10 10 0 -1
BITMAP
7FC0
4A40
2A80
7FC0
4000
4000
4000
4000
4000
8000
ENDCHAR
STARTCHAR uni4E26
ENCODING 20006
SWIDTH 500 0
DWIDTH 6 0
BBX 9 10 0 -1
BITMAP
2200
1400
FF80
1400
9480
5500
5500
1400
1500
FF80
ENDCHAR
STARTCHAR uni4E27
ENCODING 20007
SWIDTH 500 0
DWIDTH 6 0
BBX 9 10 0 -1
BITMAP
0900
FF80
4900
2A00
FF80
2900
2A00
2400
3200
6180
ENDCHAR
STARTCHAR uni4E28
ENCODING 20008
SWIDTH 500 0
DWIDTH 6 0
BBX 1 10 0 -1
BITMAP
80
80
80
80
80
80
80
80
80
80
ENDCHAR
STARTCHAR uni4E2A
ENCODING 20010
SWIDTH 500 0
DWIDTH 6 0
BBX 9 10 0 -1
BITMAP
0800
1400
2200
4900
8880
0800
0800
0800
0800
0800
ENDCHAR
STARTCHAR uni4E2B
ENCODING 20011
SWIDTH 500 0
DWIDTH 6 0
BBX 7 10 0 -1
BITMAP
82
44
28
10
10
10
10
10
10
10
ENDCHAR
STARTCHAR uni4E2C
ENCODING 20012
SWIDTH 500 0
DWIDTH 6 0
BBX 4 10 0 -1
BITMAP
10
90
50
10
10
50
90
10
10
10
ENDCHAR
STARTCHAR uni4E2D
ENCODING 20013
SWIDTH 500 0
DWIDTH 6 0
BBX 9 10 0 -1
BITMAP
0800
0800
FF80
8880
8880
FF80
8880
0800
0800
0800
ENDCHAR
STARTCHAR uni4E2E
ENCODING 20014
SWIDTH 500 0
DWIDTH 6 0
BBX 10 10 0 -1
BITMAP
FF00
1100
1100
7D00
1100
FD00
2140
2140
40C0
8040
ENDCHAR
STARTCHAR uni4E30
ENCODING 20016
SWIDTH 500 0
DWIDTH 6 0
BBX 9 10 0 -1
BITMAP
0900
FF80
0800
0800
7F00
0800
0900
FF80
0800
0800
ENDCHAR
STARTCHAR uni4E31
ENCODING 20017
SWIDTH 500 0
DWIDTH 6 0
BBX 9 10 0 -1
BITMAP
1400
9480
9480
9480
9480
F780
9480
2400
4400
8400
ENDCHAR
STARTCHAR uni4E32
ENCODING 20018
SWIDTH 500 0
DWIDTH 6 0
BBX 9 10 0 -1
BITMAP
0800
7F00
4900
7F00
0800
FF80
8880
FF80
0800
0800
ENDCHAR
STARTCHAR uni4E33
ENCODING 20019
SWIDTH 500 0
DWIDTH 6 0
BBX 9 10 0 -1
BITMAP
1400
7F00
5500
7F00
1400
FF80
9480
FF80
2400
4400
ENDCHAR
STARTCHAR uni4E34
ENCODING 20020
SWIDTH 500 0
DWIDTH 6 0
BBX 10 10 0 -1
BITMAP
2400
27C0
A500
A880
A7C0
A540
A540
A540
27C0
2440
ENDCHAR
STARTCHAR uni4E36
ENCODING 20022
SWIDTH 500 0
DWIDTH 6 0
BBX 4 5 0 2
BITMAP
80
60
30
10
10
ENDCHAR
STARTCHAR uni4E38
ENCODING 20024
SWIDTH 500 0
DWIDTH 6 0
BBX 9 10 0 -1
BITMAP
1000
1200
FF00
1200
1200
3200
1A00
2280
4280
8380
ENDCHAR
STARTCHAR uni4E39
ENCODING 20025
SWIDTH 500 0
DWIDTH 6 0
BBX 9 11 0 -1
BITMAP
2100
3F80
2100
2900
2500
FF80
2100
2100
4100
4700
8100
ENDCHAR
STARTCHAR uni4E3A
ENCODING 20026
SWIDTH 500 0
DWIDTH 6 0
BBX 10 10 0 -1
BITMAP
4800
2800
0880
FFC0
1080
1480
1280
2080
4080
8300
ENDCHAR
STARTCHAR uni4E3B
ENCODING 20027
SWIDTH 500 0
DWIDTH 6 0
BBX 9 10 0 -1
BITMAP
1000
0900
FF80
0800
0800
7F00
0800
0800
0900
FF80
ENDCHAR
STARTCHAR uni4E3C
ENCODING 20028
SWIDTH 500 0
DWIDTH 6 0
BBX 9 10 0 -1
BITMAP
2200
2200
FF80
3200
2A00
FF80
2200
2200
4200
8200
ENDCHAR
STARTCHAR uni4E3D
ENCODING 20029
SWIDTH 500 0
DWIDTH 6 0
BBX 9 10 0 -1
BITMAP
FF80
0000
F780
9480
D680
B580
9480
9480
B580
9480
ENDCHAR
STARTCHAR uni4E3E
ENCODING 20030
SWIDTH 500 0
DWIDTH 6 0
BBX 9 10 0 -1
BITMAP
9100
4A00
0200
FF80
4900
BE80
0800
FF80
0800
0800
ENDCHAR
STARTCHAR uni4E3F
ENCODING 20031
SWIDTH 500 0
DWIDTH 6 0
BBX 4 10 0 -1
BITMAP
10
10
10
10
10
10
20
20
40
80
ENDCHAR
STARTCHAR uni4E42
ENCODING 20034
SWIDTH 500 0
DWIDTH 6 0
BBX 9 9 0 -1
BITMAP
4200
4200
2200
2400
1400
0800
1400
2200
C180
ENDCHAR
STARTCHAR uni4E43
ENCODING 20035
SWIDTH 500 0
DWIDTH 6 0
BBX 9 10 0 -1
BITMAP
FF00
1200
1200
1780
1080
2080
2080
4080
4080
8300
ENDCHAR
STARTCHAR uni4E45
ENCODING 20037
SWIDTH 500 0
DWIDTH 6 0
BBX 9 10 0 -1
BITMAP
2000
2400
3E00
4400
4400
8400
0C00
1200
2180
C080
ENDCHAR
STARTCHAR uni4E47
ENCODING 20039
SWIDTH 500 0
DWIDTH 6 0
BBX 9 10 0 -1
BITMAP
0600
F800
1000
1100
1F80
F000
1000
1080
1080
0F80
ENDCHAR
STARTCHAR uni4E48
ENCODING 20040
SWIDTH 500 0
DWIDTH 6 0
BBX 9 10 0 -1
BITMAP
1800
1000
2600
4400
8800
0800
1000
2100
7F80
2080
ENDCHAR
STARTCHAR uni4E49
ENCODING 20041
SWIDTH 500 0
DWIDTH 6 0
BBX 9 10 0 -1
BITMAP
1000
0A00
4A00
2200
2400
1400
0800
1400
2200
C180
ENDCHAR
STARTCHAR uni4E4B
ENCODING 20043
SWIDTH 500 0
DWIDTH 6 0
BBX 10 10 0 -1
BITMAP
0800
0400
7F80
0100
0200
0400
0800
3000
4800
87C0
ENDCHAR
STARTCHAR uni4E4C
ENCODING 20044
SWIDTH 500 0
DWIDTH 6 0
BBX 9 10 0 -1
BITMAP
0800
3F00
2100
2500
2200
3F80
0080
FC80
0080
0300
ENDCHAR
STARTCHAR uni4E4D
ENCODING 20045
SWIDTH 500 0
DWIDTH 6 0
BBX 10 10 0 -1
BITMAP
2000
3FC0
2800
4800
8F80
0800
0FC0
0800
0800
0800
ENDCHAR
STARTCHAR uni4E4E
ENCODING 20046
SWIDTH 500 0
DWIDTH 6 0
BBX 9 10 0 -1
BITMAP
0700
F800
4900
2A00
0800
FF80
0800
0800
3800
0800
ENDCHAR
STARTCHAR uni4E4F
ENCODING 20047
SWIDTH 500 0
DWIDTH 6 0
BBX 10 10 0 -1
BITMAP
0380
7C00
0400
7F80
0100
0600
1800
2000
D000
8FC0
ENDCHAR
STARTCHAR uni4E50
ENCODING 20048
SWIDTH 500 0
DWIDTH 6 0
BBX 9 10 0 -1
BITMAP
4700
7800
4800
8900
FF80
0800
2A00
4980
9880
0800
ENDCHAR
STARTCHAR uni4E52
ENCODING 20050
SWIDTH 500 0
DWIDTH 6 0
BBX 10 10 0 -1
BITMAP
0300
3C00
2000
3F80
2200
2200
FFC0
1000
2000
C000
ENDCHAR
STARTCHAR uni4E53
ENCODING 20051
SWIDTH 500 0
DWIDTH 6 0
BBX 10 10 0 -1
BITMAP
0300
3C00
2000
3F80
2200
2200
FFC0
0200
0100
00C0
ENDCHAR
STARTCHAR uni4E54
ENCODING 20052
SWIDTH 500 0
DWIDTH 6 0
BBX 10 10 0 -1
BITMAP
0700
7800
1000
FF80
2400
4300
A2C0
2200
2200
4200
ENDCHAR
STARTCHAR uni4E56
ENCODING 20054
SWIDTH 500 0
DWIDTH 6 0
BBX 9 10 0 -1
BITMAP
7F00
0800
FF80
2A00
EA80
2B00
6A80
AB80
0800
0800
ENDCHAR
STARTCHAR uni4E58
ENCODING 20056
SWIDTH 500 0
DWIDTH 6 0
BBX 9 10 0 -1
BITMAP
7F00
0800
FF80
2A00
EB00
2A80
EB80
1C00
2A00
C980
ENDCHAR
STARTCHAR uni4E59
ENCODING 20057
SWIDTH 500 0
DWIDTH 6 0
BBX 9 9 0 0
BITMAP
FE00
0400
0800
1000
2000
4000
8080
8080
7F80
ENDCHAR
STARTCHAR uni4E5C
ENCODING 20060
SWIDTH 500 0
DWIDTH 6 0
BBX 9 10 0 -1
BITMAP
2000
2100
2700
3900
E100
2100
2600
2080
2080
3F80
ENDCHAR
STARTCHAR uni4E5D
ENCODING 20061
SWIDTH 500 0
DWIDTH 6 0
BBX 9 10 0 -1
BITMAP
1000
1000
FE00
1200
1200
1200
2200
2280
4280
8180
ENDCHAR
STARTCHAR uni4E5E
ENCODING 20062
SWIDTH 500 0
DWIDTH 6 0
BBX 10 10 0 -1
BITMAP
2000
3FC0
4000
8000
3F00
0400
0800
1040
2040
1FC0
ENDCHAR
STARTCHAR uni4E5F
ENCODING 20063
SWIDTH 500 0
DWIDTH 6 0
BBX 9 10 0 -1
BITMAP
0800
4900
4B00
5D00
E900
4900
4A00
4080
4080
3F80
ENDCHAR
STARTCHAR uni4E60
ENCODING 20064
SWIDTH 500 0
DWIDTH 6 0
BBX 8 10 0 -1
BITMAP
FF
01
41
21
21
09
31
C1
0F
02
ENDCHAR
STARTCHAR uni4E61
ENCODING 20065
SWIDTH 500 0
DWIDTH 6 0
BBX 8 10 0 -1
BITMAP
10
22
44
78
11
22
7C
08
10
E0
ENDCHAR
STARTCHAR uni4E66
ENCODING 20070
SWIDTH 500 0
DWIDTH 6 0
BBX 9 10 0 -1
BITMAP
0900
0880
7F00
0900
0900
FF80
0880
0880
0B00
0800
ENDCHAR
STARTCHAR uni4E69
ENCODING 20073
SWIDTH 500 0
DWIDTH 6 0
BBX 10 10 0 -1
BITMAP
2200
2200
3A00
2200
FA00
8A00
8A00
8A40
FA40
89C0
ENDCHAR
STARTCHAR uni4E70
ENCODING 20080
SWIDTH 500 0
DWIDTH 6 0
BBX 10 10 0 -1
BITMAP
FFC0
2080
1400
4400
2480
FFC0
0400
0A00
1100
60C0
ENDCHAR
STARTCHAR uni4E71
ENCODING 20081
SWIDTH 500 0
DWIDTH 6 0
BBX 10 10 0 -1
BITMAP
1A00
F200
1200
FE00
1200
7A00
4A00
4A40
7A40
4BC0
ENDCHAR
STARTCHAR uni4E73
ENCODING 20083
SWIDTH 500 0
DWIDTH 6 0
BBX 10 10 0 -1
BITMAP
F900
A500
5500
FD00
0900
1100
7D00
1140
7140
10C0
ENDCHAR
STARTCHAR uni4E7E
ENCODING 20094
SWIDTH 500 0
DWIDTH 6 0
BBX 10 10 0 -1
BITMAP
FA00
23C0
FC00
8BC0
F880
8900
F900
2240
FA40
21C0
ENDCHAR
STARTCHAR uni4E7F
ENCODING 20095
SWIDTH 500 0
DWIDTH 6 0
BBX 10 10 0 -1
BITMAP
FD00
A500
5500
2900
7100
2500
7D00
5540
9340
30C0
ENDCHAR
STARTCHAR uni4E82
ENCODING 20098
SWIDTH 500 0
DWIDTH 6 0
BBX 10 10 0 -1
BITMAP
FD00
5500
7D00
2900
7D00
5500
7D00
5540
5540
6DC0
ENDCHAR
STARTCHAR uni4E83
ENCODING 20099
SWIDTH 500 0
DWIDTH 6 0
BBX 10 10 0 -1
BITMAP
9500
5500
FF00
5500
9300
7F00
9500
7F40
4540
85C0
ENDCHAR
STARTCHAR uni4E84
ENCODING 20100
SWIDTH 500 0
DWIDTH 6 0
BBX 10 10 0 -1
BITMAP
7D00
1100
FD00
8500
3900
7D00
4500
7D40
2940
FEC0
ENDCHAR
STARTCHAR uni4E85
ENCODING 20101
SWIDTH 500 0
DWIDTH 6 0
BBX 2 9 0 0
BITMAP
40
40
40
40
40
40
40
40
C0
ENDCHAR
STARTCHAR uni4E86
ENCODING 20102
SWIDTH 500 0
DWIDTH 6 0
BBX 8 10 0 -1
BITMAP
FF
02
04
08
08
08
08
48
38
10
ENDCHAR
STARTCHAR uni4E88
ENCODING 20104
SWIDTH 500 0
DWIDTH 6 0
BBX 9 10 0 -1
BITMAP
7F00
2200
1400
FF80
0900
0A00
0800
4800
3800
1000
ENDCHAR
STARTCHAR uni4E89
ENCODING 20105
SWIDTH 500 0
DWIDTH 6 0
BBX 10 10 0 -1
BITMAP
1E00
2400
7F00
0900
FFC0
0900
7F00
0800
3800
0800
ENDCHAR
STARTCHAR uni4E8B
ENCODING 20107
SWIDTH 500 0
DWIDTH 6 0
BBX 10 10 0 -1
BITMAP
0800
FF80
4900
7F80
0880
FFC0
0880
7F80
0800
3800
ENDCHAR
STARTCHAR uni4E8C
ENCODING 20108
SWIDTH 500 0
DWIDTH 6 0
BBX 9 9 0 0
BITMAP
0200
7F00
0000
0000
0000
0000
0000
0100
FF80
ENDCHAR
STARTCHAR uni4E8D
ENCODING 20109
SWIDTH 500 0
DWIDTH 6 0
BBX 9 10 0 -1
BITMAP
7F00
0000
0100
FF80
0800
0800
0800
0800
3800
0800
ENDCHAR
STARTCHAR uni4E8E
ENCODING 20110
SWIDTH 500 0
DWIDTH 6 0
BBX 9 10 0 -1
BITMAP
FF00
0800
0800
0900
FF80
0800
0800
0800
3800
0800
ENDCHAR
STARTCHAR uni4E8F
ENCODING 20111
SWIDTH 500 0
DWIDTH 6 0
BBX 9 10 0 -1
BITMAP
7F00
0000
0100
FF80
2000
7F00
0100
0100
0F00
0200
ENDCHAR
STARTCHAR uni4E91
ENCODING 20113
SWIDTH 500 0
DWIDTH 6 0
BBX 9 10 0 -1
BITMAP
0200
7F00
0000
0100
FF80
1000
2200
4200
FF00
4100
ENDCHAR
STARTCHAR uni4E92
ENCODING 20114
SWIDTH 500 0
DWIDTH 6 0
BBX 9 10 0 -1
BITMAP
FF80
2000
2200
3F00
4200
4200
FE00
0400
0500
FF80
ENDCHAR
STARTCHAR uni4E93
ENCODING 20115
SWIDTH 500 0
DWIDTH 6 0
BBX 9 10 0 -1
BITMAP
7F00
0000
0100
FF80
2200
2200
2200
2200
4200
8200
ENDCHAR
STARTCHAR uni4E94
ENCODING 20116
SWIDTH 500 0
DWIDTH 6 0
BBX 10 10 0 -1
BITMAP
7FC0
0800
0800
0900
3F80
1100
1100
1100
1100
FFC0
ENDCHAR
STARTCHAR uni4E95
ENCODING 20117
SWIDTH 500 0
DWIDTH 6 0
BBX 10 10 0 -1
BITMAP
1200
1200
7F80
1200
1200
FFC0
1200
1200
2200
4200
ENDCHAR
STARTCHAR uni4E98
ENCODING 20120
SWIDTH 500 0
DWIDTH 6 0
BBX 10 10 0 -1
BITMAP
FFC0
0000
3F00
2100
3F00
2100
3F00
2100
0000
FFC0
ENDCHAR
STARTCHAR uni4E99
ENCODING 20121
SWIDTH 500 0
DWIDTH 6 0
BBX 9 10 0 -1
BITMAP
FF80
2000
3E00
2200
5A00
4200
5200
4A00
0200
FF80
ENDCHAR
STARTCHAR uni4E9A
ENCODING 20122
SWIDTH 500 0
DWIDTH 6 0
BBX 10 10 0 -1
BITMAP
7FC0
0A00
0A00
4A40
2A80
2A80
0A00
0A00
0A80
FFC0
ENDCHAR
STARTCHAR uni4E9B
ENCODING 20123
SWIDTH 500 0
DWIDTH 6 0
BBX 10 10 0 -1
BITMAP
1200
5280
5F00
5240
5240
FDC0
0000
3F00
0000
FFC0
ENDCHAR
STARTCHAR uni4E9E
ENCODING 20126
SWIDTH 500 0
DWIDTH 6 0
BBX 9 10 0 -1
BITMAP
FF80
1400
1400
7700
4100
4100
7700
1400
1400
FF80
ENDCHAR
STARTCHAR uni4E9F
ENCODING 20127
SWIDTH 500 0
DWIDTH 6 0
BBX 10 10 0 -1
BITMAP
FFC0
0800
0C00
77C0
5440
5580
7480
1540
0800
FFC0
ENDCHAR
STARTCHAR uni4EA0
ENCODING 20128
SWIDTH 500 0
DWIDTH 6 0
BBX 9 3 0 4
BITMAP
1000
0800
FF80
ENDCHAR
STARTCHAR uni4EA1
ENCODING 20129
SWIDTH 500 0
DWIDTH 6 0
BBX 10 10 0 -1
BITMAP
0800
0480
FFC0
2000
2000
2000
2000
2080
3FC0
2000
ENDCHAR
STARTCHAR uni4EA2
ENCODING 20130
SWIDTH 500 0
DWIDTH 6 0
BBX 9 10 0 -1
BITMAP
0800
FF80
0000
3E00
2200
2200
2200
2280
4280
8180
ENDCHAR
STARTCHAR uni4EA4
ENCODING 20132
SWIDTH 500 0
DWIDTH 6 0
BBX 9 10 0 -1
BITMAP
0800
FF80
2400
4300
8500
2400
1400
0800
3600
C180
ENDCHAR
STARTCHAR uni4EA5
ENCODING 20133
SWIDTH 500 0
DWIDTH 6 0
BBX 9 10 0 -1
BITMAP
0800
FF80
1000
2400
3800
0A00
3400
CA00
3180
C080
ENDCHAR
STARTCHAR uni4EA6
ENCODING 20134
SWIDTH 500 0
DWIDTH 6 0
BBX 10 10 0 -1
BITMAP
0400
7FC0
0A00
0A00
2A80
4A40
8A40
1200
2200
4600
ENDCHAR
STARTCHAR uni4EA7
ENCODING 20135
SWIDTH 500 0
DWIDTH 6 0
BBX 10 10 0 -1
BITMAP
0400
7FC0
1100
0A00
3FC0
2000
2000
4000
4000
8000
ENDCHAR
STARTCHAR uni4EA8
ENCODING 20136
SWIDTH 500 0
DWIDTH 6 0
BBX 9 10 0 -1
BITMAP
0800
FF80
2100
3F00
0000
7F80
0400
0800
3800
0800
ENDCHAR
STARTCHAR uni4EA9
ENCODING 20137
SWIDTH 500 0
DWIDTH 6 0
BBX 9 10 0 -1
BITMAP
0800
FF80
0000
7F00
4900
4900
7F00
4900
7F00
4100
ENDCHAR
STARTCHAR uni4EAB
ENCODING 20139
SWIDTH 500 0
DWIDTH 6 0
BBX 9 10 0 -1
BITMAP
0800
FF80
4200
7E00
0000
7E00
0400
FF80
0800
1800
ENDCHAR
STARTCHAR uni4EAC
ENCODING 20140
SWIDTH 500 0
DWIDTH 6 0
BBX 9 10 0 -1
BITMAP
0800
FF80
0000
3F00
2100
3F00
0800
2900
4880
9880
ENDCHAR
STARTCHAR uni4EAD
ENCODING 20141
SWIDTH 500 0
DWIDTH 6 0
BBX 9 10 0 -1
BITMAP
0800
FF80
2200
3E00
0000
FF80
8080
7F00
0800
3800
ENDCHAR
STARTCHAR uni4EAE
ENCODING 20142
SWIDTH 500 0
DWIDTH 6 0
BBX 9 10 0 -1
BITMAP
0800
FF80
2200
3E00
0000
FF80
8080
3C00
2480
C780
ENDCHAR
STARTCHAR uni4EB2
ENCODING 20146
SWIDTH 500 0
DWIDTH 6 0
BBX 9 10 0 -1
BITMAP
0800
7F80
2200
FF80
0800
7F00
0800
2A00
4980
9880
ENDCHAR
STARTCHAR uni4EB3
ENCODING 20147
SWIDTH 500 0
DWIDTH 6 0
BBX 9 10 0 -1
BITMAP
0800
FF80
2200
FF80
8080
7E00
1000
FF00
1080
0F80
ENDCHAR
STARTCHAR uni4EB5
ENCODING 20149
SWIDTH 500 0
DWIDTH 6 0
BBX 9 10 0 -1
BITMAP
0800
FF80
4400
EF00
4500
EB80
5800
E500
2A00
3180
ENDCHAR
STARTCHAR uni4EB6
ENCODING 20150
SWIDTH 500 0
DWIDTH 6 0
BBX 9 10 0 -1
BITMAP
0800
FF80
5500
5D00
4100
7F00
2200
3E00
2200
FF80
ENDCHAR
STARTCHAR uni4EB9
ENCODING 20153
SWIDTH 500 0
DWIDTH 6 0
BBX 10 10 0 -1
BITMAP
0400
FFC0
5140
7FC0
5540
7FC0
5140
1F00
1100
FFC0
ENDCHAR
STARTCHAR uni4EBA
ENCODING 20154
SWIDTH 500 0
DWIDTH 6 0
BBX 9 10 0 -1
BITMAP
0800
0800
0800
0800
0800
0800
1400
2200
4180
8080
ENDCHAR
STARTCHAR uni4EBB
ENCODING 20155
SWIDTH 500 0
DWIDTH 6 0
BBX 4 10 0 -1
BITMAP
10
10
20
60
A0
20
20
20
20
20
ENDCHAR
STARTCHAR uni4EBF
ENCODING 20159
SWIDTH 500 0
DWIDTH 6 0
BBX 10 10 0 -1
BITMAP
1100
1F80
2100
6200
A200
2400
2800
2840
2840
27C0
ENDCHAR
STARTCHAR uni4EC0
ENCODING 20160
SWIDTH 500 0
DWIDTH 6 0
BBX 10 10 0 -1
BITMAP
1200
1200
2200
7FC0
A200
2200
2200
2200
2200
2200
ENDCHAR
STARTCHAR uni4EC1
ENCODING 20161
SWIDTH 500 0
DWIDTH 6 0
BBX 10 10 0 -1
BITMAP
1000
1000
2780
6000
A000
2000
2000
2080
2FC0
2000
ENDCHAR
STARTCHAR uni4EC2
ENCODING 20162
SWIDTH 500 0
DWIDTH 6 0
BBX 10 10 0 -1
BITMAP
1200
1240
2FC0
6240
A240
2240
2440
2440
29C0
3080
ENDCHAR
STARTCHAR uni4EC3
ENCODING 20163
SWIDTH 500 0
DWIDTH 6 0
BBX 10 10 0 -1
BITMAP
1080
1FC0
2100
6100
A100
2100
2100
2100
2700
2100
ENDCHAR
STARTCHAR uni4EC4
ENCODING 20164
SWIDTH 500 0
DWIDTH 6 0
BBX 10 10 0 -1
BITMAP
3FC0
2000
2200
2200
2200
2200
2200
4500
48C0
9040
ENDCHAR
STARTCHAR uni4EC5
ENCODING 20165
SWIDTH 500 0
DWIDTH 6 0
BBX 10 10 0 -1
BITMAP
1080
1FC0
2480
6480
A480
2300
2100
2280
24C0
2840
ENDCHAR
STARTCHAR uni4EC6
ENCODING 20166
SWIDTH 500 0
DWIDTH 6 0
BBX 10 10 0 -1
BITMAP
1200
1200
2200
6300
A280
2240
2200
2200
2200
2200
ENDCHAR
STARTCHAR uni4EC7
ENCODING 20167
SWIDTH 500 0
DWIDTH 6 0
BBX 10 10 0 -1
BITMAP
1400
1500
2F80
6500
A500
2500
2500
2940
2940
30C0
ENDCHAR
STARTCHAR uni4EC8
ENCODING 20168
SWIDTH 500 0
DWIDTH 6 0
BBX 10 10 0 -1
BITMAP
1100
1500
2500
6500
A500
2480
2480
2880
2840
3040
ENDCHAR
STARTCHAR uni4EC9
ENCODING 20169
SWIDTH 500 0
DWIDTH 6 0
BBX 10 10 0 -1
BITMAP
1700
1500
2500
6500
A500
2500
2500
2900
2940
31C0
ENDCHAR
STARTCHAR uni4ECA
ENCODING 20170
SWIDTH 500 0
DWIDTH 6 0
BBX 9 10 0 -1
BITMAP
0800
1400
2200
4980
8880
7F00
0200
0400
0400
0800
ENDCHAR
STARTCHAR uni4ECB
ENCODING 20171
SWIDTH 500 0
DWIDTH 6 0
BBX 9 10 0 -1
BITMAP
0800
1400
2200
4180
A280
2200
2200
2200
4200
8200
ENDCHAR
STARTCHAR uni4ECD
ENCODING 20173
SWIDTH 500 0
DWIDTH 6 0
BBX 10 10 0 -1
BITMAP
1FC0
1480
2500
6500
A5C0
2440
2440
2840
29C0
3080
ENDCHAR
STARTCHAR uni4ECE
ENCODING 20174
SWIDTH 500 0
DWIDTH 6 0
BBX 10 10 0 -1
BITMAP
1200
1200
1200
1200
1200
1200
2A00
2500
4880
9040
ENDCHAR
STARTCHAR uni4ED1
ENCODING 20177
SWIDTH 500 0
DWIDTH 6 0
BBX 9 10 0 -1
BITMAP
0800
1400
2200
4180
A080
2400
3800
2100
2100
1F00
ENDCHAR
STARTCHAR uni4ED3
ENCODING 20179
SWIDTH 500 0
DWIDTH 6 0
BBX 9 10 0 -1
BITMAP
0800
1400
2200
7F80
A280
2200
2200
2C80
2080
1F80
ENDCHAR
STARTCHAR uni4ED4
ENCODING 20180
SWIDTH 500 0
DWIDTH 6 0
BBX 10 10 0 -1
BITMAP
1FC0
1080
2100
6200
BFC0
2200
2200
2200
2E00
2200
ENDCHAR
STARTCHAR uni4ED5
ENCODING 20181
SWIDTH 500 0
DWIDTH 6 0
BBX 10 10 0 -1
BITMAP
1200
1200
2200
7FC0
A200
2200
2200
2200
2200
2F80
ENDCHAR
STARTCHAR uni4ED6
ENCODING 20182
SWIDTH 500 0
DWIDTH 6 0
BBX 10 10 0 -1
BITMAP
2200
2200
2A40
6BC0
BE40
2A40
2AC0
2A00
2840
27C0
ENDCHAR
STARTCHAR uni4ED7
ENCODING 20183
SWIDTH 500 0
DWIDTH 6 0
BBX 10 10 0 -1
BITMAP
1100
1100
2FC0
6900
A500
2500
2200
2200
2500
38C0
ENDCHAR
STARTCHAR uni4ED8
ENCODING 20184
SWIDTH 500 0
DWIDTH 6 0
BBX 10 10 0 -1
BITMAP
1080
1080
2FC0
6080
A480
2280
2280
2080
2380
2080
ENDCHAR
STARTCHAR uni4ED9
ENCODING 20185
SWIDTH 500 0
DWIDTH 6 0
BBX 10 10 0 -1
BITMAP
1200
1200
2A40
6A40
AA40
2A40
2A40
2A40
2FC0
2840
ENDCHAR
STARTCHAR uni4EDA
ENCODING 20186
SWIDTH 500 0
DWIDTH 6 0
BBX 9 10 0 -1
BITMAP
0800
1400
2200
4900
8880
4900
4900
4900
7F00
4100
ENDCHAR
STARTCHAR uni4EDC
ENCODING 20188
SWIDTH 500 0
DWIDTH 6 0
BBX 10 10 0 -1
BITMAP
1000
1FC0
2200
6200
A200
2200
2200
2280
3FC0
2000
ENDCHAR
STARTCHAR uni4EDD
ENCODING 20189
SWIDTH 500 0
DWIDTH 6 0
BBX 10 10 0 -1
BITMAP
0C00
1200
2100
4080
BF40
0400
0400
0400
0480
7FC0
ENDCHAR
STARTCHAR uni4EDE
ENCODING 20190
SWIDTH 500 0
DWIDTH 6 0
BBX 10 10 0 -1
BITMAP
1040
1FC0
2240
6A40
AA40
3240
2240
2440
25C0
2880
ENDCHAR
STARTCHAR uni4EDF
ENCODING 20191
SWIDTH 500 0
DWIDTH 6 0
BBX 10 10 0 -1
BITMAP
11C0
1700
2100
6100
AFC0
2100
2100
2100
2100
2100
ENDCHAR
STARTCHAR uni4EE1
ENCODING 20193
SWIDTH 500 0
DWIDTH 6 0
BBX 10 10 0 -1
BITMAP
1400
1480
27C0
6800
B780
2100
2200
2440
2840
27C0
ENDCHAR
STARTCHAR uni4EE3
ENCODING 20195
SWIDTH 500 0
DWIDTH 6 0
BBX 10 10 0 -1
BITMAP
1280
1240
2200
2FC0
6200
A200
2200
2140
20C0
2040
ENDCHAR
STARTCHAR uni4EE4
ENCODING 20196
SWIDTH 500 0
DWIDTH 6 0
BBX 9 10 0 -1
BITMAP
0800
1400
2200
4900
8880
7F00
0200
3400
0800
0400
ENDCHAR
STARTCHAR uni4EE5
ENCODING 20197
SWIDTH 500 0
DWIDTH 6 0
BBX 10 10 0 -1
BITMAP
4080
4880
4480
4480
4080
4480
4900
5280
E440
0840
ENDCHAR
STARTCHAR uni4EE8
ENCODING 20200
SWIDTH 500 0
DWIDTH 6 0
BBX 10 10 0 -1
BITMAP
1080
1FC0
2000
2000
6100
A780
2000
2000
2080
3FC0
ENDCHAR
STARTCHAR uni4EE9
ENCODING 20201
SWIDTH 500 0
DWIDTH 6 0
BBX 10 10 0 -1
BITMAP
1200
1200
2280
23C0
6200
A200
2200
2200
2280
2FC0
ENDCHAR
STARTCHAR uni4EEA
ENCODING 20202
SWIDTH 500 0
DWIDTH 6 0
BBX 10 10 0 -1
BITMAP
1400
1280
2A80
2880
6880
A500
2200
2200
2500
38C0
ENDCHAR
STARTCHAR uni4EEB
ENCODING 20203
SWIDTH 500 0
DWIDTH 6 0
BBX 10 10 0 -1
BITMAP
1200
1200
2400
2900
7100
A200
2400
2880
3FC0
2840
ENDCHAR
STARTCHAR uni4EEC
ENCODING 20204
SWIDTH 500 0
DWIDTH 6 0
BBX 10 10 0 -1
BITMAP
15C0
1240
2840
2840
6840
A840
2840
2840
2840
28C0
ENDCHAR
STARTCHAR uni4EF0
ENCODING 20208
SWIDTH 500 0
DWIDTH 6 0
BBX 10 10 0 -1
BITMAP
2200
2DC0
2940
2940
6940
A940
2D40
29C0
2100
2100
ENDCHAR
STARTCHAR uni4EF1
ENCODING 20209
SWIDTH 500 0
DWIDTH 6 0
BBX 10 10 0 -1
BITMAP
2200
2500
28C0
3240
6100
AFC0
2080
2100
2100
2200
ENDCHAR
STARTCHAR uni4EF2
ENCODING 20210
SWIDTH 500 0
DWIDTH 6 0
BBX 10 10 0 -1
BITMAP
2100
2100
2FC0
2940
6940
AFC0
2940
2100
2100
2100
ENDCHAR
STARTCHAR uni4EF3
ENCODING 20211
SWIDTH 500 0
DWIDTH 6 0
BBX 10 10 0 -1
BITMAP
2900
2900
2940
2F80
6900
A900
2900
2B40
2D40
28C0
ENDCHAR
STARTCHAR uni4EF4
ENCODING 20212
SWIDTH 500 0
DWIDTH 6 0
BBX 10 10 0 -1
BITMAP
27C0
2440
2440
27C0
6440
A440
27C0
2440
2840
30C0
ENDCHAR
STARTCHAR uni4EF5
ENCODING 20213
SWIDTH 500 0
DWIDTH 6 0
BBX 10 10 0 -1
BITMAP
2400
27C0
2900
2100
6100
BFC0
2100
2100
2100
2100
ENDCHAR
STARTCHAR uni4EF6
ENCODING 20214
SWIDTH 500 0
DWIDTH 6 0
BBX 10 10 0 -1
BITMAP
2100
2900
2FC0
3100
6100
BFC0
2100
2100
2100
2100
ENDCHAR
STARTCHAR uni4EF7
ENCODING 20215
SWIDTH 500 0
DWIDTH 6 0
BBX 10 10 0 -1
BITMAP
2200
2500
2880
3040
6480
A480
2480
2480
2880
3080
ENDCHAR
STARTCHAR uni4EFB
ENCODING 20219
SWIDTH 500 0
DWIDTH 6 0
BBX 10 10 0 -1
BITMAP
20C0
2F00
2200
2200
6200
BFC0
2200
2200
2200
2F80
ENDCHAR
STARTCHAR uni4EFD
ENCODING 20221
SWIDTH 500 0
DWIDTH 6 0
BBX 10 10 0 -1
BITMAP
2500
2500
2880
3040
6F80
A480
2480
2480
2880
3300
ENDCHAR
STARTCHAR uni4EFF
ENCODING 20223
SWIDTH 500 0
DWIDTH 6 0
BBX 10 10 0 -1
BITMAP
2200
2100
2FC0
2200
63C0
A240
2240
2240
2440
2980
ENDCHAR
STARTCHAR uni4F00
ENCODING 20224
SWIDTH 500 0
DWIDTH 6 0
BBX 10 10 0 -1
BITMAP
1100
1500
2500
6880
B240
2200
2400
2480
3FC0
2840
ENDCHAR
STARTCHAR uni4F01
ENCODING 20225
SWIDTH 500 0
DWIDTH 6 0
BBX 9 10 0 -1
BITMAP
0800
1400
2200
C980
0800
2F00
2800
2800
2900
FF80
ENDCHAR
STARTCHAR uni4F02
ENCODING 20226
SWIDTH 500 0
DWIDTH 6 0
BBX 10 10 0 -1
BITMAP
1200
1FC0
2200
6FC0
AA40
2A40
2A40
2AC0
2A40
2200
ENDCHAR
STARTCHAR uni4F04
ENCODING 20228
SWIDTH 500 0
DWIDTH 6 0
BBX 10 10 0 -1
BITMAP
1FC0
1240
2240
2FC0
6A00
BFC0
2240
2240
2280
2200
ENDCHAR
STARTCHAR uni4F05
ENCODING 20229
SWIDTH 500 0
DWIDTH 6 0
BBX 10 10 0 -1
BITMAP
2200
3FC0
2200
6A80
AA80
2A80
2F80
2240
2240
21C0
ENDCHAR
STARTCHAR uni4F08
ENCODING 20232
SWIDTH 500 0
DWIDTH 6 0
BBX 10 10 0 -1
BITMAP
1200
1100
2500
2400
6480
AC40
3440
2480
2480
2380
ENDCHAR
STARTCHAR uni4F09
ENCODING 20233
SWIDTH 500 0
DWIDTH 6 0
BBX 10 10 0 -1
BITMAP
1400
1200
2FC0
6000
A700
2500
2500
2540
2940
30C0
ENDCHAR
STARTCHAR uni4F0A
ENCODING 20234
SWIDTH 500 0
DWIDTH 6 0
BBX 10 10 0 -1
BITMAP
1F80
1280
2280
6FC0
A280
2F80
2280
2400
2800
3000
ENDCHAR
STARTCHAR uni4F0B
ENCODING 20235
SWIDTH 500 0
DWIDTH 6 0
BBX 10 10 0 -1
BITMAP
1F80
1500
2500
65C0
A440
2680
2A80
2900
3280
2C40
ENDCHAR
STARTCHAR uni4F0D
ENCODING 20237
SWIDTH 500 0
DWIDTH 6 0
BBX 10 10 0 -1
BITMAP
1FC0
1200
2200
6200
AF80
2480
2480
2480
2480
3FC0
ENDCHAR
STARTCHAR uni4F0E
ENCODING 20238
SWIDTH 500 0
DWIDTH 6 0
BBX 10 10 0 -1
BITMAP
1200
1200
2FC0
6200
AFC0
2480
2480
2300
2480
2840
ENDCHAR
STARTCHAR uni4F0F
ENCODING 20239
SWIDTH 500 0
DWIDTH 6 0
BBX 10 10 0 -1
BITMAP
1200
1280
2240
6FC0
A200
2200
2200
2500
28C0
3040
ENDCHAR
STARTCHAR uni4F10
ENCODING 20240
SWIDTH 500 0
DWIDTH 6 0
BBX 10 10 0 -1
BITMAP
1280
1240
2200
7FC0
A200
2240
2280
2140
22C0
2C40
ENDCHAR
STARTCHAR uni4F11
ENCODING 20241
SWIDTH 500 0
DWIDTH 6 0
BBX 10 10 0 -1
BITMAP
1200
1200
2FC0
6200
A200
2700
2A80
3240
2200
2200
ENDCHAR
STARTCHAR uni4F12
ENCODING 20242
SWIDTH 500 0
DWIDTH 6 0
BBX 10 10 0 -1
BITMAP
17C0
1400
2400
67C0
A480
2480
2480
2480
2880
3080
ENDCHAR
STARTCHAR uni4F13
ENCODING 20243
SWIDTH 500 0
DWIDTH 6 0
BBX 10 10 0 -1
BITMAP
1FC0
1100
2200
6300
A680
2A40
3240
2200
2200
2200
ENDCHAR
STARTCHAR uni4F14
ENCODING 20244
SWIDTH 500 0
DWIDTH 6 0
BBX 10 10 0 -1
BITMAP
1FC0
1040
2000
6700
A500
2500
2500
2540
2940
31C0
ENDCHAR
STARTCHAR uni4F15
ENCODING 20245
SWIDTH 500 0
DWIDTH 6 0
BBX 10 10 0 -1
BITMAP
1200
1200
2F80
6200
A200
3FC0
2200
2500
2880
3040
ENDCHAR
STARTCHAR uni4F17
ENCODING 20247
SWIDTH 500 0
DWIDTH 6 0
BBX 10 10 0 -1
BITMAP
0400
1B00
60C0
1100
1100
1100
1100
2A80
4440
8840
ENDCHAR
STARTCHAR uni4F18
ENCODING 20248
SWIDTH 500 0
DWIDTH 6 0
BBX 10 10 0 -1
BITMAP
1280
1240
2FC0
6200
A300
2300
2500
2540
2940
31C0
ENDCHAR
STARTCHAR uni4F19
ENCODING 20249
SWIDTH 500 0
DWIDTH 6 0
BBX 10 10 0 -1
BITMAP
1200
1200
2240
6A80
AB00
3200
2200
2500
28C0
3040
ENDCHAR
STARTCHAR uni4F1A
ENCODING 20250
SWIDTH 500 0
DWIDTH 6 0
BBX 10 10 0 -1
BITMAP
0C00
1200
2100
DEC0
0000
7F80
0400
0900
3F80
1080
ENDCHAR
STARTCHAR uni4F1B
ENCODING 20251
SWIDTH 500 0
DWIDTH 6 0
BBX 10 10 0 -1
BITMAP
2FC0
2800
2C40
6A80
A900
2900
2A80
2C40
2800
2FC0
ENDCHAR
STARTCHAR uni4F1D
ENCODING 20253
SWIDTH 500 0
DWIDTH 6 0
BBX 10 10 0 -1
BITMAP
1780
1000
2000
6000
AFC0
2200
2200
2480
2FC0
2440
ENDCHAR
STARTCHAR uni4F1E
ENCODING 20254
SWIDTH 500 0
DWIDTH 6 0
BBX 9 10 0 -1
BITMAP
0800
3600
C180
0800
4900
2A00
FF80
0800
0800
0800
ENDCHAR
STARTCHAR uni4F1F
ENCODING 20255
SWIDTH 500 0
DWIDTH 6 0
BBX 10 10 0 -1
BITMAP
1200
1FC0
2200
6F80
A200
3FC0
2240
2240
2280
2200
ENDCHAR
STARTCHAR uni4F20
ENCODING 20256
SWIDTH 500 0
DWIDTH 6 0
BBX 10 10 0 -1
BITMAP
1200
1FC0
2200
7FC0
A200
27C0
2080
2500
2200
2100
ENDCHAR
STARTCHAR uni4F22
ENCODING 20258
SWIDTH 500 0
DWIDTH 6 0
BBX 10 10 0 -1
BITMAP
2FC0
2100
2500
6900
AFC0
2300
2500
2900
3100
2300
ENDCHAR
STARTCHAR uni4F24
ENCODING 20260
SWIDTH 500 0
DWIDTH 6 0
BBX 10 10 0 -1
BITMAP
2880
2FC0
2A00
7200
AFC0
2240
2240
2240
2440
2980
ENDCHAR
STARTCHAR uni4F25
ENCODING 20261
SWIDTH 500 0
DWIDTH 6 0
BBX 10 10 0 -1
BITMAP
1480
1500
2600
6400
BFC0
2500
2500
2480
2740
2C40
ENDCHAR
STARTCHAR uni4F26
ENCODING 20262
SWIDTH 500 0
DWIDTH 6 0
BBX 10 10 0 -1
BITMAP
1200
1500
28C0
7040
A480
2500
2600
2440
2440
23C0
ENDCHAR
STARTCHAR uni4F27
ENCODING 20263
SWIDTH 500 0
DWIDTH 6 0
BBX 10 10 0 -1
BITMAP
1200
1500
28C0
7040
AF80
2880
2880
2B00
2840
27C0
ENDCHAR
STARTCHAR uni4F2A
ENCODING 20266
SWIDTH 500 0
DWIDTH 6 0
BBX 10 10 0 -1
BITMAP
3200
2A00
2240
7FC0
A240
2340
24C0
2440
2840
3180
ENDCHAR
STARTCHAR uni4F2B
ENCODING 20267
SWIDTH 500 0
DWIDTH 6 0
BBX 10 10 0 -1
BITMAP
1200
1100
2FC0
6840
A000
2000
2000
2000
2080
2FC0
ENDCHAR
STARTCHAR uni4F2C
ENCODING 20268
SWIDTH 500 0
DWIDTH 6 0
BBX 10 10 0 -1
BITMAP
17C0
1440
2440
67C0
A440
2600
2500
2480
2840
3040
ENDCHAR
STARTCHAR uni4F2D
ENCODING 20269
SWIDTH 500 0
DWIDTH 6 0
BBX 10 10 0 -1
BITMAP
1200
1100
2FC0
6200
A480
2F00
2200
2480
28C0
2F40
ENDCHAR
STARTCHAR uni4F2F
ENCODING 20271
SWIDTH 500 0
DWIDTH 6 0
BBX 10 10 0 -1
BITMAP
1100
1200
2FC0
2840
6840
AFC0
2840
2840
2FC0
2840
ENDCHAR
STARTCHAR uni4F30
ENCODING 20272
SWIDTH 500 0
DWIDTH 6 0
BBX 10 10 0 -1
BITMAP
2200
2200
3FC0
6200
A200
2F80
2880
2880
2F80
2880
ENDCHAR
STARTCHAR uni4F32
ENCODING 20274
SWIDTH 500 0
DWIDTH 6 0
BBX 10 10 0 -1
BITMAP
2FC0
2840
2FC0
6800
AA40
2A80
2B00
2A40
3240
21C0
ENDCHAR
STARTCHAR uni4F33
ENCODING 20275
SWIDTH 500 0
DWIDTH 6 0
BBX 10 10 0 -1
BITMAP
2A80
2A80
3FC0
6A80
AA80
2A80
2B80
2800
2800
2FC0
ENDCHAR
STARTCHAR uni4F34
ENCODING 20276
SWIDTH 500 0
DWIDTH 6 0
BBX 10 10 0 -1
BITMAP
2200
3240
2A80
6200
AF80
2200
2200
3FC0
2200
2200
ENDCHAR
STARTCHAR uni4F36
ENCODING 20278
SWIDTH 500 0
DWIDTH 6 0
BBX 10 10 0 -1
BITMAP
2200
2500
6880
B240
2200
2FC0
2080
2500
2200
2100
ENDCHAR
STARTCHAR uni4F38
ENCODING 20280
SWIDTH 500 0
DWIDTH 6 0
BBX 10 10 0 -1
BITMAP
2200
2200
5FC0
5240
DFC0
5240
5FC0
5240
4200
4200
ENDCHAR
STARTCHAR uni4F3A
ENCODING 20282
SWIDTH 500 0
DWIDTH 6 0
BBX 10 10 0 -1
BITMAP
2FC0
2040
2F40
6040
AF40
2940
2F40
2940
2040
20C0
ENDCHAR
STARTCHAR uni4F3B
ENCODING 20283
SWIDTH 500 0
DWIDTH 6 0
BBX 10 10 0 -1
BITMAP
2FC0
2100
2940
6580
A100
2FC0
2100
2100
2100
2100
ENDCHAR
STARTCHAR uni4F3C
ENCODING 20284
SWIDTH 500 0
DWIDTH 6 0
BBX 10 10 0 -1
BITMAP
2040
2A40
2940
6940
A840
2A40
2C80
2980
2240
2440
ENDCHAR
STARTCHAR uni4F3D
ENCODING 20285
SWIDTH 500 0
DWIDTH 6 0
BBX 10 10 0 -1
BITMAP
5000
5140
7DC0
D540
5540
5540
5540
5540
65C0
4940
ENDCHAR
STARTCHAR uni4F3E
ENCODING 20286
SWIDTH 500 0
DWIDTH 6 0
BBX 10 10 0 -1
BITMAP
2FC0
2200
2200
2700
6A80
B240
2200
2200
2200
3FC0
ENDCHAR
STARTCHAR uni4F3F
ENCODING 20287
SWIDTH 500 0
DWIDTH 6 0
BBX 10 10 0 -1
BITMAP
2FC0
2840
2840
6840
AFC0
2840
2000
2480
2840
3040
ENDCHAR
STARTCHAR uni4F41
ENCODING 20289
SWIDTH 500 0
DWIDTH 6 0
BBX 10 10 0 -1
BITMAP
2200
2400
2880
6FC0
A040
2F80
2880
2880
2F80
2880
ENDCHAR
STARTCHAR uni4F43
ENCODING 20291
SWIDTH 500 0
DWIDTH 6 0
BBX 10 10 0 -1
BITMAP
2000
3FC0
5240
D240
5FC0
5240
5240
5240
5FC0
5040
ENDCHAR
STARTCHAR uni4F46
ENCODING 20294
SWIDTH 500 0
DWIDTH 6 0
BBX 10 10 0 -1
BITMAP
2F80
2880
2880
6F80
A880
2880
2F80
2880
2000
3FC0
ENDCHAR
STARTCHAR uni4F47
ENCODING 20295
SWIDTH 500 0
DWIDTH 6 0
BBX 10 10 0 -1
BITMAP
2100
2FC0
2840
6000
AFC0
2100
2100
2900
2700
2200
ENDCHAR
STARTCHAR uni4F48
ENCODING 20296
SWIDTH 500 0
DWIDTH 6 0
BBX 10 10 0 -1
BITMAP
2200
2FC0
2400
6500
AFC0
3540
2540
2540
25C0
2100
ENDCHAR
STARTCHAR uni4F49
ENCODING 20297
SWIDTH 500 0
DWIDTH 6 0
BBX 10 10 0 -1
BITMAP
2200
2F80
2200
6200
BFC0
2200
2200
2480
2FC0
2440
ENDCHAR
STARTCHAR uni4F4C
ENCODING 20300
SWIDTH 500 0
DWIDTH 6 0
BBX 10 10 0 -1
BITMAP
4500
4500
5540
D780
5500
5500
5500
5540
5F40
61C0
ENDCHAR
STARTCHAR uni4F4D
ENCODING 20301
SWIDTH 500 0
DWIDTH 6 0
BBX 10 10 0 -1
BITMAP
2200
2100
3FC0
6000
A880
2480
2500
2100
2200
3FC0
ENDCHAR
STARTCHAR uni4F4E
ENCODING 20302
SWIDTH 500 0
DWIDTH 6 0
BBX 10 10 0 -1
BITMAP
28C0
2F00
2900
6FC0
A900
2900
2900
2B40
2EC0
2940
ENDCHAR
STARTCHAR uni4F4F
ENCODING 20303
SWIDTH 500 0
DWIDTH 6 0
BBX 10 10 0 -1
BITMAP
2400
2200
3FC0
6200
A200
2F80
2200
2200
2200
3FC0
ENDCHAR
STARTCHAR uni4F50
ENCODING 20304
SWIDTH 500 0
DWIDTH 6 0
BBX 10 10 0 -1
BITMAP
2200
2200
2FC0
6200
A400
27C0
2900
3100
2100
2FC0
ENDCHAR
STARTCHAR uni4F51
ENCODING 20305
SWIDTH 500 0
DWIDTH 6 0
BBX 10 10 0 -1
BITMAP
2200
2200
3FC0
6200
A400
2FC0
3440
2440
27C0
2440
ENDCHAR
STARTCHAR uni4F52
ENCODING 20306
SWIDTH 500 0
DWIDTH 6 0
BBX 10 10 0 -1
BITMAP
2200
2F80
2A80
6A80
AA80
3FC0
2200
2500
2880
3040
ENDCHAR
STARTCHAR uni4F53
ENCODING 20307
SWIDTH 500 0
DWIDTH 6 0
BBX 10 10 0 -1
BITMAP
2200
2200
3FC0
6200
A700
2A80
3240
2F80
2200
2200
ENDCHAR
STARTCHAR uni4F54
ENCODING 20308
SWIDTH 500 0
DWIDTH 6 0
BBX 10 10 0 -1
BITMAP
2200
2200
23C0
6200
A200
2FC0
2840
2840
2FC0
2840
ENDCHAR
STARTCHAR uni4F55
ENCODING 20309
SWIDTH 500 0
DWIDTH 6 0
BBX 10 10 0 -1
BITMAP
2FC0
2080
2080
6E80
AA80
2A80
2E80
2080
2380
2100
ENDCHAR
STARTCHAR uni4F56
ENCODING 20310
SWIDTH 500 0
DWIDTH 6 0
BBX 10 10 0 -1
BITMAP
2200
2180
2480
6480
A500
2D40
3640
2480
2C80
3380
ENDCHAR
STARTCHAR uni4F57
ENCODING 20311
SWIDTH 500 0
DWIDTH 6 0
BBX 10 10 0 -1
BITMAP
2200
2FC0
2840
6400
A480
2500
2600
2440
2440
23C0
ENDCHAR
STARTCHAR uni4F58
ENCODING 20312
SWIDTH 500 0
DWIDTH 6 0
BBX 10 10 0 -1
BITMAP
0E00
1100
2080
5F40
0000
7FC0
0400
2480
5C40
8840
ENDCHAR
STARTCHAR uni4F59
ENCODING 20313
SWIDTH 500 0
DWIDTH 6 0
BBX 10 10 0 -1
BITMAP
0E00
1100
2080
5F40
0400
7FC0
0400
2480
5C40
8840
ENDCHAR
STARTCHAR uni4F5A
ENCODING 20314
SWIDTH 500 0
DWIDTH 6 0
BBX 10 10 0 -1
BITMAP
2A00
2A00
2FC0
7200
A200
3FC0
2200
2500
2880
3040
ENDCHAR
STARTCHAR uni4F5B
ENCODING 20315
SWIDTH 500 0
DWIDTH 6 0
BBX 10 10 0 -1
BITMAP
4500
5FC0
4540
5FC0
D500
5FC0
4540
4540
4980
5100
ENDCHAR
STARTCHAR uni4F5C
ENCODING 20316
SWIDTH 500 0
DWIDTH 6 0
BBX 10 10 0 -1
BITMAP
2800
2FC0
2A00
7200
A3C0
2200
23C0
2200
2200
2200
ENDCHAR
STARTCHAR uni4F5D
ENCODING 20317
SWIDTH 500 0
DWIDTH 6 0
BBX 10 10 0 -1
BITMAP
2400
27C0
2840
7740
A540
2540
2740
2540
2040
2180
ENDCHAR
STARTCHAR uni4F5E
ENCODING 20318
SWIDTH 500 0
DWIDTH 6 0
BBX 10 10 0 -1
BITMAP
2F80
2000
3FC0
6200
BFC0
2500
2900
2700
2280
1C40
ENDCHAR
STARTCHAR uni4F5F
ENCODING 20319
SWIDTH 500 0
DWIDTH 6 0
BBX 10 10 0 -1
BITMAP
2480
27C0
2880
3480
6300
A480
2A40
2100
2400
2300
ENDCHAR
STARTCHAR uni4F60
ENCODING 20320
SWIDTH 500 0
DWIDTH 6 0
BBX 10 10 0 -1
BITMAP
2400
2440
27C0
6940
A100
2580
2940
3140
2700
2100
ENDCHAR
STARTCHAR uni4F61
ENCODING 20321
SWIDTH 500 0
DWIDTH 6 0
BBX 10 10 0 -1
BITMAP
2200
2500
28C0
7240
A200
2A40
2A40
2A40
2FC0
2840
ENDCHAR
STARTCHAR uni4F62
ENCODING 20322
SWIDTH 500 0
DWIDTH 6 0
BBX 10 10 0 -1
BITMAP
2FC0
2800
2800
6F80
A880
2880
2F80
2800
2800
2FC0
ENDCHAR
STARTCHAR uni4F63
ENCODING 20323
SWIDTH 500 0
DWIDTH 6 0
BBX 10 10 0 -1
BITMAP
2FC0
2940
2940
6FC0
A940
2FC0
2940
2940
2940
30C0
ENDCHAR
STARTCHAR uni4F64
ENCODING 20324
SWIDTH 500 0
DWIDTH 6 0
BBX 10 10 0 -1
BITMAP
3FC0
2800
2880
6F80
A880
2A80
2980
2880
2C80
28C0
ENDCHAR
STARTCHAR uni4F65
ENCODING 20325
SWIDTH 500 0
DWIDTH 6 0
BBX 9 10 0 -1
BITMAP
0800
1400
2200
4100
BE80
1100
4A00
2A00
2400
FF80
ENDCHAR
STARTCHAR uni4F67
ENCODING 20327
SWIDTH 500 0
DWIDTH 6 0
BBX 10 10 0 -1
BITMAP
2200
23C0
2200
7FC0
A200
2300
2280
2240
2200
2200
ENDCHAR
STARTCHAR uni4F69
ENCODING 20329
SWIDTH 500 0
DWIDTH 6 0
BBX 10 10 0 -1
BITMAP
5F80
5080
5F80
5280
DF80
5A80
5A80
5B80
5240
6240
ENDCHAR
STARTCHAR uni4F6A
ENCODING 20330
SWIDTH 500 0
DWIDTH 6 0
BBX 10 10 0 -1
BITMAP
3FC0
5040
D040
5740
5540
5740
5540
5040
5FC0
5040
ENDCHAR
STARTCHAR uni4F6B
ENCODING 20331
SWIDTH 500 0
DWIDTH 6 0
BBX 10 10 0 -1
BITMAP
2480
27C0
2C80
7300
A480
2FC0
2480
2480
2780
2480
ENDCHAR
STARTCHAR uni4F6C
ENCODING 20332
SWIDTH 500 0
DWIDTH 6 0
BBX 11 10 0 -1
BITMAP
2200
2F40
2280
6300
AFE0
2200
2580
2E00
3440
23C0
ENDCHAR
STARTCHAR uni4F6E
ENCODING 20334
SWIDTH 500 0
DWIDTH 6 0
BBX 10 10 0 -1
BITMAP
2200
2500
2880
7740
A000
2F80
2880
2880
2F80
2880
ENDCHAR
STARTCHAR uni4F6F
ENCODING 20335
SWIDTH 500 0
DWIDTH 6 0
BBX 10 10 0 -1
BITMAP
2880
2500
3FC0
6200
AF80
2200
3FC0
2200
2200
2200
ENDCHAR
STARTCHAR uni4F70
ENCODING 20336
SWIDTH 500 0
DWIDTH 6 0
BBX 10 10 0 -1
BITMAP
2FC0
2100
2200
6FC0
A840
2FC0
2840
2840
2FC0
2840
ENDCHAR
STARTCHAR uni4F73
ENCODING 20339
SWIDTH 500 0
DWIDTH 6 0
BBX 10 10 0 -1
BITMAP
2200
2F80
2200
6200
BFC0
2200
2F80
2200
2200
3FC0
ENDCHAR
STARTCHAR uni4F74
ENCODING 20340
SWIDTH 500 0
DWIDTH 6 0
BBX 10 10 0 -1
BITMAP
2FC0
2480
2780
6480
A480
2780
2480
3FC0
2080
2080
ENDCHAR
STARTCHAR uni4F75
ENCODING 20341
SWIDTH 500 0
DWIDTH 6 0
BBX 10 10 0 -1
BITMAP
2880
2500
2FC0
6480
A480
3FC0
2480
2480
2880
3080
ENDCHAR
STARTCHAR uni4F76
ENCODING 20342
SWIDTH 500 0
DWIDTH 6 0
BBX 10 10 0 -1
BITMAP
2200
3FC0
2200
6F80
A000
2F80
2880
2880
2F80
2880
ENDCHAR
STARTCHAR uni4F77
ENCODING 20343
SWIDTH 500 0
DWIDTH 6 0
BBX 10 10 0 -1
BITMAP
2F80
2880
2F80
6880
AF80
2A40
2A80
2900
2A80
2C40
ENDCHAR
STARTCHAR uni4F78
ENCODING 20344
SWIDTH 500 0
DWIDTH 6 0
BBX 10 10 0 -1
BITMAP
2180
2E00
2200
7FC0
A200
2F80
2880
2880
2F80
2880
ENDCHAR
STARTCHAR uni4F79
ENCODING 20345
SWIDTH 500 0
DWIDTH 6 0
BBX 10 10 0 -1
BITMAP
2780
2900
2FC0
7800
ABC0
2A40
2AC0
2A00
2A40
33C0
ENDCHAR
STARTCHAR uni4F7A
ENCODING 20346
SWIDTH 500 0
DWIDTH 6 0
BBX 10 10 0 -1
BITMAP
2200
2500
2880
7040
AF80
2200
2F80
2200
2200
3FC0
ENDCHAR
STARTCHAR uni4F7B
ENCODING 20347
SWIDTH 500 0
DWIDTH 6 0
BBX 10 10 0 -1
BITMAP
2500
2500
3540
6D80
A500
2D80
3540
2500
2940
31C0
ENDCHAR
STARTCHAR uni4F7C
ENCODING 20348
SWIDTH 500 0
DWIDTH 6 0
BBX 10 10 0 -1
BITMAP
2100
2FC0
6000
A480
2840
2480
2480
2300
2480
2840
ENDCHAR
STARTCHAR uni4F7D
ENCODING 20349
SWIDTH 500 0
DWIDTH 6 0
BBX 10 10 0 -1
BITMAP
2240
33C0
2C40
6100
A500
2500
3900
2900
2A80
2C40
ENDCHAR
STARTCHAR uni4F7E
ENCODING 20350
SWIDTH 500 0
DWIDTH 6 0
BBX 10 10 0 -1
BITMAP
2500
2880
3040
6F80
A880
2F80
2880
2F80
2880
3180
ENDCHAR
STARTCHAR uni4F7F
ENCODING 20351
SWIDTH 500 0
DWIDTH 6 0
BBX 10 10 0 -1
BITMAP
2100
2FC0
2100
6FC0
A940
2FC0
2100
2500
2200
3DC0
ENDCHAR
STARTCHAR uni4F80
ENCODING 20352
SWIDTH 500 0
DWIDTH 6 0
BBX 10 10 0 -1
BITMAP
5E40
5540
5540
D540
7F40
5540
5540
5440
5440
64C0
ENDCHAR
STARTCHAR uni4F81
ENCODING 20353
SWIDTH 500 0
DWIDTH 6 0
BBX 10 10 0 -1
BITMAP
2A00
2A00
2FC0
7200
BFC0
2500
2500
2540
2940
30C0
ENDCHAR
STARTCHAR uni4F82
ENCODING 20354
SWIDTH 500 0
DWIDTH 6 0
BBX 10 10 0 -1
BITMAP
4200
5FC0
5080
DF00
5200
53C0
5E00
5200
5240
61C0
ENDCHAR
STARTCHAR uni4F83
ENCODING 20355
SWIDTH 500 0
DWIDTH 6 0
BBX 10 10 0 -1
BITMAP
2F80
2880
2880
6F80
A000
2A80
2A80
2A80
2A80
32C0
ENDCHAR
STARTCHAR uni4F84
ENCODING 20356
SWIDTH 500 0
DWIDTH 6 0
BBX 10 10 0 -1
BITMAP
2FC0
2200
2480
6FC0
A040
2200
2F80
2200
2200
3FC0
ENDCHAR
STARTCHAR uni4F85
ENCODING 20357
SWIDTH 500 0
DWIDTH 6 0
BBX 10 10 0 -1
BITMAP
2200
3FC0
2200
6480
AF00
2280
2500
2A80
2440
2840
ENDCHAR
STARTCHAR uni4F86
ENCODING 20358
SWIDTH 500 0
DWIDTH 6 0
BBX 9 10 0 -1
BITMAP
0800
FF80
4900
4900
AA80
AA80
1C00
2A00
4900
8880
ENDCHAR
STARTCHAR uni4F87
ENCODING 20359
SWIDTH 500 0
DWIDTH 6 0
BBX 10 10 0 -1
BITMAP
2200
2FC0
2240
6FC0
AA00
3FC0
2240
25C0
2880
3040
ENDCHAR
STARTCHAR uni4F88
ENCODING 20360
SWIDTH 500 0
DWIDTH 6 0
BBX 10 10 0 -1
BITMAP
23C0
2440
6A80
A300
2C00
23C0
2440
2A80
2100
2E00
ENDCHAR
STARTCHAR uni4F89
ENCODING 20361
SWIDTH 500 0
DWIDTH 6 0
BBX 10 10 0 -1
BITMAP
2200
3FC0
2880
7740
A000
2FC0
2400
2F80
2080
2300
ENDCHAR
STARTCHAR uni4F8B
ENCODING 20363
SWIDTH 500 0
DWIDTH 6 0
BBX 10 10 0 -1
BITMAP
5E40
4840
4940
DD40
5540
5540
6D40
4440
4840
50C0
ENDCHAR
STARTCHAR uni4F8D
ENCODING 20365
SWIDTH 500 0
DWIDTH 6 0
BBX 10 10 0 -1
BITMAP
2200
2F80
2200
7FC0
A100
3FC0
2900
2500
2100
2300
ENDCHAR
STARTCHAR uni4F8F
ENCODING 20367
SWIDTH 500 0
DWIDTH 6 0
BBX 10 10 0 -1
BITMAP
1100
1500
27C0
6900
AFC0
2100
2380
2540
2940
2100
ENDCHAR
STARTCHAR uni4F90
ENCODING 20368
SWIDTH 500 0
DWIDTH 6 0
BBX 10 10 0 -1
BITMAP
2200
2400
5FC0
D540
5540
5540
5540
5540
5540
7FC0
ENDCHAR
STARTCHAR uni4F91
ENCODING 20369
SWIDTH 500 0
DWIDTH 6 0
BBX 10 10 0 -1
BITMAP
2200
2FC0
2400
67C0
AC40
37C0
2440
27C0
2440
24C0
ENDCHAR
STARTCHAR uni4F92
ENCODING 20370
SWIDTH 500 0
DWIDTH 6 0
BBX 10 10 0 -1
BITMAP
2200
2FC0
2840
6200
BFC0
2480
2500
2300
2280
2C40
ENDCHAR
STARTCHAR uni4F94
ENCODING 20372
SWIDTH 500 0
DWIDTH 6 0
BBX 10 10 0 -1
BITMAP
2200
2480
2F40
6000
AA00
2F80
3200
3FC0
2200
2200
ENDCHAR
STARTCHAR uni4F95
ENCODING 20373
SWIDTH 500 0
DWIDTH 6 0
BBX 10 10 0 -1
BITMAP
5FC0
4200
5FC0
D540
5540
5540
5540
5540
5540
50C0
ENDCHAR
STARTCHAR uni4F96
ENCODING 20374
SWIDTH 500 0
DWIDTH 6 0
BBX 10 10 0 -1
BITMAP
0C00
3300
C0C0
3F00
0000
FFC0
9240
FFC0
9240
92C0
ENDCHAR
STARTCHAR uni4F97
ENCODING 20375
SWIDTH 500 0
DWIDTH 6 0
BBX 10 10 0 -1
BITMAP
3FC0
5040
D740
5040
5740
5540
5740
5540
5040
50C0
ENDCHAR
STARTCHAR uni4F98
ENCODING 20376
SWIDTH 500 0
DWIDTH 6 0
BBX 10 10 0 -1
BITMAP
2200
2FC0
2840
6380
AE00
22C0
3F00
2200
2240
23C0
ENDCHAR
STARTCHAR uni4F9A
ENCODING 20378
SWIDTH 500 0
DWIDTH 6 0
BBX 10 10 0 -1
BITMAP
2400
27C0
2840
7740
A540
2740
2540
2740
2040
2180
ENDCHAR
STARTCHAR uni4F9B
ENCODING 20379
SWIDTH 500 0
DWIDTH 6 0
BBX 10 10 0 -1
BITMAP
2900
4900
DF80
4900
4900
4900
7FC0
4900
5080
6040
ENDCHAR
STARTCHAR uni4F9C
ENCODING 20380
SWIDTH 500 0
DWIDTH 6 0
BBX 10 10 0 -1
BITMAP
2200
2F80
2A80
6980
BFC0
2880
2A80
2980
2880
3180
ENDCHAR
STARTCHAR uni4F9D
ENCODING 20381
SWIDTH 500 0
DWIDTH 6 0
BBX 10 10 0 -1
BITMAP
2200
3FC0
2200
6500
A940
3580
2500
2480
2640
2440
ENDCHAR
STARTCHAR uni4F9E
ENCODING 20382
SWIDTH 500 0
DWIDTH 6 0
BBX 10 10 0 -1
BITMAP
2800
49C0
FF40
5540
5540
5540
5940
4D40
53C0
6140
ENDCHAR
STARTCHAR uni4FA0
ENCODING 20384
SWIDTH 500 0
DWIDTH 6 0
BBX 10 10 0 -1
BITMAP
2200
2FC0
6200
B240
2A80
3FC0
2200
2500
2880
3040
ENDCHAR
STARTCHAR uni4FA3
ENCODING 20387
SWIDTH 500 0
DWIDTH 6 0
BBX 10 10 0 -1
BITMAP
2780
2480
2480
6780
A000
2FC0
2840
2840
2FC0
2840
ENDCHAR
STARTCHAR uni4FA5
ENCODING 20389
SWIDTH 500 0
DWIDTH 6 0
BBX 10 10 0 -1
BITMAP
24C0
3F00
2280
6340
ACC0
2000
3FC0
2500
2940
31C0
ENDCHAR
STARTCHAR uni4FA6
ENCODING 20390
SWIDTH 500 0
DWIDTH 6 0
BBX 10 10 0 -1
BITMAP
23C0
2200
2FC0
6840
AA40
2A40
2A40
2A40
2500
38C0
ENDCHAR
STARTCHAR uni4FA7
ENCODING 20391
SWIDTH 500 0
DWIDTH 6 0
BBX 10 10 0 -1
BITMAP
4140
5F40
5140
D540
5540
5540
5540
5540
4A40
51C0
ENDCHAR
STARTCHAR uni4FA8
ENCODING 20392
SWIDTH 500 0
DWIDTH 6 0
BBX 10 10 0 -1
BITMAP
2FC0
2200
2FC0
6480
A840
3480
2480
2480
2880
3080
ENDCHAR
STARTCHAR uni4FA9
ENCODING 20393
SWIDTH 500 0
DWIDTH 6 0
BBX 10 10 0 -1
BITMAP
2200
2500
6880
B740
2000
2FC0
2200
2480
3FC0
2840
ENDCHAR
STARTCHAR uni4FAA
ENCODING 20394
SWIDTH 500 0
DWIDTH 6 0
BBX 10 10 0 -1
BITMAP
2200
2FC0
2480
6300
BCC0
2000
2480
2480
2880
3080
ENDCHAR
STARTCHAR uni4FAC
ENCODING 20396
SWIDTH 500 0
DWIDTH 6 0
BBX 10 10 0 -1
BITMAP
2100
2FC0
2A40
6300
A540
2580
2D00
3480
2640
2440
ENDCHAR
STARTCHAR uni4FAE
ENCODING 20398
SWIDTH 500 0
DWIDTH 6 0
BBX 10 10 0 -1
BITMAP
2880
2FC0
3000
6F80
AA80
3FC0
2A80
2FC0
2080
2300
ENDCHAR
STARTCHAR uni4FAF
ENCODING 20399
SWIDTH 500 0
DWIDTH 6 0
BBX 10 10 0 -1
BITMAP
2F80
2100
3FC0
6800
AFC0
3200
3FC0
2200
2500
38C0
ENDCHAR
STARTCHAR uni4FB2
ENCODING 20402
SWIDTH 500 0
DWIDTH 6 0
BBX 10 10 0 -1
BITMAP
2FC0
2800
2F80
6800
AFC0
2A80
2AC0
2A80
2B40
3240
ENDCHAR
STARTCHAR uni4FB3
ENCODING 20403
SWIDTH 500 0
DWIDTH 6 0
BBX 10 10 0 -1
BITMAP
4200
4A80
4A80
5740
E200
4200
4F80
4200
4200
5FC0
ENDCHAR
STARTCHAR uni4FB5
ENCODING 20405
SWIDTH 500 0
DWIDTH 6 0
BBX 10 10 0 -1
BITMAP
2F80
2080
2780
6080
AFC0
2840
2780
2480
2300
2CC0
ENDCHAR
STARTCHAR uni4FB6
ENCODING 20406
SWIDTH 500 0
DWIDTH 6 0
BBX 10 10 0 -1
BITMAP
2780
2480
2480
6780
A200
2FC0
2840
2840
2FC0
2840
ENDCHAR
STARTCHAR uni4FB7
ENCODING 20407
SWIDTH 500 0
DWIDTH 6 0
BBX 10 10 0 -1
BITMAP
2FC0
2840
2FC0
6800
AFC0
2840
2F40
2940
2F40
3180
ENDCHAR
STARTCHAR uni4FB9
ENCODING 20409
SWIDTH 500 0
DWIDTH 6 0
BBX 10 10 0 -1
BITMAP
78C0
4F00
4900
5100
CBC0
4900
5900
4BC0
5400
63C0
ENDCHAR
STARTCHAR uni4FBA
ENCODING 20410
SWIDTH 500 0
DWIDTH 6 0
BBX 10 10 0 -1
BITMAP
5240
5240
5FC0
4200
C500
4880
5240
4F80
4100
4200
ENDCHAR
STARTCHAR uni4FBB
ENCODING 20411
SWIDTH 500 0
DWIDTH 6 0
BBX 10 10 0 -1
BITMAP
2880
2500
2F80
6880
AF80
2880
2500
2500
2940
31C0
ENDCHAR
STARTCHAR uni4FBF
ENCODING 20415
SWIDTH 500 0
DWIDTH 6 0
BBX 10 10 0 -1
BITMAP
2FC0
2200
2FC0
6A40
AFC0
2A40
2FC0
2A00
2600
39C0
ENDCHAR
STARTCHAR uni4FC0
ENCODING 20416
SWIDTH 500 0
DWIDTH 6 0
BBX 10 10 0 -1
BITMAP
2F80
3240
2A40
6080
A200
3FC0
2480
2500
2280
3C40
ENDCHAR
STARTCHAR uni4FC1
ENCODING 20417
SWIDTH 500 0
DWIDTH 6 0
BBX 10 10 0 -1
BITMAP
2380
2A80
2B80
6800
AF80
2280
3FC0
2200
2500
28C0
ENDCHAR
STARTCHAR uni4FC2
ENCODING 20418
SWIDTH 500 0
DWIDTH 6 0
BBX 10 10 0 -1
BITMAP
2FC0
2200
2480
6B00
A480
2F40
2200
2A80
3240
2600
ENDCHAR
STARTCHAR uni4FC3
ENCODING 20419
SWIDTH 500 0
DWIDTH 6 0
BBX 10 10 0 -1
BITMAP
2F80
2880
2880
6F80
A200
2A00
2BC0
2A00
2A00
37C0
ENDCHAR
STARTCHAR uni4FC4
ENCODING 20420
SWIDTH 500 0
DWIDTH 6 0
BBX 10 10 0 -1
BITMAP
2580
2D40
2500
7FC0
A500
2740
3D80
2540
26C0
2C40
ENDCHAR
STARTCHAR uni4FC5
ENCODING 20421
SWIDTH 500 0
DWIDTH 6 0
BBX 10 10 0 -1
BITMAP
2280
2240
2FC0
6240
B280
2B00
2680
3A40
2240
2600
ENDCHAR
STARTCHAR uni4FC7
ENCODING 20423
SWIDTH 500 0
DWIDTH 6 0
BBX 10 10 0 -1
BITMAP
5400
4BC0
5100
6900
C900
5BC0
6900
4900
6900
57C0
ENDCHAR
STARTCHAR uni4FC9
ENCODING 20425
SWIDTH 500 0
DWIDTH 6 0
BBX 10 10 0 -1
BITMAP
2FC0
2200
2F80
6480
BFC0
2000
2F80
2880
2F80
2880
ENDCHAR
STARTCHAR uni4FCA
ENCODING 20426
SWIDTH 500 0
DWIDTH 6 0
BBX 10 10 0 -1
BITMAP
2200
2480
2FC0
6480
A840
2780
2C80
3300
2480
2840
ENDCHAR
STARTCHAR uni4FCB
ENCODING 20427
SWIDTH 500 0
DWIDTH 6 0
BBX 10 10 0 -1
BITMAP
2780
2480
2780
6000
AFC0
2A40
2FC0
2800
2840
27C0
ENDCHAR
STARTCHAR uni4FCD
ENCODING 20429
SWIDTH 500 0
DWIDTH 6 0
BBX 10 10 0 -1
BITMAP
2200
2F80
2880
6F80
A880
2F80
2A40
2980
2C80
2840
ENDCHAR
STARTCHAR uni4FCE
ENCODING 20430
SWIDTH 500 0
DWIDTH 6 0
BBX 10 10 0 -1
BITMAP
2780
2480
5480
9780
A480
2480
5780
9480
8480
1FC0
ENDCHAR
STARTCHAR uni4FCF
ENCODING 20431
SWIDTH 500 0
DWIDTH 6 0
BBX 10 10 0 -1
BITMAP
2940
2580
2100
6FC0
A840
2FC0
2840
2FC0
2840
28C0
ENDCHAR
STARTCHAR uni4FD0
ENCODING 20432
SWIDTH 500 0
DWIDTH 6 0
BBX 10 10 0 -1
BITMAP
2E40
2440
2540
7F40
A540
2F40
3540
2440
2440
24C0
ENDCHAR
STARTCHAR uni4FD1
ENCODING 20433
SWIDTH 500 0
DWIDTH 6 0
BBX 10 10 0 -1
BITMAP
2FC0
2500
2FC0
6A40
AFC0
2A40
2FC0
2A40
2A40
2AC0
ENDCHAR
STARTCHAR uni4FD3
ENCODING 20435
SWIDTH 500 0
DWIDTH 6 0
BBX 10 10 0 -1
BITMAP
2FC0
2540
2A80
6A80
A540
2000
3FC0
2200
2200
3FC0
ENDCHAR
STARTCHAR uni4FD4
ENCODING 20436
SWIDTH 500 0
DWIDTH 6 0
BBX 10 10 0 -1
BITMAP
2F80
2880
2F80
6880
AF80
2880
2F80
2500
2940
31C0
ENDCHAR
STARTCHAR uni4FD6
ENCODING 20438
SWIDTH 500 0
DWIDTH 6 0
BBX 10 10 0 -1
BITMAP
2FC0
2100
2380
6540
A900
2FC0
2840
2840
2FC0
2840
ENDCHAR
STARTCHAR uni4FD7
ENCODING 20439
SWIDTH 500 0
DWIDTH 6 0
BBX 10 10 0 -1
BITMAP
2500
2880
3240
6500
A880
37C0
2480
2480
2780
2480
ENDCHAR
STARTCHAR uni4FD8
ENCODING 20440
SWIDTH 500 0
DWIDTH 6 0
BBX 10 10 0 -1
BITMAP
2FC0
3440
2A80
6F80
A080
2100
3FC0
2100
2500
2200
ENDCHAR
STARTCHAR uni4FD9
ENCODING 20441
SWIDTH 500 0
DWIDTH 6 0
BBX 10 10 0 -1
BITMAP
2880
2700
2A80
7FC0
A500
2FC0
3540
2540
25C0
2100
ENDCHAR
STARTCHAR uni4FDA
ENCODING 20442
SWIDTH 500 0
DWIDTH 6 0
BBX 10 10 0 -1
BITMAP
2FC0
2A40
2FC0
6A40
AFC0
2A40
2200
2FC0
2200
2FC0
ENDCHAR
STARTCHAR uni4FDB
ENCODING 20443
SWIDTH 500 0
DWIDTH 6 0
BBX 10 10 0 -1
BITMAP
2780
2900
3FC0
6A40
AA40
2FC0
2300
2500
2940
31C0
ENDCHAR
STARTCHAR uni4FDC
ENCODING 20444
SWIDTH 500 0
DWIDTH 6 0
BBX 10 10 0 -1
BITMAP
2200
2F80
2A80
6F80
AA80
3FC0
2400
2F80
2080
2700
ENDCHAR
STARTCHAR uni4FDD
ENCODING 20445
SWIDTH 500 0
DWIDTH 6 0
BBX 10 10 0 -1
BITMAP
2F80
2880
2880
6F80
A200
3FC0
2200
2700
2A80
3240
ENDCHAR
STARTCHAR uni4FDE
ENCODING 20446
SWIDTH 500 0
DWIDTH 6 0
BBX 9 10 0 -1
BITMAP
1C00
2200
DD80
0000
F480
9480
F480
9480
F080
9180
ENDCHAR
STARTCHAR uni4FDF
ENCODING 20447
SWIDTH 500 0
DWIDTH 6 0
BBX 10 10 0 -1
BITMAP
2200
2480
2F40
6800
AF80
3200
3FC0
2200
2500
38C0
ENDCHAR
STARTCHAR uni4FE0
ENCODING 20448
SWIDTH 500 0
DWIDTH 6 0
BBX 10 10 0 -1
BITMAP
2200
3FC0
2200
6A80
AA80
3740
2200
2500
2880
3040
ENDCHAR
STARTCHAR uni4FE1
ENCODING 20449
SWIDTH 500 0
DWIDTH 6 0
BBX 10 10 0 -1
BITMAP
2200
3FC0
2000
6F80
A000
2F80
2000
2F80
2880
2F80
ENDCHAR
STARTCHAR uni4FE3
ENCODING 20451
SWIDTH 500 0
DWIDTH 6 0
BBX 10 10 0 -1
BITMAP
2F80
2880
2F80
6000
AF80
2200
3FC0
2200
2500
38C0
ENDCHAR
STARTCHAR uni4FE6
ENCODING 20454
SWIDTH 500 0
DWIDTH 6 0
BBX 10 10 0 -1
BITMAP
2FC0
2200
2FC0
6400
BFC0
2880
37C0
2480
2280
2180
ENDCHAR
STARTCHAR uni4FE8
ENCODING 20456
SWIDTH 500 0
DWIDTH 6 0
BBX 10 10 0 -1
BITMAP
5FC0
5540
4D80
DFC0
5000
5000
5000
5000
6000
4000
ENDCHAR
STARTCHAR uni4FE9
ENCODING 20457
SWIDTH 500 0
DWIDTH 6 0
BBX 10 10 0 -1
BITMAP
5FC0
4500
5FC0
D540
5540
5540
5AC0
5440
5040
50C0
ENDCHAR
STARTCHAR uni4FEA
ENCODING 20458
SWIDTH 500 0
DWIDTH 6 0
BBX 10 10 0 -1
BITMAP
7FC0
4000
5FC0
D240
5B40
56C0
5240
5240
5240
50C0
ENDCHAR
STARTCHAR uni4FEC
ENCODING 20460
SWIDTH 500 0
DWIDTH 6 0
BBX 10 10 0 -1
BITMAP
5C80
4880
4880
7F00
C900
5D00
6B40
4940
4BC0
4840
ENDCHAR
STARTCHAR uni4FED
ENCODING 20461
SWIDTH 500 0
DWIDTH 6 0
BBX 10 10 0 -1
BITMAP
2200
2500
2880
7740
A000
2480
2A80
2500
2100
2FC0
ENDCHAR
STARTCHAR uni4FEE
ENCODING 20462
SWIDTH 500 0
DWIDTH 6 0
BBX 10 10 0 -1
BITMAP
4800
4FC0
5480
5300
DCC0
5600
5100
5640
4080
4700
ENDCHAR
STARTCHAR uni4FEF
ENCODING 20463
SWIDTH 500 0
DWIDTH 6 0
BBX 10 10 0 -1
BITMAP
2100
2FC0
2A40
6BC0
AE40
2B40
2AC0
2A40
3240
22C0
ENDCHAR
STARTCHAR uni4FF1
ENCODING 20465
SWIDTH 500 0
DWIDTH 6 0
BBX 10 10 0 -1
BITMAP
2F80
2880
2F80
6880
AE80
2B80
2880
3FC0
2500
38C0
ENDCHAR
STARTCHAR uni4FF3
ENCODING 20467
SWIDTH 500 0
DWIDTH 6 0
BBX 10 10 0 -1
BITMAP
2500
2500
3DC0
6500
BDC0
2500
3DC0
2500
2500
2500
ENDCHAR
STARTCHAR uni4FF4
ENCODING 20468
SWIDTH 500 0
DWIDTH 6 0
BBX 10 10 0 -1
BITMAP
2500
3F80
2480
6340
BDC0
2540
3F80
2480
2340
3CC0
ENDCHAR
STARTCHAR uni4FF5
ENCODING 20469
SWIDTH 500 0
DWIDTH 6 0
BBX 10 10 0 -1
BITMAP
4200
5FC0
4200
CF80
4200
5FC0
4A40
5980
6880
4C40
ENDCHAR
STARTCHAR uni4FF6
ENCODING 20470
SWIDTH 500 0
DWIDTH 6 0
BBX 10 10 0 -1
BITMAP
49C0
4F40
C940
7F40
4940
5D40
6A80
4880
4940
5A40
ENDCHAR
STARTCHAR uni4FF7
ENCODING 20471
SWIDTH 500 0
DWIDTH 6 0
BBX 10 10 0 -1
BITMAP
5FC0
5540
5540
5D40
D7C0
5C00
5400
5440
6440
4FC0
ENDCHAR
STARTCHAR uni4FF8
ENCODING 20472
SWIDTH 500 0
DWIDTH 6 0
BBX 10 10 0 -1
BITMAP
2FC0
2200
2FC0
6400
BFC0
2A80
3740
2200
2FC0
2200
ENDCHAR
STARTCHAR uni4FFA
ENCODING 20474
SWIDTH 500 0
DWIDTH 6 0
BBX 10 10 0 -1
BITMAP
2400
3FC0
2A80
7FC0
AA80
2F80
2A80
2F80
2240
21C0
ENDCHAR
STARTCHAR uni4FFE
ENCODING 20478
SWIDTH 500 0
DWIDTH 6 0
BBX 10 10 0 -1
BITMAP
2200
2FC0
2A40
6FC0
AA40
2FC0
2500
3FC0
2100
2100
ENDCHAR
STARTCHAR uni5000
ENCODING 20480
SWIDTH 500 0
DWIDTH 6 0
BBX 10 10 0 -1
BITMAP
27C0
2400
2780
6400
A780
2400
3FC0
2540
2480
2640
ENDCHAR
STARTCHAR uni5005
ENCODING 20485
SWIDTH 500 0
DWIDTH 6 0
BBX 10 10 0 -1
BITMAP
2200
2FC0
2480
6480
AB40
2200
3FC0
2200
2200
2200
ENDCHAR
STARTCHAR uni5006
ENCODING 20486
SWIDTH 500 0
DWIDTH 6 0
BBX 10 10 0 -1
BITMAP
5FC0
4200
5FC0
D240
5240
5B40
56C0
5B40
5240
5040
ENDCHAR
STARTCHAR uni5007
ENCODING 20487
SWIDTH 500 0
DWIDTH 6 0
BBX 10 10 0 -1
BITMAP
4200
5FC0
5040
5FC0
D540
6540
55C0
4900
5140
61C0
ENDCHAR
STARTCHAR uni5009
ENCODING 20489
SWIDTH 500 0
DWIDTH 6 0
BBX 10 10 0 -1
BITMAP
0C00
3B00
C4C0
3F00
2100
3F00
2100
3F80
5080
9F80
ENDCHAR
STARTCHAR uni500B
ENCODING 20491
SWIDTH 500 0
DWIDTH 6 0
BBX 10 10 0 -1
BITMAP
5FC0
5240
5FC0
D240
5740
5540
5740
5040
5FC0
5040
ENDCHAR
STARTCHAR uni500C
ENCODING 20492
SWIDTH 500 0
DWIDTH 6 0
BBX 10 10 0 -1
BITMAP
2100
2FC0
2840
6780
A480
2780
2400
27C0
2440
27C0
ENDCHAR
STARTCHAR uni500D
ENCODING 20493
SWIDTH 500 0
DWIDTH 6 0
BBX 10 10 0 -1
BITMAP
2200
3FC0
2880
6500
BFC0
2000
2FC0
2840
2FC0
2840
ENDCHAR
STARTCHAR uni500E
ENCODING 20494
SWIDTH 500 0
DWIDTH 6 0
BBX 10 10 0 -1
BITMAP
4500
5FC0
5540
5540
DFC0
5540
5540
7FC0
4900
70C0
ENDCHAR
STARTCHAR uni500F
ENCODING 20495
SWIDTH 500 0
DWIDTH 6 0
BBX 10 11 0 -1
BITMAP
0400
47C0
4A80
5100
D6C0
5100
5280
5FC0
5200
4500
58C0
ENDCHAR
STARTCHAR uni5011
ENCODING 20497
SWIDTH 500 0
DWIDTH 6 0
BBX 10 10 0 -1
BITMAP
5DC0
5540
5DC0
D540
5DC0
5040
5040
5040
5040
50C0
ENDCHAR
STARTCHAR uni5012
ENCODING 20498
SWIDTH 500 0
DWIDTH 6 0
BBX 10 10 0 -1
BITMAP
7E40
4840
5540
DD40
4940
5D40
4940
4E40
5840
40C0
ENDCHAR
STARTCHAR uni5013
ENCODING 20499
SWIDTH 500 0
DWIDTH 6 0
BBX 10 10 0 -1
BITMAP
2A40
2A80
3300
64C0
BA00
2A40
2A80
3500
2880
3040
ENDCHAR
STARTCHAR uni5014
ENCODING 20500
SWIDTH 500 0
DWIDTH 6 0
BBX 10 10 0 -1
BITMAP
2FC0
2840
2FC0
6900
AD40
2FC0
2900
2D40
37C0
2440
ENDCHAR
STARTCHAR uni5015
ENCODING 20501
SWIDTH 500 0
DWIDTH 6 0
BBX 10 10 0 -1
BITMAP
2F80
2200
3FC0
6A80
AA80
2FC0
2A80
3FC0
2200
2FC0
ENDCHAR
STARTCHAR uni5016
ENCODING 20502
SWIDTH 500 0
DWIDTH 6 0
BBX 10 10 0 -1
BITMAP
2200
2F80
2200
7FC0
A500
2F80
2200
3FC0
2200
2200
ENDCHAR
STARTCHAR uni5017
ENCODING 20503
SWIDTH 500 0
DWIDTH 6 0
BBX 10 10 0 -1
BITMAP
5DC0
5540
5540
5DC0
D540
5DC0
5540
5540
5540
6EC0
ENDCHAR
STARTCHAR uni5018
ENCODING 20504
SWIDTH 500 0
DWIDTH 6 0
BBX 10 10 0 -1
BITMAP
5240
4A80
4200
DFC0
5040
5740
5540
5740
5040
50C0
ENDCHAR
STARTCHAR uni5019
ENCODING 20505
SWIDTH 500 0
DWIDTH 6 0
BBX 10 10 0 -1
BITMAP
4780
4080
5FC0
D400
57C0
5900
57C0
5100
4280
4440
ENDCHAR
STARTCHAR uni501A
ENCODING 20506
SWIDTH 500 0
DWIDTH 6 0
BBX 10 10 0 -1
BITMAP
2200
2FC0
2500
7FC0
A080
2E80
2A80
2E80
2080
2180
ENDCHAR
STARTCHAR uni501B
ENCODING 20507
SWIDTH 500 0
DWIDTH 6 0
BBX 10 10 0 -1
BITMAP
4900
5F80
4900
CF00
4900
4F00
4900
7FC0
4900
70C0
ENDCHAR
STARTCHAR uni501C
ENCODING 20508
SWIDTH 500 0
DWIDTH 6 0
BBX 10 10 0 -1
BITMAP
5FC0
5240
5FC0
D240
5FC0
5040
5740
5540
5740
60C0
ENDCHAR
STARTCHAR uni501E
ENCODING 20510
SWIDTH 500 0
DWIDTH 6 0
BBX 10 10 0 -1
BITMAP
2200
3FC0
2000
6F80
A880
2F80
2200
2A80
3240
2640
ENDCHAR
STARTCHAR uni501F
ENCODING 20511
SWIDTH 500 0
DWIDTH 6 0
BBX 10 10 0 -1
BITMAP
2480
3FC0
2480
7FC0
A000
2F80
2880
2F80
2880
2F80
ENDCHAR
STARTCHAR uni5020
ENCODING 20512
SWIDTH 500 0
DWIDTH 6 0
BBX 10 10 0 -1
BITMAP
2A00
2900
2FC0
6900
BFC0
2900
2FC0
2900
2FC0
2800
ENDCHAR
STARTCHAR uni5021
ENCODING 20513
SWIDTH 500 0
DWIDTH 6 0
BBX 10 10 0 -1
BITMAP
2780
2480
2780
6480
AFC0
2840
2FC0
2840
2FC0
2840
ENDCHAR
STARTCHAR uni5022
ENCODING 20514
SWIDTH 500 0
DWIDTH 6 0
BBX 10 10 0 -1
BITMAP
2200
3FC0
2280
7FC0
A280
2F80
2A00
2BC0
3600
23C0
ENDCHAR
STARTCHAR uni5023
ENCODING 20515
SWIDTH 500 0
DWIDTH 6 0
BBX 10 10 0 -1
BITMAP
4900
7D00
53C0
DD40
5540
5540
5540
5480
6540
4A40
ENDCHAR
STARTCHAR uni5025
ENCODING 20517
SWIDTH 500 0
DWIDTH 6 0
BBX 10 10 0 -1
BITMAP
4200
5FC0
5040
C880
5040
4F80
4200
4200
4200
5FC0
ENDCHAR
STARTCHAR uni5026
ENCODING 20518
SWIDTH 500 0
DWIDTH 6 0
BBX 10 10 0 -1
BITMAP
3240
2A80
2FC0
6400
BFC0
2880
3740
2500
2440
27C0
ENDCHAR
STARTCHAR uni5027
ENCODING 20519
SWIDTH 500 0
DWIDTH 6 0
BBX 10 10 0 -1
BITMAP
4200
5FC0
5040
4F80
C000
5FC0
4200
4A80
5240
4600
ENDCHAR
STARTCHAR uni5028
ENCODING 20520
SWIDTH 500 0
DWIDTH 6 0
BBX 10 10 0 -1
BITMAP
2FC0
2840
2FC0
6900
AFC0
2900
2FC0
2C40
37C0
2440
ENDCHAR
STARTCHAR uni5029
ENCODING 20521
SWIDTH 500 0
DWIDTH 6 0
BBX 10 10 0 -1
BITMAP
2F80
2200
2F80
6200
BFC0
2880
2F80
2880
2F80
2880
ENDCHAR
STARTCHAR uni502A
ENCODING 20522
SWIDTH 500 0
DWIDTH 6 0
BBX 10 10 0 -1
BITMAP
5DC0
5040
5DC0
D040
5FC0
5540
4500
4540
4940
50C0
ENDCHAR
STARTCHAR uni502B
ENCODING 20523
SWIDTH 500 0
DWIDTH 6 0
BBX 10 10 0 -1
BITMAP
4700
4880
5740
C000
5FC0
5540
5540
5FC0
5540
5540
ENDCHAR
STARTCHAR uni502C
ENCODING 20524
SWIDTH 500 0
DWIDTH 6 0
BBX 10 10 0 -1
BITMAP
23C0
2200
2F80
6880
AF80
2880
2F80
2200
3FC0
2200
ENDCHAR
STARTCHAR uni502D
ENCODING 20525
SWIDTH 500 0
DWIDTH 6 0
BBX 10 10 0 -1
BITMAP
2F80
2200
3FC0
6A80
B240
2400
3FC0
2900
2700
3CC0
ENDCHAR
STARTCHAR uni502E
ENCODING 20526
SWIDTH 500 0
DWIDTH 6 0
BBX 10 10 0 -1
BITMAP
2F80
2A80
2F80
6A80
AF80
2200
3FC0
2A80
2A80
3240
ENDCHAR
STARTCHAR uni502F
ENCODING 20527
SWIDTH 500 0
DWIDTH 6 0
BBX 10 10 0 -1
BITMAP
2880
2A80
3E80
6A40
AA40
3D00
2900
2A40
2FC0
2A40
ENDCHAR
STARTCHAR uni5030
ENCODING 20528
SWIDTH 500 0
DWIDTH 6 0
BBX 10 10 0 -1
BITMAP
2200
2F80
2200
7FC0
A880
3440
2F80
3480
2300
2CC0
ENDCHAR
STARTCHAR uni5031
ENCODING 20529
SWIDTH 500 0
DWIDTH 6 0
BBX 10 10 0 -1
BITMAP
2F80
2880
2F80
6880
AF80
2940
2F80
2940
2F40
29C0
ENDCHAR
STARTCHAR uni5033
ENCODING 20531
SWIDTH 500 0
DWIDTH 6 0
BBX 10 10 0 -1
BITMAP
2200
3FC0
2A80
7F80
A280
3FC0
2280
2F80
2200
2600
ENDCHAR
STARTCHAR uni5035
ENCODING 20533
SWIDTH 500 0
DWIDTH 6 0
BBX 10 10 0 -1
BITMAP
5D80
4140
7FC0
C100
4500
5700
5540
5540
7EC0
4040
ENDCHAR
STARTCHAR uni5037
ENCODING 20535
SWIDTH 500 0
DWIDTH 6 0
BBX 10 10 0 -1
BITMAP
4200
5FC0
4880
D740
6000
5FC0
4200
4A80
5240
6640
ENDCHAR
STARTCHAR uni503A
ENCODING 20538
SWIDTH 500 0
DWIDTH 6 0
BBX 10 10 0 -1
BITMAP
5FC0
4200
4F80
4200
DFC0
4880
4A80
4A80
4500
58C0
ENDCHAR
STARTCHAR uni503C
ENCODING 20540
SWIDTH 500 0
DWIDTH 6 0
BBX 10 10 0 -1
BITMAP
2200
3FC0
2200
6F80
A880
2F80
2880
2F80
2880
3FC0
ENDCHAR
STARTCHAR uni503E
ENCODING 20542
SWIDTH 500 0
DWIDTH 6 0
BBX 10 10 0 -1
BITMAP
47C0
5100
57C0
DC40
5540
5540
5D40
5500
4280
4440
ENDCHAR
STARTCHAR uni5040
ENCODING 20544
SWIDTH 500 0
DWIDTH 6 0
BBX 10 10 0 -1
BITMAP
2500
3FC0
2500
6200
AF80
2A80
3FC0
2200
2500
38C0
ENDCHAR
STARTCHAR uni5041
ENCODING 20545
SWIDTH 500 0
DWIDTH 6 0
BBX 10 10 0 -1
BITMAP
2F80
2A40
2480
6F80
AA80
2F80
2A80
3FC0
2880
2980
ENDCHAR
STARTCHAR uni5043
ENCODING 20547
SWIDTH 500 0
DWIDTH 6 0
BBX 10 10 0 -1
BITMAP
5FC0
5480
5780
5480
D200
5FC0
5480
5300
5480
5FC0
ENDCHAR
STARTCHAR uni5045
ENCODING 20549
SWIDTH 500 0
DWIDTH 6 0
BBX 10 10 0 -1
BITMAP
20C0
3F00
2200
7FC0
AA80
2F80
2A80
3FC0
2200
3FC0
ENDCHAR
STARTCHAR uni5046
ENCODING 20550
SWIDTH 500 0
DWIDTH 6 0
BBX 10 10 0 -1
BITMAP
4200
5FC0
4400
DF80
4800
7FC0
5980
6F40
4900
4F00
ENDCHAR
STARTCHAR uni5047
ENCODING 20551
SWIDTH 500 0
DWIDTH 6 0
BBX 10 10 0 -1
BITMAP
2EC0
2A40
2EC0
6800
AFC0
2940
2F40
2880
2940
2A40
ENDCHAR
STARTCHAR uni5048
ENCODING 20552
SWIDTH 500 0
DWIDTH 6 0
BBX 10 10 0 -1
BITMAP
4F80
4880
4F80
C880
4FC0
5240
7540
58C0
5F40
4180
ENDCHAR
STARTCHAR uni5049
ENCODING 20553
SWIDTH 500 0
DWIDTH 6 0
BBX 10 10 0 -1
BITMAP
2F80
2480
3FC0
6880
AF80
2200
3FC0
2A00
3FC0
2200
ENDCHAR
STARTCHAR uni504A
ENCODING 20554
SWIDTH 500 0
DWIDTH 6 0
BBX 10 10 0 -1
BITMAP
4F80
4200
4F80
4A80
CF80
4200
5FC0
5340
5EC0
5040
ENDCHAR
STARTCHAR uni504B
ENCODING 20555
SWIDTH 500 0
DWIDTH 6 0
BBX 10 10 0 -1
BITMAP
5FC0
5040
5FC0
5280
D7C0
5280
5FC0
5280
5480
6880
ENDCHAR
STARTCHAR uni504C
ENCODING 20556
SWIDTH 500 0
DWIDTH 6 0
BBX 10 10 0 -1
BITMAP
2480
3FC0
2480
6200
BFC0
2400
2F80
3480
2780
2480
ENDCHAR
STARTCHAR uni504D
ENCODING 20557
SWIDTH 500 0
DWIDTH 6 0
BBX 10 10 0 -1
BITMAP
2F80
2880
2F80
6880
BFC0
2200
2A00
2BC0
2A00
37C0
ENDCHAR
STARTCHAR uni504E
ENCODING 20558
SWIDTH 500 0
DWIDTH 6 0
BBX 10 10 0 -1
BITMAP
2F80
2A80
2F80
6A80
AF80
2000
3FC0
2940
2A80
2C40
ENDCHAR
STARTCHAR uni504F
ENCODING 20559
SWIDTH 500 0
DWIDTH 6 0
BBX 10 10 0 -1
BITMAP
4200
5FC0
5040
5FC0
D000
5FC0
7540
5FC0
5540
5540
ENDCHAR
STARTCHAR uni5051
ENCODING 20561
SWIDTH 500 0
DWIDTH 6 0
BBX 10 10 0 -1
BITMAP
5F00
5100
5F00
5500
DF00
5500
5F00
5540
66C0
5D40
ENDCHAR
STARTCHAR uni5053
ENCODING 20563
SWIDTH 500 0
DWIDTH 6 0
BBX 10 10 0 -1
BITMAP
5FC0
5040
5FC0
5200
D480
5FC0
5140
5780
6100
4FC0
ENDCHAR
STARTCHAR uni5055
ENCODING 20565
SWIDTH 500 0
DWIDTH 6 0
BBX 10 10 0 -1
BITMAP
2940
2D80
2940
6DC0
A200
2FC0
2840
2FC0
2840
2FC0
ENDCHAR
STARTCHAR uni5057
ENCODING 20567
SWIDTH 500 0
DWIDTH 6 0
BBX 10 10 0 -1
BITMAP
2280
2A40
3280
6100
AFC0
2440
2740
25C0
2440
27C0
ENDCHAR
STARTCHAR uni505A
ENCODING 20570
SWIDTH 500 0
DWIDTH 6 0
BBX 10 10 0 -1
BITMAP
4900
4900
5DC0
4B40
DD40
5540
5540
5C80
5540
4240
ENDCHAR
STARTCHAR uni505B
ENCODING 20571
SWIDTH 500 0
DWIDTH 6 0
BBX 10 10 0 -1
BITMAP
5F80
4200
5FC0
4200
DAC0
5240
5AC0
5240
5FC0
5040
ENDCHAR
STARTCHAR uni505C
ENCODING 20572
SWIDTH 500 0
DWIDTH 6 0
BBX 10 10 0 -1
BITMAP
2200
2FC0
2000
6780
A480
2FC0
3040
2F80
2100
2300
ENDCHAR
STARTCHAR uni505D
ENCODING 20573
SWIDTH 500 0
DWIDTH 6 0
BBX 10 10 0 -1
BITMAP
2500
3DC0
2500
7DC0
AF80
2880
2E80
2B80
2880
2980
ENDCHAR
STARTCHAR uni505E
ENCODING 20574
SWIDTH 500 0
DWIDTH 6 0
BBX 10 10 0 -1
BITMAP
2A80
2FC0
2A80
6B80
A800
2FC0
2200
3FC0
2A80
3240
ENDCHAR
STARTCHAR uni505F
ENCODING 20575
SWIDTH 500 0
DWIDTH 6 0
BBX 10 10 0 -1
BITMAP
2200
2F80
2880
6F80
A880
3FC0
2200
2F80
2200
3FC0
ENDCHAR
STARTCHAR uni5060
ENCODING 20576
SWIDTH 500 0
DWIDTH 6 0
BBX 10 10 0 -1
BITMAP
5FC0
4500
5FC0
5540
DFC0
4200
5FC0
4480
4300
4CC0
ENDCHAR
STARTCHAR uni5061
ENCODING 20577
SWIDTH 500 0
DWIDTH 6 0
BBX 10 10 0 -1
BITMAP
2480
3FC0
2480
6780
A480
3FC0
2A80
2C40
2800
2FC0
ENDCHAR
STARTCHAR uni5062
ENCODING 20578
SWIDTH 500 0
DWIDTH 6 0
BBX 10 10 0 -1
BITMAP
5C80
4880
7EC0
4A80
CA80
5C80
6A80
4880
4940
4A40
ENDCHAR
STARTCHAR uni5063
ENCODING 20579
SWIDTH 500 0
DWIDTH 6 0
BBX 10 10 0 -1
BITMAP
2200
3FC0
2500
7FC0
A000
2F80
2880
2F80
2880
2F80
ENDCHAR
STARTCHAR uni5064
ENCODING 20580
SWIDTH 500 0
DWIDTH 6 0
BBX 10 10 0 -1
BITMAP
4500
5FC0
4500
5FC0
D540
59C0
5040
5FC0
5040
5FC0
ENDCHAR
STARTCHAR uni5065
ENCODING 20581
SWIDTH 500 0
DWIDTH 6 0
BBX 10 10 0 -1
BITMAP
4200
7F80
4A80
57C0
F280
5F80
5200
7FC0
5200
6FC0
ENDCHAR
STARTCHAR uni5068
ENCODING 20584
SWIDTH 500 0
DWIDTH 6 0
BBX 10 10 0 -1
BITMAP
4500
5740
5580
5740
D9C0
4200
7FC0
4A80
5240
6240
ENDCHAR
STARTCHAR uni5069
ENCODING 20585
SWIDTH 500 0
DWIDTH 6 0
BBX 10 10 0 -1
BITMAP
2780
2900
2FC0
7840
AF40
2BC0
2840
2FC0
2480
2840
ENDCHAR
STARTCHAR uni506A
ENCODING 20586
SWIDTH 500 0
DWIDTH 6 0
BBX 10 10 0 -1
BITMAP
2FC0
2480
2780
6000
AFC0
2940
2FC0
2940
2FC0
2840
ENDCHAR
STARTCHAR uni506B
ENCODING 20587
SWIDTH 500 0
DWIDTH 6 0
BBX 10 10 0 -1
BITMAP
2500
2BC0
3500
6BC0
B880
2FC0
2880
2A80
2A80
2980
ENDCHAR
STARTCHAR uni506C
ENCODING 20588
SWIDTH 500 0
DWIDTH 6 0
BBX 10 10 0 -1
BITMAP
2800
2FC0
3540
6740
AA40
24C0
2680
2D40
3480
2780
ENDCHAR
STARTCHAR uni506D
ENCODING 20589
SWIDTH 500 0
DWIDTH 6 0
BBX 10 10 0 -1
BITMAP
5FC0
4200
5FC0
5540
D740
5540
5740
5540
5FC0
5040
ENDCHAR
STARTCHAR uni506E
ENCODING 20590
SWIDTH 500 0
DWIDTH 6 0
BBX 10 10 0 -1
BITMAP
4F80
4880
5FC0
4880
CF80
4880
4F80
4880
5FC0
4080
ENDCHAR
STARTCHAR uni506F
ENCODING 20591
SWIDTH 500 0
DWIDTH 6 0
BBX 10 10 0 -1
BITMAP
2200
3FC0
2880
6880
AF80
2200
2540
2C80
3640
2440
ENDCHAR
STARTCHAR uni5070
ENCODING 20592
SWIDTH 500 0
DWIDTH 6 0
BBX 10 10 0 -1
BITMAP
5FC0
4940
5D40
CA40
5CC0
4200
5FC0
4500
4880
5040
ENDCHAR
STARTCHAR uni5072
ENCODING 20594
SWIDTH 500 0
DWIDTH 6 0
BBX 10 10 0 -1
BITMAP
2FC0
2A40
2FC0
6A40
AFC0
2280
2540
2C40
3480
2380
ENDCHAR
STARTCHAR uni5073
ENCODING 20595
SWIDTH 500 0
DWIDTH 6 0
BBX 10 10 0 -1
BITMAP
5240
5240
5FC0
4000
DFC0
4200
5FC0
5540
5540
54C0
ENDCHAR
STARTCHAR uni5074
ENCODING 20596
SWIDTH 500 0
DWIDTH 6 0
BBX 10 10 0 -1
BITMAP
5C40
5540
5D40
5540
DD40
5540
5D40
4840
5440
62C0
ENDCHAR
STARTCHAR uni5075
ENCODING 20597
SWIDTH 500 0
DWIDTH 6 0
BBX 10 10 0 -1
BITMAP
23C0
2200
2F80
6880
AF80
2880
2F80
2880
2F80
38C0
ENDCHAR
STARTCHAR uni5076
ENCODING 20598
SWIDTH 500 0
DWIDTH 6 0
BBX 10 10 0 -1
BITMAP
4F80
4A80
4F80
4A80
CF80
4200
5FC0
5340
5EC0
5040
ENDCHAR
STARTCHAR uni5077
ENCODING 20599
SWIDTH 500 0
DWIDTH 6 0
BBX 10 10 0 -1
BITMAP
4700
4880
5740
4000
DD40
5540
5D40
5540
5C40
54C0
ENDCHAR
STARTCHAR uni507A
ENCODING 20602
SWIDTH 500 0
DWIDTH 6 0
BBX 10 10 0 -1
BITMAP
5D00
5580
7540
C900
5400
7FC0
5100
5F00
5100
5F00
ENDCHAR
STARTCHAR uni507B
ENCODING 20603
SWIDTH 500 0
DWIDTH 6 0
BBX 10 10 0 -1
BITMAP
2A40
2A80
3FC0
6A80
B240
2400
3FC0
2900
2700
3CC0
ENDCHAR
STARTCHAR uni507D
ENCODING 20605
SWIDTH 500 0
DWIDTH 6 0
BBX 10 10 0 -1
BITMAP
3200
2A00
3F80
6480
A7C0
2440
3FC0
2A40
3540
25C0
ENDCHAR
STARTCHAR uni507E
ENCODING 20606
SWIDTH 500 0
DWIDTH 6 0
BBX 10 10 0 -1
BITMAP
2200
3FC0
2A80
3FC0
6880
AF80
2880
2A80
2200
3DC0
ENDCHAR
STARTCHAR uni507F
ENCODING 20607
SWIDTH 500 0
DWIDTH 6 0
BBX 10 10 0 -1
BITMAP
5240
4A80
5FC0
5040
CF80
4000
5FC0
4400
4880
5F40
ENDCHAR
STARTCHAR uni5080
ENCODING 20608
SWIDTH 500 0
DWIDTH 6 0
BBX 10 10 0 -1
BITMAP
2400
2F80
2A80
6F80
AA80
2F80
2280
27C0
2A40
33C0
ENDCHAR
STARTCHAR uni5082
ENCODING 20610
SWIDTH 500 0
DWIDTH 6 0
BBX 10 10 0 -1
BITMAP
5F00
51C0
5100
57C0
D500
55C0
5400
6B80
5280
44C0
ENDCHAR
STARTCHAR uni5083
ENCODING 20611
SWIDTH 500 0
DWIDTH 6 0
BBX 10 10 0 -1
BITMAP
3FC0
2200
2F80
6280
AF00
2280
3F40
2200
2B80
3640
ENDCHAR
STARTCHAR uni5085
ENCODING 20613
SWIDTH 500 0
DWIDTH 6 0
BBX 10 10 0 -1
BITMAP
0280
3FC0
2A80
6F80
AA80
2F80
2280
3FC0
2880
2580
ENDCHAR
STARTCHAR uni5087
ENCODING 20615
SWIDTH 500 0
DWIDTH 6 0
BBX 10 10 0 -1
BITMAP
5FC0
4500
5FC0
4880
CF80
4880
4F80
4880
5FC0
4080
ENDCHAR
STARTCHAR uni5088
ENCODING 20616
SWIDTH 500 0
DWIDTH 6 0
BBX 10 10 0 -1
BITMAP
5FC0
4500
5FC0
5540
DFC0
4200
5FC0
4A80
5240
6240
ENDCHAR
STARTCHAR uni508B
ENCODING 20619
SWIDTH 500 0
DWIDTH 6 0
BBX 10 10 0 -1
BITMAP
3FC0
2500
2F80
6500
BFC0
2A80
2F80
2A80
3FC0
2980
ENDCHAR
STARTCHAR uni508C
ENCODING 20620
SWIDTH 500 0
DWIDTH 6 0
BBX 10 10 0 -1
BITMAP
2FC0
2A00
2F80
6A00
AF80
2A00
2FC0
2A40
3540
25C0
ENDCHAR
STARTCHAR uni508D
ENCODING 20621
SWIDTH 500 0
DWIDTH 6 0
BBX 10 10 0 -1
BITMAP
4200
4FC0
4500
DFC0
5240
5FC0
4400
4780
4880
5180
ENDCHAR
STARTCHAR uni508E
ENCODING 20622
SWIDTH 500 0
DWIDTH 6 0
BBX 10 10 0 -1
BITMAP
2200
3FC0
2880
6F80
A880
2F80
2880
3FC0
2500
38C0
ENDCHAR
STARTCHAR uni5091
ENCODING 20625
SWIDTH 500 0
DWIDTH 6 0
BBX 10 10 0 -1
BITMAP
2880
2FC0
3A80
65C0
AA80
3FC0
2200
2700
2A80
3240
ENDCHAR
STARTCHAR uni5092
ENCODING 20626
SWIDTH 500 0
DWIDTH 6 0
BBX 10 10 0 -1
BITMAP
3F80
2A40
2480
6F00
A480
2F40
2200
3FC0
2500
38C0
ENDCHAR
STARTCHAR uni5094
ENCODING 20628
SWIDTH 500 0
DWIDTH 6 0
BBX 10 10 0 -1
BITMAP
5100
4A00
7FC0
4A80
FFC0
4A80
5F80
4B00
5A80
6A40
ENDCHAR
STARTCHAR uni5095
ENCODING 20629
SWIDTH 500 0
DWIDTH 6 0
BBX 10 10 0 -1
BITMAP
4200
5FC0
5540
CFC0
4900
5FC0
4900
4FC0
4900
4FC0
ENDCHAR
STARTCHAR uni5096
ENCODING 20630
SWIDTH 500 0
DWIDTH 6 0
BBX 10 10 0 -1
BITMAP
2700
2880
3240
6F80
A880
2F80
2880
2FC0
3440
27C0
ENDCHAR
STARTCHAR uni5098
ENCODING 20632
SWIDTH 500 0
DWIDTH 6 0
BBX 10 10 0 -1
BITMAP
0C00
3300
C4C0
2500
5680
2500
5680
FFC0
0400
0400
ENDCHAR
STARTCHAR uni5099
ENCODING 20633
SWIDTH 500 0
DWIDTH 6 0
BBX 10 10 0 -1
BITMAP
4500
5FC0
4500
DFC0
4A40
5FC0
6A40
4FC0
4A40
4AC0
ENDCHAR
STARTCHAR uni509A
ENCODING 20634
SWIDTH 500 0
DWIDTH 6 0
BBX 10 10 0 -1
BITMAP
4900
7F00
55C0
6340
C540
5540
4940
5480
6540
4240
ENDCHAR
STARTCHAR uni509B
ENCODING 20635
SWIDTH 500 0
DWIDTH 6 0
BBX 10 10 0 -1
BITMAP
4200
5FC0
5040
4880
D740
4880
5FC0
4880
4F80
4880
ENDCHAR
STARTCHAR uni509C
ENCODING 20636
SWIDTH 500 0
DWIDTH 6 0
BBX 10 10 0 -1
BITMAP
2780
2880
3500
6A00
A400
2F80
2200
3FC0
2A80
2F80
ENDCHAR
STARTCHAR uni509D
ENCODING 20637
SWIDTH 500 0
DWIDTH 6 0
BBX 10 10 0 -1
BITMAP
4F80
4880
4F80
4880
DFC0
6440
5540
4CC0
7740
4CC0
ENDCHAR
STARTCHAR uni509E
ENCODING 20638
SWIDTH 500 0
DWIDTH 6 0
BBX 10 10 0 -1
BITMAP
4500
5FC0
4200
4F80
C200
5FC0
4800
5780
6200
4FC0
ENDCHAR
STARTCHAR uni50A2
ENCODING 20642
SWIDTH 500 0
DWIDTH 6 0
BBX 10 10 0 -1
BITMAP
4200
5FC0
5040
CF80
4440
5A80
4500
5B80
4540
5A40
ENDCHAR
STARTCHAR uni50A3
ENCODING 20643
SWIDTH 500 0
DWIDTH 6 0
BBX 10 10 0 -1
BITMAP
2200
2FC0
2200
7FC0
A400
3FC0
2A80
3740
2A80
3640
ENDCHAR
STARTCHAR uni50A5
ENCODING 20645
SWIDTH 500 0
DWIDTH 6 0
BBX 10 10 0 -1
BITMAP
3240
2A80
3FC0
7040
AF80
2880
2F80
2500
2940
30C0
ENDCHAR
STARTCHAR uni50A7
ENCODING 20647
SWIDTH 500 0
DWIDTH 6 0
BBX 10 10 0 -1
BITMAP
4200
5FC0
5040
CF00
4800
4F80
4900
5FC0
4480
5840
ENDCHAR
STARTCHAR uni50A8
ENCODING 20648
SWIDTH 500 0
DWIDTH 6 0
BBX 10 10 0 -1
BITMAP
6100
57C0
4140
F7C0
5100
53C0
5640
5BC0
5240
43C0
ENDCHAR
STARTCHAR uni50A9
ENCODING 20649
SWIDTH 500 0
DWIDTH 6 0
BBX 10 10 0 -1
BITMAP
4280
7BC0
4E80
4A80
EBC0
5280
53C0
6A80
4BC0
4200
ENDCHAR
STARTCHAR uni50AC
ENCODING 20652
SWIDTH 500 0
DWIDTH 6 0
BBX 10 10 0 -1
BITMAP
2940
2FC0
2500
6FC0
B900
2FC0
2900
2FC0
2900
2FC0
ENDCHAR
STARTCHAR uni50AD
ENCODING 20653
SWIDTH 500 0
DWIDTH 6 0
BBX 10 10 0 -1
BITMAP
5FC0
5280
5FC0
5280
DFC0
5240
5FC0
5240
7FC0
5240
ENDCHAR
STARTCHAR uni50AE
ENCODING 20654
SWIDTH 500 0
DWIDTH 6 0
BBX 10 10 0 -1
BITMAP
4500
7FC0
5540
DFC0
5540
5FC0
4880
4F80
4880
4F80
ENDCHAR
STARTCHAR uni50AF
ENCODING 20655
SWIDTH 500 0
DWIDTH 6 0
BBX 10 10 0 -1
BITMAP
2200
2FC0
2AC0
6F40
AAC0
2FC0
2280
2D40
3480
2380
ENDCHAR
STARTCHAR uni50B0
ENCODING 20656
SWIDTH 500 0
DWIDTH 6 0
BBX 10 10 0 -1
BITMAP
5240
5FC0
4000
DDC0
5540
5DC0
5540
5DC0
5540
66C0
ENDCHAR
STARTCHAR uni50B1
ENCODING 20657
SWIDTH 500 0
DWIDTH 6 0
BBX 10 10 0 -1
BITMAP
5480
6480
4B40
D000
7100
55C0
5500
5500
5B00
51C0
ENDCHAR
STARTCHAR uni50B2
ENCODING 20658
SWIDTH 500 0
DWIDTH 6 0
BBX 10 10 0 -1
BITMAP
4900
7F40
49C0
5F40
C940
7F40
5140
5C80
5540
6E40
ENDCHAR
STARTCHAR uni50B3
ENCODING 20659
SWIDTH 500 0
DWIDTH 6 0
BBX 10 10 0 -1
BITMAP
2200
3FC0
2A80
6F80
AA80
2F80
2280
3FC0
2880
2580
ENDCHAR
STARTCHAR uni50B4
ENCODING 20660
SWIDTH 500 0
DWIDTH 6 0
BBX 10 10 0 -1
BITMAP
2FC0
2B80
2A80
6B80
A800
2FC0
2D40
2FC0
2800
2FC0
ENDCHAR
STARTCHAR uni50B5
ENCODING 20661
SWIDTH 500 0
DWIDTH 6 0
BBX 10 10 0 -1
BITMAP
3FC0
2200
2F80
6200
BFC0
2880
2F80
2880
2F80
38C0
ENDCHAR
STARTCHAR uni50B6
ENCODING 20662
SWIDTH 500 0
DWIDTH 6 0
BBX 10 10 0 -1
BITMAP
4180
5FC0
5500
5700
D500
5F40
5540
5E80
5540
6E40
ENDCHAR
STARTCHAR uni50B7
ENCODING 20663
SWIDTH 500 0
DWIDTH 6 0
BBX 10 10 0 -1
BITMAP
2400
2FC0
3480
6780
A480
3FC0
2400
2FC0
3540
2AC0
ENDCHAR
STARTCHAR uni50B8
ENCODING 20664
SWIDTH 500 0
DWIDTH 6 0
BBX 10 10 0 -1
BITMAP
4200
5FC0
4200
5740
CA80
5740
4A80
5740
4500
58C0
ENDCHAR
STARTCHAR uni50BA
ENCODING 20666
SWIDTH 500 0
DWIDTH 6 0
BBX 10 10 0 -1
BITMAP
51C0
5F40
7480
4880
D740
6000
5FC0
4A80
5240
4600
ENDCHAR
STARTCHAR uni50BB
ENCODING 20667
SWIDTH 500 0
DWIDTH 6 0
BBX 10 10 0 -1
BITMAP
2200
2FC0
2B40
6FC0
A480
2A40
3780
2C80
2300
2CC0
ENDCHAR
STARTCHAR uni50BD
ENCODING 20669
SWIDTH 500 0
DWIDTH 6 0
BBX 10 10 0 -1
BITMAP
4200
5FC0
4500
5FC0
C880
4F80
4880
5FC0
4200
4200
ENDCHAR
STARTCHAR uni50BE
ENCODING 20670
SWIDTH 500 0
DWIDTH 6 0
BBX 10 10 0 -1
BITMAP
47C0
5100
53C0
DA40
53C0
5240
57C0
5A40
43C0
4640
ENDCHAR
STARTCHAR uni50BF
ENCODING 20671
SWIDTH 500 0
DWIDTH 6 0
BBX 10 10 0 -1
BITMAP
2FC0
2200
2B80
6A00
BFC0
2800
2FC0
2A40
3540
2580
ENDCHAR
STARTCHAR uni50C1
ENCODING 20673
SWIDTH 500 0
DWIDTH 6 0
BBX 10 10 0 -1
BITMAP
5FC0
5280
4B00
7FC0
CA80
5240
6280
4D40
5480
4380
ENDCHAR
STARTCHAR uni50C2
ENCODING 20674
SWIDTH 500 0
DWIDTH 6 0
BBX 10 10 0 -1
BITMAP
4F80
4A80
5FC0
CA80
5FC0
5240
5FC0
4500
4700
5CC0
ENDCHAR
STARTCHAR uni50C4
ENCODING 20676
SWIDTH 500 0
DWIDTH 6 0
BBX 10 10 0 -1
BITMAP
5FC0
4500
5FC0
5540
DFC0
4000
5FC0
4A80
5240
6640
ENDCHAR
STARTCHAR uni50C5
ENCODING 20677
SWIDTH 500 0
DWIDTH 6 0
BBX 10 10 0 -1
BITMAP
2500
3FC0
2500
6F80
AA80
3FC0
2200
2F80
2200
3FC0
ENDCHAR
STARTCHAR uni50C6
ENCODING 20678
SWIDTH 500 0
DWIDTH 6 0
BBX 10 10 0 -1
BITMAP
4100
6FC0
5540
47C0
F540
57C0
5100
57C0
5900
67C0
ENDCHAR
STARTCHAR uni50C7
ENCODING 20679
SWIDTH 500 0
DWIDTH 6 0
BBX 10 10 0 -1
BITMAP
3FC0
2B40
26C0
6B40
A500
3AC0
2100
2680
2100
2600
ENDCHAR
STARTCHAR uni50C8
ENCODING 20680
SWIDTH 500 0
DWIDTH 6 0
BBX 10 10 0 -1
BITMAP
4F80
4880
4F80
4880
DFC0
5540
5FC0
4480
4300
5CC0
ENDCHAR
STARTCHAR uni50C9
ENCODING 20681
SWIDTH 500 0
DWIDTH 6 0
BBX 9 10 0 -1
BITMAP
1C00
2200
DD80
0000
7700
5500
7700
2200
5500
8880
ENDCHAR
STARTCHAR uni50CA
ENCODING 20682
SWIDTH 500 0
DWIDTH 6 0
BBX 10 10 0 -1
BITMAP
5FC0
4500
5FC0
5540
FFC0
4880
5F40
6900
4840
47C0
ENDCHAR
STARTCHAR uni50CB
ENCODING 20683
SWIDTH 500 0
DWIDTH 6 0
BBX 10 10 0 -1
BITMAP
2700
2A80
3740
6100
AF80
2880
2F80
2880
2F80
38C0
ENDCHAR
STARTCHAR uni50CE
ENCODING 20686
SWIDTH 500 0
DWIDTH 6 0
BBX 10 10 0 -1
BITMAP
5DC0
5540
5DC0
D100
5540
5FC0
4500
5FC0
4500
58C0
ENDCHAR
STARTCHAR uni50CF
ENCODING 20687
SWIDTH 500 0
DWIDTH 6 0
BBX 10 10 0 -1
BITMAP
2780
2900
3FC0
6A40
AFC0
2A00
3540
2B80
3540
2A40
ENDCHAR
STARTCHAR uni50D1
ENCODING 20689
SWIDTH 500 0
DWIDTH 6 0
BBX 10 10 0 -1
BITMAP
4F80
4200
7FC0
CD80
5740
6000
5FC0
5540
5740
50C0
ENDCHAR
STARTCHAR uni50D3
ENCODING 20691
SWIDTH 500 0
DWIDTH 6 0
BBX 10 10 0 -1
BITMAP
4200
4F80
4A80
5FC0
C880
4F80
4880
4F80
4500
58C0
ENDCHAR
STARTCHAR uni50D4
ENCODING 20692
SWIDTH 500 0
DWIDTH 6 0
BBX 10 10 0 -1
BITMAP
4880
5FC0
4500
5FC0
D540
5FC0
5080
5FC0
4880
4580
ENDCHAR
STARTCHAR uni50D5
ENCODING 20693
SWIDTH 500 0
DWIDTH 6 0
BBX 10 10 0 -1
BITMAP
3540
2D80
3FC0
6500
BFC0
2200
3FC0
2200
2500
38C0
ENDCHAR
STARTCHAR uni50D6
ENCODING 20694
SWIDTH 500 0
DWIDTH 6 0
BBX 10 10 0 -1
BITMAP
4200
5FC0
4200
DFC0
4880
4F80
4500
5FC0
4880
4F80
ENDCHAR
STARTCHAR uni50D7
ENCODING 20695
SWIDTH 500 0
DWIDTH 6 0
BBX 10 10 0 -1
BITMAP
4B40
5D80
6900
D680
4240
5FC0
5440
4F80
4480
5980
ENDCHAR
STARTCHAR uni50DA
ENCODING 20698
SWIDTH 500 0
DWIDTH 6 0
BBX 10 10 0 -1
BITMAP
2200
3FC0
3540
6F80
B8C0
2F80
2880
2F80
2A80
3640
ENDCHAR
STARTCHAR uni50DB
ENCODING 20699
SWIDTH 500 0
DWIDTH 6 0
BBX 10 10 0 -1
BITMAP
5500
7FC0
54C0
5C80
D480
5C80
5480
7E80
5540
6240
ENDCHAR
STARTCHAR uni50DD
ENCODING 20701
SWIDTH 500 0
DWIDTH 6 0
BBX 10 10 0 -1
BITMAP
5FC0
5040
5FC0
D7C0
5200
5FC0
5480
5FC0
6480
4D80
ENDCHAR
STARTCHAR uni50E0
ENCODING 20704
SWIDTH 500 0
DWIDTH 6 0
BBX 10 10 0 -1
BITMAP
5FC0
5240
4A80
7FC0
CA80
5FC0
6A80
4F80
4A80
4F80
ENDCHAR
STARTCHAR uni50E3
ENCODING 20707
SWIDTH 500 0
DWIDTH 6 0
BBX 10 10 0 -1
BITMAP
4880
5DC0
4880
7FC0
D540
6F80
4880
4F80
4880
4F80
ENDCHAR
STARTCHAR uni50E4
ENCODING 20708
SWIDTH 500 0
DWIDTH 6 0
BBX 10 10 0 -1
BITMAP
5DC0
5540
5DC0
C000
4F80
4A80
4F80
4A80
5FC0
4200
ENDCHAR
STARTCHAR uni50E5
ENCODING 20709
SWIDTH 500 0
DWIDTH 6 0
BBX 10 10 0 -1
BITMAP
4200
4F80
4200
5FC0
C880
5DC0
4880
5FC0
4900
71C0
ENDCHAR
STARTCHAR uni50E6
ENCODING 20710
SWIDTH 500 0
DWIDTH 6 0
BBX 10 10 0 -1
BITMAP
4980
5D40
43C0
5D00
D500
5D80
4980
5D80
6A80
4CC0
ENDCHAR
STARTCHAR uni50E7
ENCODING 20711
SWIDTH 500 0
DWIDTH 6 0
BBX 10 10 0 -1
BITMAP
4880
5FC0
5240
D540
5FC0
4880
4F80
4880
4F80
4880
ENDCHAR
STARTCHAR uni50E8
ENCODING 20712
SWIDTH 500 0
DWIDTH 6 0
BBX 10 10 0 -1
BITMAP
4200
5FC0
4A80
DFC0
4880
4F80
4880
4F80
4500
58C0
ENDCHAR
STARTCHAR uni50E9
ENCODING 20713
SWIDTH 500 0
DWIDTH 6 0
BBX 10 10 0 -1
BITMAP
5DC0
5540
5DC0
5540
DFC0
5540
5740
5540
5740
55C0
ENDCHAR
STARTCHAR uni50EA
ENCODING 20714
SWIDTH 500 0
DWIDTH 6 0
BBX 10 10 0 -1
BITMAP
4F80
4500
5FC0
CA80
5FC0
5540
5FC0
5540
5740
50C0
ENDCHAR
STARTCHAR uni50EC
ENCODING 20716
SWIDTH 500 0
DWIDTH 6 0
BBX 10 10 0 -1
BITMAP
2500
2FC0
2900
7FC0
A900
2FC0
2900
2FC0
2A80
3540
ENDCHAR
STARTCHAR uni50ED
ENCODING 20717
SWIDTH 500 0
DWIDTH 6 0
BBX 10 10 0 -1
BITMAP
5DC0
6A80
7FC0
C880
5540
6F80
4880
4F80
4880
4F80
ENDCHAR
STARTCHAR uni50EE
ENCODING 20718
SWIDTH 500 0
DWIDTH 6 0
BBX 10 10 0 -1
BITMAP
2200
3FC0
2500
7FC0
AA80
2F80
2A80
3FC0
2200
3FC0
ENDCHAR
STARTCHAR uni50EF
ENCODING 20719
SWIDTH 500 0
DWIDTH 6 0
BBX 10 10 0 -1
BITMAP
5240
4A80
5FC0
4A80
D240
4C80
57C0
4C80
4BC0
5080
ENDCHAR
STARTCHAR uni50F0
ENCODING 20720
SWIDTH 500 0
DWIDTH 6 0
BBX 10 10 0 -1
BITMAP
1100
FFC0
5540
5540
3B80
5540
1500
0A00
1100
60C0
ENDCHAR
STARTCHAR uni50F1
ENCODING 20721
SWIDTH 500 0
DWIDTH 6 0
BBX 10 10 0 -1
BITMAP
4200
5FC0
5040
5FC0
D500
5FC0
5500
57C0
5500
67C0
ENDCHAR
STARTCHAR uni50F3
ENCODING 20723
SWIDTH 500 0
DWIDTH 6 0
BBX 10 10 0 -1
BITMAP
5FC0
4500
5FC0
D540
5FC0
4A40
4680
5FC0
4A80
5240
ENDCHAR
STARTCHAR uni50F5
ENCODING 20725
SWIDTH 500 0
DWIDTH 6 0
BBX 10 10 0 -1
BITMAP
3FC0
2A80
2A80
6F80
AA80
3FC0
2A80
2F80
2A80
3FC0
ENDCHAR
STARTCHAR uni50F6
ENCODING 20726
SWIDTH 500 0
DWIDTH 6 0
BBX 10 10 0 -1
BITMAP
5FC0
5540
5DC0
D540
5DC0
5540
5DC0
4500
4540
43C0
ENDCHAR
STARTCHAR uni50F8
ENCODING 20728
SWIDTH 500 0
DWIDTH 6 0
BBX 10 10 0 -1
BITMAP
4880
7DC0
4880
DDC0
6A80
5FC0
4000
7FC0
4A80
7640
ENDCHAR
STARTCHAR uni50F9
ENCODING 20729
SWIDTH 500 0
DWIDTH 6 0
BBX 10 10 0 -1
BITMAP
5FC0
4500
5FC0
5540
DFC0
4880
4F80
4880
4F80
58C0
ENDCHAR
STARTCHAR uni50FB
ENCODING 20731
SWIDTH 500 0
DWIDTH 6 0
BBX 10 10 0 -1
BITMAP
5C80
57C0
5540
5C80
D3C0
5C80
55C0
7480
5C80
4080
ENDCHAR
STARTCHAR uni50FD
ENCODING 20733
SWIDTH 500 0
DWIDTH 6 0
BBX 10 10 0 -1
BITMAP
5C80
4A80
7EC0
4A80
DD40
6A40
4680
5540
6480
4780
ENDCHAR
STARTCHAR uni50FE
ENCODING 20734
SWIDTH 500 0
DWIDTH 6 0
BBX 10 10 0 -1
BITMAP
5FC0
4A80
5FC0
5280
CD40
5780
4480
4C80
4300
5CC0
ENDCHAR
STARTCHAR uni50FF
ENCODING 20735
SWIDTH 500 0
DWIDTH 6 0
BBX 10 10 0 -1
BITMAP
4200
5FC0
5540
4F80
C500
5FC0
4A80
5740
4200
5FC0
ENDCHAR
STARTCHAR uni5100
ENCODING 20736
SWIDTH 500 0
DWIDTH 6 0
BBX 10 10 0 -1
BITMAP
2500
3FC0
2200
7FC0
A540
3FC0
2500
3F40
2480
2D40
ENDCHAR
STARTCHAR uni5102
ENCODING 20738
SWIDTH 500 0
DWIDTH 6 0
BBX 10 10 0 -1
BITMAP
4500
5FC0
5540
5FC0
D540
5FC0
5000
5FC0
6A80
4DC0
ENDCHAR
STARTCHAR uni5103
ENCODING 20739
SWIDTH 500 0
DWIDTH 6 0
BBX 10 10 0 -1
BITMAP
4200
7FC0
5540
5740
D040
5FC0
4880
4F80
4880
5FC0
ENDCHAR
STARTCHAR uni5104
ENCODING 20740
SWIDTH 500 0
DWIDTH 6 0
BBX 10 10 0 -1
BITMAP
4200
5FC0
4500
DFC0
4880
4F80
4880
4F80
5A80
6740
ENDCHAR
STARTCHAR uni5105
ENCODING 20741
SWIDTH 500 0
DWIDTH 6 0
BBX 10 10 0 -1
BITMAP
5240
4A80
5FC0
5540
C500
5FC0
5240
5FC0
5240
5FC0
ENDCHAR
STARTCHAR uni5106
ENCODING 20742
SWIDTH 500 0
DWIDTH 6 0
BBX 10 10 0 -1
BITMAP
5500
7F00
51C0
DF40
6540
5D40
5540
5C80
4540
4E40
ENDCHAR
STARTCHAR uni5107
ENCODING 20743
SWIDTH 500 0
DWIDTH 6 0
BBX 10 10 0 -1
BITMAP
5FC0
5540
5FC0
4000
DFC0
4880
4F80
4540
4C80
5640
ENDCHAR
STARTCHAR uni5108
ENCODING 20744
SWIDTH 500 0
DWIDTH 6 0
BBX 10 10 0 -1
BITMAP
4700
58C0
4700
DFC0
5540
5FC0
4880
4F80
4880
4F80
ENDCHAR
STARTCHAR uni5109
ENCODING 20745
SWIDTH 500 0
DWIDTH 6 0
BBX 10 10 0 -1
BITMAP
4700
58C0
4700
C000
5DC0
5540
5DC0
4880
5540
6240
ENDCHAR
STARTCHAR uni510A
ENCODING 20746
SWIDTH 500 0
DWIDTH 6 0
BBX 10 10 0 -1
BITMAP
4880
5FC0
4880
5DC0
EA80
5FC0
4A40
4B80
4A00
57C0
ENDCHAR
STARTCHAR uni510B
ENCODING 20747
SWIDTH 500 0
DWIDTH 6 0
BBX 10 10 0 -1
BITMAP
2780
2900
3FC0
6A80
AD40
2FC0
2800
2FC0
3440
27C0
ENDCHAR
STARTCHAR uni510C
ENCODING 20748
SWIDTH 500 0
DWIDTH 6 0
BBX 10 10 0 -1
BITMAP
4900
5D00
55C0
5F40
D540
7F40
5140
5C80
5540
6A40
ENDCHAR
STARTCHAR uni5110
ENCODING 20752
SWIDTH 500 0
DWIDTH 6 0
BBX 10 10 0 -1
BITMAP
4200
5FC0
5540
4A00
DF80
4880
4F80
4880
4F80
58C0
ENDCHAR
STARTCHAR uni5111
ENCODING 20753
SWIDTH 500 0
DWIDTH 6 0
BBX 10 10 0 -1
BITMAP
2FC0
2840
2FC0
6840
AFC0
2880
3540
2DC0
2A80
3540
ENDCHAR
STARTCHAR uni5112
ENCODING 20754
SWIDTH 500 0
DWIDTH 6 0
BBX 10 10 0 -1
BITMAP
5FC0
4200
5FC0
5240
C500
5FC0
4400
5FC0
5540
5540
ENDCHAR
STARTCHAR uni5113
ENCODING 20755
SWIDTH 500 0
DWIDTH 6 0
BBX 10 10 0 -1
BITMAP
4200
5FC0
4200
5FC0
C880
5FC0
5540
4F80
4200
5FC0
ENDCHAR
STARTCHAR uni5114
ENCODING 20756
SWIDTH 500 0
DWIDTH 6 0
BBX 10 10 0 -1
BITMAP
4200
5F80
4200
7FC0
C240
5F80
4080
7FC0
5680
5D80
ENDCHAR
STARTCHAR uni5115
ENCODING 20757
SWIDTH 500 0
DWIDTH 6 0
BBX 10 10 0 -1
BITMAP
4200
7FC0
5500
5580
EA40
4A80
4F80
4880
4F80
5080
ENDCHAR
STARTCHAR uni5117
ENCODING 20759
SWIDTH 500 0
DWIDTH 6 0
BBX 10 10 0 -1
BITMAP
53C0
5D40
5080
5FC0
D140
7D00
55C0
7D00
5700
68C0
ENDCHAR
STARTCHAR uni5118
ENCODING 20760
SWIDTH 500 0
DWIDTH 6 0
BBX 10 10 0 -1
BITMAP
2F80
2280
3FC0
6280
BFC0
2A80
3540
2F80
2A80
3FC0
ENDCHAR
STARTCHAR uni511A
ENCODING 20762
SWIDTH 500 0
DWIDTH 6 0
BBX 10 10 0 -1
BITMAP
5FC0
4500
5FC0
D540
5FC0
5440
4F80
5500
4200
4C00
ENDCHAR
STARTCHAR uni511C
ENCODING 20764
SWIDTH 500 0
DWIDTH 6 0
BBX 10 10 0 -1
BITMAP
4200
5FC0
5540
4F80
D040
4F80
4A80
5FC0
4200
4600
ENDCHAR
STARTCHAR uni511F
ENCODING 20767
SWIDTH 500 0
DWIDTH 6 0
BBX 10 10 0 -1
BITMAP
2A80
3FC0
3540
6F80
A880
2F80
2880
2F80
2500
38C0
ENDCHAR
STARTCHAR uni5120
ENCODING 20768
SWIDTH 500 0
DWIDTH 6 0
BBX 10 10 0 -1
BITMAP
4540
4A80
5FC0
5540
DFC0
4900
5680
5B80
5680
5B40
ENDCHAR
STARTCHAR uni5121
ENCODING 20769
SWIDTH 500 0
DWIDTH 6 0
BBX 10 10 0 -1
BITMAP
4F80
4A80
4F80
4A80
DFC0
5540
5FC0
5540
5FC0
5040
ENDCHAR
STARTCHAR uni5122
ENCODING 20770
SWIDTH 500 0
DWIDTH 6 0
BBX 10 10 0 -1
BITMAP
4780
4400
5FC0
5540
DF00
5500
5F80
5540
5C80
6780
ENDCHAR
STARTCHAR uni5124
ENCODING 20772
SWIDTH 500 0
DWIDTH 6 0
BBX 10 10 0 -1
BITMAP
2F80
2880
2F80
6500
BFC0
2500
2A80
3740
2A80
3640
ENDCHAR
STARTCHAR uni5125
ENCODING 20773
SWIDTH 500 0
DWIDTH 6 0
BBX 10 10 0 -1
BITMAP
5FC0
4200
5FC0
D540
5FC0
4880
4F80
4880
4F80
58C0
ENDCHAR
STARTCHAR uni5126
ENCODING 20774
SWIDTH 500 0
DWIDTH 6 0
BBX 10 10 0 -1
BITMAP
4200
5FC0
5540
5FC0
D480
56C0
5480
56C0
5A80
6540
ENDCHAR
STARTCHAR uni5129
ENCODING 20777
SWIDTH 500 0
DWIDTH 6 0
BBX 10 10 0 -1
BITMAP
7BC0
4A40
7BC0
4A40
FBC0
4A00
7FC0
5540
6A40
44C0
ENDCHAR
STARTCHAR uni512A
ENCODING 20778
SWIDTH 500 0
DWIDTH 6 0
BBX 10 10 0 -1
BITMAP
5FC0
4880
4F80
C880
5FC0
5540
4F80
5480
4300
4CC0
ENDCHAR
STARTCHAR uni512D
ENCODING 20781
SWIDTH 500 0
DWIDTH 6 0
BBX 10 10 0 -1
BITMAP
49C0
7F40
55C0
7F40
C9C0
7F40
49C0
5C80
6980
5AC0
ENDCHAR
STARTCHAR uni512E
ENCODING 20782
SWIDTH 500 0
DWIDTH 6 0
BBX 10 10 0 -1
BITMAP
5FC0
5480
5FC0
D480
5FC0
5480
5100
55C0
6500
5FC0
ENDCHAR
STARTCHAR uni5130
ENCODING 20784
SWIDTH 500 0
DWIDTH 6 0
BBX 10 10 0 -1
BITMAP
4500
5FC0
4500
5F00
C500
4F80
5480
6FC0
4A40
55C0
ENDCHAR
STARTCHAR uni5131
ENCODING 20785
SWIDTH 500 0
DWIDTH 6 0
BBX 10 10 0 -1
BITMAP
4900
7DC0
5500
7DC0
D440
5DC0
5500
5DC0
5500
55C0
ENDCHAR
STARTCHAR uni5132
ENCODING 20786
SWIDTH 500 0
DWIDTH 6 0
BBX 10 10 0 -1
BITMAP
5100
7BC0
4140
7BC0
C100
7BC0
4640
7BC0
4A40
7BC0
ENDCHAR
STARTCHAR uni5133
ENCODING 20787
SWIDTH 500 0
DWIDTH 6 0
BBX 10 10 0 -1
BITMAP
2780
2900
3FC0
6940
AFC0
2500
3FC0
2A80
2F80
39C0
ENDCHAR
STARTCHAR uni5134
ENCODING 20788
SWIDTH 500 0
DWIDTH 6 0
BBX 10 10 0 -1
BITMAP
5FC0
5540
5DC0
C500
5FC0
4500
5FC0
4A40
5980
4CC0
ENDCHAR
STARTCHAR uni5135
ENCODING 20789
SWIDTH 500 0
DWIDTH 6 0
BBX 10 10 0 -1
BITMAP
47C0
4A80
5100
57C0
DEC0
5540
57C0
5100
4FC0
5540
ENDCHAR
STARTCHAR uni5137
ENCODING 20791
SWIDTH 500 0
DWIDTH 6 0
BBX 10 10 0 -1
BITMAP
5FC0
5B40
56C0
DFC0
5540
5FC0
5480
56C0
5480
66C0
ENDCHAR
STARTCHAR uni5138
ENCODING 20792
SWIDTH 500 0
DWIDTH 6 0
BBX 10 10 0 -1
BITMAP
5FC0
5540
5FC0
4A80
D680
4BC0
5680
7BC0
5680
6BC0
ENDCHAR
STARTCHAR uni5139
ENCODING 20793
SWIDTH 500 0
DWIDTH 6 0
BBX 10 10 0 -1
BITMAP
4A80
7FC0
4A80
FFC0
5280
7FC0
5480
5280
5F80
70C0
ENDCHAR
STARTCHAR uni513A
ENCODING 20794
SWIDTH 500 0
DWIDTH 6 0
BBX 10 10 0 -1
BITMAP
5500
7E80
57C0
7E80
EBC0
7E80
4BC0
7E80
53C0
6A00
ENDCHAR
STARTCHAR uni513B
ENCODING 20795
SWIDTH 500 0
DWIDTH 6 0
BBX 10 10 0 -1
BITMAP
4A80
5FC0
5540
4500
DFC0
5540
5FC0
4200
5FC0
5540
ENDCHAR
STARTCHAR uni513C
ENCODING 20796
SWIDTH 500 0
DWIDTH 6 0
BBX 10 10 0 -1
BITMAP
5DC0
5540
5FC0
5500
DFC0
5240
5E40
5340
5E80
6340
ENDCHAR
STARTCHAR uni513D
ENCODING 20797
SWIDTH 500 0
DWIDTH 6 0
BBX 10 10 0 -1
BITMAP
4F80
4A80
5FC0
D540
5FC0
4480
4F00
4480
4F80
5240
ENDCHAR
STARTCHAR uni513F
ENCODING 20799
SWIDTH 500 0
DWIDTH 6 0
BBX 10 10 0 -1
BITMAP
1200
1200
1200
1200
1200
1200
1200
2240
4240
81C0
ENDCHAR
STARTCHAR uni5140
ENCODING 20800
SWIDTH 500 0
DWIDTH 6 0
BBX 10 10 0 -1
BITMAP
7FC0
1200
1200
1200
1200
1200
1200
2240
4240
81C0
ENDCHAR
STARTCHAR uni5141
ENCODING 20801
SWIDTH 500 0
DWIDTH 6 0
BBX 9 10 0 -1
BITMAP
1800
1000
2100
FE80
1480
1400
1400
2480
4480
8380
ENDCHAR
STARTCHAR uni5143
ENCODING 20803
SWIDTH 500 0
DWIDTH 6 0
BBX 10 10 0 -1
BITMAP
3F80
0000
0000
FFC0
1200
1200
1200
1240
2240
C1C0
ENDCHAR
STARTCHAR uni5144
ENCODING 20804
SWIDTH 500 0
DWIDTH 6 0
BBX 9 10 0 -1
BITMAP
7F00
4100
4100
4100
7F00
5500
1400
2480
4480
8380
ENDCHAR
STARTCHAR uni5145
ENCODING 20805
SWIDTH 500 0
DWIDTH 6 0
BBX 9 10 0 -1
BITMAP
0900
FF80
1000
2200
7F00
1480
1400
1400
2480
C380
ENDCHAR
STARTCHAR uni5146
ENCODING 20806
SWIDTH 500 0
DWIDTH 6 0
BBX 9 10 0 -1
BITMAP
1400
9480
5500
5600
1400
3600
D500
2480
4480
8380
ENDCHAR
STARTCHAR uni5147
ENCODING 20807
SWIDTH 500 0
DWIDTH 6 0
BBX 9 10 0 -1
BITMAP
5500
4900
5500
4100
7F00
5500
1400
2480
4480
8380
ENDCHAR
STARTCHAR uni5148
ENCODING 20808
SWIDTH 500 0
DWIDTH 6 0
BBX 9 10 0 -1
BITMAP
4800
7F00
8800
0800
FF80
1400
1400
2480
4480
8380
ENDCHAR
STARTCHAR uni5149
ENCODING 20809
SWIDTH 500 0
DWIDTH 6 0
BBX 9 10 0 -1
BITMAP
4900
2900
2A00
0800
FF80
1400
1400
2480
4480
8380
ENDCHAR
STARTCHAR uni514B
ENCODING 20811
SWIDTH 500 0
DWIDTH 6 0
BBX 9 10 0 -1
BITMAP
0800
FF80
0800
7F00
4100
7F00
1400
1480
2480
C380
ENDCHAR
STARTCHAR uni514C
ENCODING 20812
SWIDTH 500 0
DWIDTH 6 0
BBX 9 10 0 -1
BITMAP
2200
1400
7F00
4100
4100
7F00
1400
1480
2480
C380
ENDCHAR
STARTCHAR uni514D
ENCODING 20813
SWIDTH 500 0
DWIDTH 6 0
BBX 10 10 0 -1
BITMAP
1000
1F00
2200
7F80
A480
3F80
2A80
0A00
1240
61C0
ENDCHAR
STARTCHAR uni5151
ENCODING 20817
SWIDTH 500 0
DWIDTH 6 0
BBX 9 10 0 -1
BITMAP
2200
1400
7F00
4100
4100
7F00
1400
1480
2480
C380
ENDCHAR
STARTCHAR uni5152
ENCODING 20818
SWIDTH 500 0
DWIDTH 6 0
BBX 9 10 0 -1
BITMAP
7700
4100
7700
4100
7F00
5500
1400
1480
2480
C380
ENDCHAR
STARTCHAR uni5154
ENCODING 20820
SWIDTH 500 0
DWIDTH 6 0
BBX 10 10 0 -1
BITMAP
1000
1F00
2200
7F80
A480
3F80
2B00
0A80
1240
61C0
ENDCHAR
STARTCHAR uni5155
ENCODING 20821
SWIDTH 500 0
DWIDTH 6 0
BBX 10 10 0 -1
BITMAP
7380
5280
5E80
4080
7F80
5280
1200
1240
2240
C1C0
ENDCHAR
STARTCHAR uni5156
ENCODING 20822
SWIDTH 500 0
DWIDTH 6 0
BBX 9 10 0 -1
BITMAP
0800
FF80
2200
D180
2200
7F00
1500
1400
2480
C380
ENDCHAR
STARTCHAR uni5157
ENCODING 20823
SWIDTH 500 0
DWIDTH 6 0
BBX 9 10 0 -1
BITMAP
0800
FF80
2200
7F00
A280
3E00
1400
1480
2480
C380
ENDCHAR
STARTCHAR uni5159
ENCODING 20825
SWIDTH 500 0
DWIDTH 6 0
BBX 10 10 0 -1
BITMAP
2100
F900
27C0
F900
8900
F900
1100
3140
5040
8FC0
ENDCHAR
STARTCHAR uni515A
ENCODING 20826
SWIDTH 500 0
DWIDTH 6 0
BBX 9 10 0 -1
BITMAP
4900
2A00
FF80
8080
3E00
2200
3E00
1480
2480
C380
ENDCHAR
STARTCHAR uni515B
ENCODING 20827
SWIDTH 500 0
DWIDTH 6 0
BBX 10 10 0 -1
BITMAP
20C0
FF00
2100
FFC0
8900
F900
1100
3140
5040
8FC0
ENDCHAR
STARTCHAR uni515C
ENCODING 20828
SWIDTH 500 0
DWIDTH 6 0
BBX 9 10 0 -1
BITMAP
C980
9C80
9480
9C80
F780
9C80
0000
1400
2480
C780
ENDCHAR
STARTCHAR uni515D
ENCODING 20829
SWIDTH 500 0
DWIDTH 6 0
BBX 10 10 0 -1
BITMAP
2280
FA80
2440
F800
8FC0
FA40
5240
5580
5040
8FC0
ENDCHAR
STARTCHAR uni515E
ENCODING 20830
SWIDTH 500 0
DWIDTH 6 0
BBX 10 10 0 -1
BITMAP
23C0
F900
23C0
F900
8BC0
F900
5140
51C0
5040
8FC0
ENDCHAR
STARTCHAR uni515F
ENCODING 20831
SWIDTH 500 0
DWIDTH 6 0
BBX 10 10 0 -1
BITMAP
A500
A500
FFC0
2500
FFC0
5280
5280
5A80
5480
88C0
ENDCHAR
STARTCHAR uni5161
ENCODING 20833
SWIDTH 500 0
DWIDTH 6 0
BBX 10 10 0 -1
BITMAP
27C0
F900
23C0
FA40
8BC0
FA40
53C0
5000
5040
8FC0
ENDCHAR
STARTCHAR uni5162
ENCODING 20834
SWIDTH 500 0
DWIDTH 6 0
BBX 10 10 0 -1
BITMAP
2100
FFC0
2100
7BC0
4A40
7BC0
1280
3A80
5480
88C0
ENDCHAR
STARTCHAR uni5163
ENCODING 20835
SWIDTH 500 0
DWIDTH 6 0
BBX 10 10 0 -1
BITMAP
4FC0
EA80
4F80
EA80
AF80
EA00
4F80
5200
6780
9FC0
ENDCHAR
STARTCHAR uni5165
ENCODING 20837
SWIDTH 500 0
DWIDTH 6 0
BBX 9 10 0 -1
BITMAP
3000
0800
0800
0800
0800
0800
1400
2200
4100
8080
ENDCHAR
STARTCHAR uni5167
ENCODING 20839
SWIDTH 500 0
DWIDTH 6 0
BBX 9 10 0 -1
BITMAP
0800
0800
FF80
8880
8880
9480
A280
C280
8080
8180
ENDCHAR
STARTCHAR uni5168
ENCODING 20840
SWIDTH 500 0
DWIDTH 6 0
BBX 9 10 0 -1
BITMAP
0800
1400
2200
C180
3E00
0800
7F00
0800
0800
FF80
ENDCHAR
STARTCHAR uni5169
ENCODING 20841
SWIDTH 500 0
DWIDTH 6 0
BBX 9 10 0 -1
BITMAP
FF80
0800
FF80
8880
CC80
AA80
AA80
DD80
8880
8380
ENDCHAR
STARTCHAR uni516B
ENCODING 20843
SWIDTH 500 0
DWIDTH 6 0
BBX 10 10 0 -1
BITMAP
0600
0200
1200
1200
1100
2100
2080
4080
4040
8040
ENDCHAR
STARTCHAR uni516C
ENCODING 20844
SWIDTH 500 0
DWIDTH 6 0
BBX 10 10 0 -1
BITMAP
1200
1200
2100
4480
8840
0800
1000
2100
7F80
2080
ENDCHAR
STARTCHAR uni516D
ENCODING 20845
SWIDTH 500 0
DWIDTH 6 0
BBX 10 10 0 -1
BITMAP
0800
0400
FFC0
0000
0000
1200
1100
2080
4040
8040
ENDCHAR
STARTCHAR uni516E
ENCODING 20846
SWIDTH 500 0
DWIDTH 6 0
BBX 10 10 0 -1
BITMAP
1200
1200
2100
5E80
8840
1000
3F00
0100
0100
0E00
ENDCHAR
STARTCHAR uni5170
ENCODING 20848
SWIDTH 500 0
DWIDTH 6 0
BBX 10 10 0 -1
BITMAP
2100
1200
1200
7F80
0000
0000
3F00
0000
0000
FFC0
ENDCHAR
STARTCHAR uni5171
ENCODING 20849
SWIDTH 500 0
DWIDTH 6 0
BBX 10 10 0 -1
BITMAP
1200
1200
7F80
1200
1200
1200
FFC0
0000
3300
C0C0
ENDCHAR
STARTCHAR uni5173
ENCODING 20851
SWIDTH 500 0
DWIDTH 6 0
BBX 9 10 0 -1
BITMAP
2200
1400
7F00
0800
0800
FF80
0800
1400
2200
C180
ENDCHAR
STARTCHAR uni5174
ENCODING 20852
SWIDTH 500 0
DWIDTH 6 0
BBX 9 10 0 -1
BITMAP
1100
8900
4A00
4200
0400
FF80
0000
2200
4100
8080
ENDCHAR
STARTCHAR uni5175
ENCODING 20853
SWIDTH 500 0
DWIDTH 6 0
BBX 9 10 0 -1
BITMAP
2300
3C00
2000
3F00
2400
2400
FF80
0000
3600
C180
ENDCHAR
STARTCHAR uni5176
ENCODING 20854
SWIDTH 500 0
DWIDTH 6 0
BBX 9 10 0 -1
BITMAP
2200
FF80
2200
3E00
2200
3E00
2200
FF80
2200
C180
ENDCHAR
STARTCHAR uni5177
ENCODING 20855
SWIDTH 500 0
DWIDTH 6 0
BBX 10 10 0 -1
BITMAP
3F00
2100
3F00
2100
3D00
2700
2100
FFC0
2100
C0C0
ENDCHAR
STARTCHAR uni5178
ENCODING 20856
SWIDTH 500 0
DWIDTH 6 0
BBX 9 10 0 -1
BITMAP
1400
1400
7F00
5500
7F00
5500
FF80
0000
3600
C180
ENDCHAR
STARTCHAR uni5179
ENCODING 20857
SWIDTH 500 0
DWIDTH 6 0
BBX 9 10 0 -1
BITMAP
4200
2400
FF80
4200
9480
EF00
2200
5480
BD80
D680
ENDCHAR
STARTCHAR uni517B
ENCODING 20859
SWIDTH 500 0
DWIDTH 6 0
BBX 10 10 0 -1
BITMAP
1100
7F80
0400
3F00
0800
FFC0
5280
9240
2200
4200
ENDCHAR
STARTCHAR uni517C
ENCODING 20860
SWIDTH 500 0
DWIDTH 6 0
BBX 9 10 0 -1
BITMAP
2200
FF80
1500
FF80
1500
7F00
1400
3600
5500
9480
ENDCHAR
STARTCHAR uni517D
ENCODING 20861
SWIDTH 500 0
DWIDTH 6 0
BBX 9 10 0 -1
BITMAP
1400
7F00
4900
7F00
4900
FF80
0000
7F00
4100
7F00
ENDCHAR
STARTCHAR uni5180
ENCODING 20864
SWIDTH 500 0
DWIDTH 6 0
BBX 9 10 0 -1
BITMAP
F780
1400
F780
7F00
4900
7F00
4900
FF80
2400
C380
ENDCHAR
STARTCHAR uni5181
ENCODING 20865
SWIDTH 500 0
DWIDTH 6 0
BBX 10 10 0 -1
BITMAP
8FC0
5840
FFC0
AA80
FFC0
AA80
FFC0
2540
F480
2640
ENDCHAR
STARTCHAR uni5182
ENCODING 20866
SWIDTH 500 0
DWIDTH 6 0
BBX 9 10 0 -1
BITMAP
FF80
8080
8080
8080
8080
8080
8080
8080
8080
8180
ENDCHAR
STARTCHAR uni5185
ENCODING 20869
SWIDTH 500 0
DWIDTH 6 0
BBX 9 10 0 -1
BITMAP
0800
0800
FF80
8880
8880
9480
9280
A080
8080
8180
ENDCHAR
STARTCHAR uni5187
ENCODING 20871
SWIDTH 500 0
DWIDTH 6 0
BBX 9 10 0 -1
BITMAP
1000
FF80
2000
3F00
6100
A100
2100
2100
2100
2300
ENDCHAR
STARTCHAR uni5188
ENCODING 20872
SWIDTH 500 0
DWIDTH 6 0
BBX 9 10 0 -1
BITMAP
FF80
8080
A280
9480
8880
9480
A280
8280
8080
8380
ENDCHAR
STARTCHAR uni5189
ENCODING 20873
SWIDTH 500 0
DWIDTH 6 0
BBX 9 10 0 -1
BITMAP
0800
7F00
4900
7F00
4900
4900
FF80
4100
4100
4300
ENDCHAR
STARTCHAR uni518A
ENCODING 20874
SWIDTH 500 0
DWIDTH 6 0
BBX 9 10 0 -1
BITMAP
7F00
5500
5500
5500
FF80
5500
5500
5500
5500
4300
ENDCHAR
STARTCHAR uni518C
ENCODING 20876
SWIDTH 500 0
DWIDTH 6 0
BBX 10 10 0 -1
BITMAP
3B80
2A80
2A80
2A80
FFC0
2A80
2A80
2A80
4A80
9D80
ENDCHAR
STARTCHAR uni518D
ENCODING 20877
SWIDTH 500 0
DWIDTH 6 0
BBX 9 10 0 -1
BITMAP
FF80
0800
7F00
4900
7F00
4900
FF80
4100
4100
4300
ENDCHAR
STARTCHAR uni518F
ENCODING 20879
SWIDTH 500 0
DWIDTH 6 0
BBX 9 10 0 -1
BITMAP
FF80
9480
9280
A180
DC80
9480
9480
9C80
8080
8380
ENDCHAR
STARTCHAR uni5191
ENCODING 20881
SWIDTH 500 0
DWIDTH 6 0
BBX 9 11 0 -1
BITMAP
0800
FF80
8880
FF80
8880
FF80
4100
7F00
4100
7F00
4300
ENDCHAR
STARTCHAR uni5192
ENCODING 20882
SWIDTH 500 0
DWIDTH 6 0
BBX 8 10 0 -1
BITMAP
FF
81
BD
81
FF
42
7A
5E
42
7E
ENDCHAR
STARTCHAR uni5193
ENCODING 20883
SWIDTH 500 0
DWIDTH 6 0
BBX 9 10 0 -1
BITMAP
FF80
2200
FF00
2200
FF80
4900
7F00
4900
FF80
4300
ENDCHAR
STARTCHAR uni5194
ENCODING 20884
SWIDTH 500 0
DWIDTH 6 0
BBX 9 10 0 -1
BITMAP
7F00
4100
7F00
4100
7F00
0700
E200
BF80
A200
E600
ENDCHAR
STARTCHAR uni5195
ENCODING 20885
SWIDTH 500 0
DWIDTH 6 0
BBX 9 10 0 -1
BITMAP
7F00
4100
7F00
5500
2400
FF00
4900
7F00
1480
E780
ENDCHAR
STARTCHAR uni5196
ENCODING 20886
SWIDTH 500 0
DWIDTH 6 0
BBX 10 3 0 3
BITMAP
7FC0
4040
8080
ENDCHAR
STARTCHAR uni5197
ENCODING 20887
SWIDTH 500 0
DWIDTH 6 0
BBX 10 10 0 -1
BITMAP
7FC0
4040
8080
1E00
1200
1200
1200
1240
2240
C1C0
ENDCHAR
STARTCHAR uni5198
ENCODING 20888
SWIDTH 500 0
DWIDTH 6 0
BBX 9 10 0 -1
BITMAP
0800
FF80
8880
8900
0800
0800
1800
2880
4880
8780
ENDCHAR
STARTCHAR uni5199
ENCODING 20889
SWIDTH 500 0
DWIDTH 6 0
BBX 9 10 0 -1
BITMAP
FF80
8080
A080
3E00
2000
7F00
0100
FD00
0100
0600
ENDCHAR
STARTCHAR uni519B
ENCODING 20891
SWIDTH 500 0
DWIDTH 6 0
BBX 9 10 0 -1
BITMAP
FF80
9080
7F00
2000
4800
7F00
0800
FF80
0800
0800
ENDCHAR
STARTCHAR uni519C
ENCODING 20892
SWIDTH 500 0
DWIDTH 6 0
BBX 9 10 0 -1
BITMAP
0800
FF80
8880
9880
2900
6600
A400
2200
2900
3080
ENDCHAR
STARTCHAR uni519E
ENCODING 20894
SWIDTH 500 0
DWIDTH 6 0
BBX 9 10 0 -1
BITMAP
FF80
8880
2A00
1C00
FF80
0800
1C00
2A00
4900
8880
ENDCHAR
STARTCHAR uni51A0
ENCODING 20896
SWIDTH 500 0
DWIDTH 6 0
BBX 10 10 0 -1
BITMAP
7FC0
4040
3880
03C0
7C80
2A80
2880
2B80
4840
87C0
ENDCHAR
STARTCHAR uni51A2
ENCODING 20898
SWIDTH 500 0
DWIDTH 6 0
BBX 9 10 0 -1
BITMAP
FF80
8080
7F00
1000
EB00
5C00
EE00
3500
E480
1800
ENDCHAR
STARTCHAR uni51A4
ENCODING 20900
SWIDTH 500 0
DWIDTH 6 0
BBX 9 10 0 -1
BITMAP
FF80
9080
3C00
4400
FF00
4900
7F00
2A00
4900
8780
ENDCHAR
STARTCHAR uni51A5
ENCODING 20901
SWIDTH 500 0
DWIDTH 6 0
BBX 9 10 0 -1
BITMAP
FF80
A280
3E00
2200
3E00
1000
0800
FF80
2200
C180
ENDCHAR
STARTCHAR uni51AA
ENCODING 20906
SWIDTH 500 0
DWIDTH 6 0
BBX 9 10 0 -1
BITMAP
FF80
9480
7F00
1400
3E00
2A00
FF80
4900
BE80
2A00
ENDCHAR
STARTCHAR uni51AB
ENCODING 20907
SWIDTH 500 0
DWIDTH 6 0
BBX 4 10 0 -1
BITMAP
40
20
10
10
20
20
C0
40
40
40
ENDCHAR
STARTCHAR uni51AC
ENCODING 20908
SWIDTH 500 0
DWIDTH 6 0
BBX 9 10 0 -1
BITMAP
3F00
2200
5400
8800
1400
2200
CD80
0000
1800
0600
ENDCHAR
STARTCHAR uni51AF
ENCODING 20911
SWIDTH 500 0
DWIDTH 6 0
BBX 10 10 0 -1
BITMAP
4FC0
2480
0480
2900
2FC0
4040
C040
5F40
4040
4180
ENDCHAR
STARTCHAR uni51B0
ENCODING 20912
SWIDTH 500 0
DWIDTH 6 0
BBX 10 11 0 -1
BITMAP
0200
4200
2240
1E80
2B00
2A00
4B00
CA80
5240
6240
4600
ENDCHAR
STARTCHAR uni51B1
ENCODING 20913
SWIDTH 500 0
DWIDTH 6 0
BBX 10 10 0 -1
BITMAP
9FC0
4400
0400
2780
2880
4880
CF80
4100
4100
5FC0
ENDCHAR
STARTCHAR uni51B2
ENCODING 20914
SWIDTH 500 0
DWIDTH 6 0
BBX 10 10 0 -1
BITMAP
8200
4200
1FC0
1240
3240
5FC0
D240
4200
4200
4200
ENDCHAR
STARTCHAR uni51B3
ENCODING 20915
SWIDTH 500 0
DWIDTH 6 0
BBX 10 10 0 -1
BITMAP
8200
4F80
0280
2280
2280
5FC0
C200
4500
4880
5040
ENDCHAR
STARTCHAR uni51B5
ENCODING 20917
SWIDTH 500 0
DWIDTH 6 0
BBX 10 10 0 -1
BITMAP
8F80
4880
0880
0880
2F80
2500
C500
4540
4940
51C0
ENDCHAR
STARTCHAR uni51B6
ENCODING 20918
SWIDTH 500 0
DWIDTH 6 0
BBX 10 10 0 -1
BITMAP
8200
4400
0880
1FC0
2040
2F80
C880
4880
4F80
4880
ENDCHAR
STARTCHAR uni51B7
ENCODING 20919
SWIDTH 500 0
DWIDTH 6 0
BBX 10 10 0 -1
BITMAP
8200
4500
0880
1240
2100
2FC0
C080
4500
4200
4100
ENDCHAR
STARTCHAR uni51B9
ENCODING 20921
SWIDTH 500 0
DWIDTH 6 0
BBX 10 10 0 -1
BITMAP
4500
2480
0FC0
0400
2480
2A80
CA80
5100
5280
6C40
ENDCHAR
STARTCHAR uni51BB
ENCODING 20923
SWIDTH 500 0
DWIDTH 6 0
BBX 10 10 0 -1
BITMAP
8200
4FC0
0400
2500
2900
5FC0
C100
4580
4940
5340
ENDCHAR
STARTCHAR uni51BC
ENCODING 20924
SWIDTH 500 0
DWIDTH 6 0
BBX 10 10 0 -1
BITMAP
8A00
4F80
1200
2200
3FC0
4500
C500
4500
4940
50C0
ENDCHAR
STARTCHAR uni51BD
ENCODING 20925
SWIDTH 500 0
DWIDTH 6 0
BBX 10 10 0 -1
BITMAP
BE40
4840
0940
2D40
3540
CD40
4540
4840
5040
60C0
ENDCHAR
STARTCHAR uni51BE
ENCODING 20926
SWIDTH 500 0
DWIDTH 6 0
BBX 10 10 0 -1
BITMAP
8200
4500
0880
3740
2000
2F80
C880
4880
4F80
4880
ENDCHAR
STARTCHAR uni51C0
ENCODING 20928
SWIDTH 500 0
DWIDTH 6 0
BBX 10 10 0 -1
BITMAP
8F00
4900
1F80
0280
1FC0
2280
CF80
4200
4200
4600
ENDCHAR
STARTCHAR uni51C4
ENCODING 20932
SWIDTH 500 0
DWIDTH 6 0
BBX 10 10 0 -1
BITMAP
9FC0
4280
1FC0
2280
2F80
4400
DFC0
4900
4700
58C0
ENDCHAR
STARTCHAR uni51C5
ENCODING 20933
SWIDTH 500 0
DWIDTH 6 0
BBX 10 10 0 -1
BITMAP
9FC0
5240
1FC0
1240
3740
5540
D740
5040
5FC0
5040
ENDCHAR
STARTCHAR uni51C6
ENCODING 20934
SWIDTH 500 0
DWIDTH 6 0
BBX 10 10 0 -1
BITMAP
4500
2FC0
0900
1900
2FC0
2900
CFC0
4900
4900
4FC0
ENDCHAR
STARTCHAR uni51C7
ENCODING 20935
SWIDTH 500 0
DWIDTH 6 0
BBX 10 10 0 -1
BITMAP
8980
4A80
3E80
0A40
2840
5D00
E900
4A40
4FC0
4840
ENDCHAR
STARTCHAR uni51C8
ENCODING 20936
SWIDTH 500 0
DWIDTH 6 0
BBX 10 10 0 -1
BITMAP
8F80
5440
0A80
2F80
2280
5FC0
C280
4F80
4200
4E00
ENDCHAR
STARTCHAR uni51C9
ENCODING 20937
SWIDTH 500 0
DWIDTH 6 0
BBX 10 10 0 -1
BITMAP
8200
5FC0
0000
2F80
2880
4F80
C200
4A80
5240
6640
ENDCHAR
STARTCHAR uni51CA
ENCODING 20938
SWIDTH 500 0
DWIDTH 6 0
BBX 10 10 0 -1
BITMAP
9FC0
4200
0F80
2200
3FC0
2880
CF80
4880
4F80
4980
ENDCHAR
STARTCHAR uni51CB
ENCODING 20939
SWIDTH 500 0
DWIDTH 6 0
BBX 10 10 0 -1
BITMAP
9FC0
5240
1740
1240
3FC0
5040
D740
5540
5740
60C0
ENDCHAR
STARTCHAR uni51CC
ENCODING 20940
SWIDTH 500 0
DWIDTH 6 0
BBX 10 10 0 -1
BITMAP
4200
2F80
0200
1FC0
2880
3740
CD00
5200
4500
58C0
ENDCHAR
STARTCHAR uni51CD
ENCODING 20941
SWIDTH 500 0
DWIDTH 6 0
BBX 10 10 0 -1
BITMAP
8200
5FC0
0A80
2F80
2A80
4F80
C200
4700
4A80
5240
ENDCHAR
STARTCHAR uni51CE
ENCODING 20942
SWIDTH 500 0
DWIDTH 6 0
BBX 10 10 0 -1
BITMAP
8200
4500
0880
3FC0
2200
4FC0
C200
5240
4A80
5FC0
ENDCHAR
STARTCHAR uni51CF
ENCODING 20943
SWIDTH 500 0
DWIDTH 6 0
BBX 10 10 0 -1
BITMAP
8140
4FC0
0900
2F00
2940
4F40
CA80
4E80
5140
6640
ENDCHAR
STARTCHAR uni51D0
ENCODING 20944
SWIDTH 500 0
DWIDTH 6 0
BBX 10 10 0 -1
BITMAP
9FC0
4500
1FC0
1540
3FC0
5040
C200
4F80
4200
5FC0
ENDCHAR
STARTCHAR uni51D1
ENCODING 20945
SWIDTH 500 0
DWIDTH 6 0
BBX 10 10 0 -1
BITMAP
8200
5FC0
0200
1FC0
0880
5740
C200
5FC0
4500
58C0
ENDCHAR
STARTCHAR uni51D4
ENCODING 20948
SWIDTH 500 0
DWIDTH 6 0
BBX 10 10 0 -1
BITMAP
8700
4C80
1240
1F80
3080
5F80
D080
5FC0
5440
67C0
ENDCHAR
STARTCHAR uni51D7
ENCODING 20951
SWIDTH 500 0
DWIDTH 6 0
BBX 10 10 0 -1
BITMAP
4A40
2FC0
0500
2FC0
2900
5FC0
C900
4FC0
4900
4FC0
ENDCHAR
STARTCHAR uni51D8
ENCODING 20952
SWIDTH 500 0
DWIDTH 6 0
BBX 10 10 0 -1
BITMAP
15C0
BF00
5500
1DC0
3540
5D40
D540
7D40
4940
5640
ENDCHAR
STARTCHAR uni51DB
ENCODING 20955
SWIDTH 500 0
DWIDTH 6 0
BBX 10 10 0 -1
BITMAP
8200
5FC0
1540
1740
3040
5FC0
C000
5FC0
4A80
5640
ENDCHAR
STARTCHAR uni51DC
ENCODING 20956
SWIDTH 500 0
DWIDTH 6 0
BBX 10 10 0 -1
BITMAP
8200
5FC0
1540
1740
3040
5FC0
C200
5FC0
4A80
5240
ENDCHAR
STARTCHAR uni51DD
ENCODING 20957
SWIDTH 500 0
DWIDTH 6 0
BBX 10 10 0 -1
BITMAP
27C0
BA80
6500
3FC0
1140
7D00
D5C0
7D00
5700
69C0
ENDCHAR
STARTCHAR uni51DE
ENCODING 20958
SWIDTH 500 0
DWIDTH 6 0
BBX 10 10 0 -1
BITMAP
9FC0
5540
1D40
35C0
DD00
5540
5FC0
2000
5280
8940
ENDCHAR
STARTCHAR uni51E0
ENCODING 20960
SWIDTH 500 0
DWIDTH 6 0
BBX 9 10 0 -1
BITMAP
3C00
2400
2400
2400
2400
2400
2400
2480
4480
8380
ENDCHAR
STARTCHAR uni51E1
ENCODING 20961
SWIDTH 500 0
DWIDTH 6 0
BBX 9 10 0 -1
BITMAP
3E00
2200
2200
2200
3200
2A00
2200
2280
4280
8180
ENDCHAR
STARTCHAR uni51E4
ENCODING 20964
SWIDTH 500 0
DWIDTH 6 0
BBX 10 10 0 -1
BITMAP
3F80
2080
3E80
2280
2280
2A80
2480
2A80
5240
8040
ENDCHAR
STARTCHAR uni51EB
ENCODING 20971
SWIDTH 500 0
DWIDTH 6 0
BBX 10 10 0 -1
BITMAP
1000
7E00
5200
4000
7F80
0080
3D80
2440
2440
C3C0
ENDCHAR
STARTCHAR uni51ED
ENCODING 20973
SWIDTH 500 0
DWIDTH 6 0
BBX 10 10 0 -1
BITMAP
2F80
2200
7FC0
A200
2F80
0000
1F00
1140
1140
60C0
ENDCHAR
STARTCHAR uni51EF
ENCODING 20975
SWIDTH 500 0
DWIDTH 6 0
BBX 10 10 0 -1
BITMAP
AF00
AD00
FD00
0500
F500
1500
F500
8540
A940
D0C0
ENDCHAR
STARTCHAR uni51F0
ENCODING 20976
SWIDTH 500 0
DWIDTH 6 0
BBX 10 10 0 -1
BITMAP
7F80
4880
5E80
5A80
5680
7F80
4480
5E80
4440
BF40
ENDCHAR
STARTCHAR uni51F1
ENCODING 20977
SWIDTH 500 0
DWIDTH 6 0
BBX 10 10 0 -1
BITMAP
AB80
FA80
0280
FA80
0280
FA80
8A80
FA80
5480
F8C0
ENDCHAR
STARTCHAR uni51F3
ENCODING 20979
SWIDTH 500 0
DWIDTH 6 0
BBX 9 10 0 -1
BITMAP
F700
A280
7F00
A280
3E00
1400
FF80
0000
3E80
C380
ENDCHAR
STARTCHAR uni51F5
ENCODING 20981
SWIDTH 500 0
DWIDTH 6 0
BBX 9 9 0 -1
BITMAP
8080
8080
8080
8080
8080
8080
8080
FF80
8080
ENDCHAR
STARTCHAR uni51F6
ENCODING 20982
SWIDTH 500 0
DWIDTH 6 0
BBX 9 10 0 -1
BITMAP
0200
A280
9480
8880
8C80
9280
A280
8080
FF80
8080
ENDCHAR
STARTCHAR uni51F8
ENCODING 20984
SWIDTH 500 0
DWIDTH 6 0
BBX 9 10 0 -1
BITMAP
3C00
2400
2400
E780
8080
8080
8080
8080
FF80
8080
ENDCHAR
STARTCHAR uni51F9
ENCODING 20985
SWIDTH 500 0
DWIDTH 6 0
BBX 10 10 0 -1
BITMAP
F3C0
9240
9240
9240
9E40
9240
8040
8040
FFC0
8040
ENDCHAR
STARTCHAR uni51FA
ENCODING 20986
SWIDTH 500 0
DWIDTH 6 0
BBX 9 10 0 -1
BITMAP
0800
4900
4900
4900
7F00
0800
8880
8880
8880
FF80
ENDCHAR
STARTCHAR uni51FB
ENCODING 20987
SWIDTH 500 0
DWIDTH 6 0
BBX 9 10 0 -1
BITMAP
0800
7F00
0800
0800
FF80
0800
4900
4900
4900
7F00
ENDCHAR
STARTCHAR uni51FC
ENCODING 20988
SWIDTH 500 0
DWIDTH 6 0
BBX 9 10 0 -1
BITMAP
0800
8980
FA80
AC80
AC80
AA80
CA80
9880
8080
FF80
ENDCHAR
STARTCHAR uni51FD
ENCODING 20989
SWIDTH 500 0
DWIDTH 6 0
BBX 9 10 0 -1
BITMAP
FF80
1000
1800
C980
AA80
9C80
AA80
D980
8080
FF80
ENDCHAR
STARTCHAR uni51FF
ENCODING 20991
SWIDTH 500 0
DWIDTH 6 0
BBX 9 10 0 -1
BITMAP
9480
5500
FF80
2200
9480
BE80
8880
BE80
8880
FF80
ENDCHAR
STARTCHAR uni5200
ENCODING 20992
SWIDTH 500 0
DWIDTH 6 0
BBX 10 10 0 -1
BITMAP
0080
7FC0
0880
0880
0880
0880
1080
2480
4380
8100
ENDCHAR
STARTCHAR uni5201
ENCODING 20993
SWIDTH 500 0
DWIDTH 6 0
BBX 9 10 0 -1
BITMAP
FF80
0080
0080
0880
1080
2080
C080
0880
0700
0200
ENDCHAR
STARTCHAR uni5202
ENCODING 20994
SWIDTH 500 0
DWIDTH 6 0
BBX 4 10 0 -1
BITMAP
10
90
90
90
90
90
90
10
70
20
ENDCHAR
STARTCHAR uni5203
ENCODING 20995
SWIDTH 500 0
DWIDTH 6 0
BBX 9 10 0 -1
BITMAP
FF80
0880
0880
4880
4880
9080
1080
2080
4780
8100
ENDCHAR
STARTCHAR uni5206
ENCODING 20998
SWIDTH 500 0
DWIDTH 6 0
BBX 10 10 0 -1
BITMAP
1200
1200
2100
4080
BF40
0900
0900
1100
2500
4200
ENDCHAR
STARTCHAR uni5207
ENCODING 20999
SWIDTH 500 0
DWIDTH 6 0
BBX 10 10 0 -1
BITMAP
2000
27C0
2240
3A40
E240
2A40
3240
2440
0840
1180
ENDCHAR
STARTCHAR uni5208
ENCODING 21000
SWIDTH 500 0
DWIDTH 6 0
BBX 10 10 0 -1
BITMAP
0840
8940
4940
3140
1140
1940
2540
4440
8040
01C0
ENDCHAR
STARTCHAR uni5209
ENCODING 21001
SWIDTH 500 0
DWIDTH 6 0
BBX 10 10 0 -1
BITMAP
4040
7D40
8140
7940
0940
1140
2140
4440
4440
3DC0
ENDCHAR
STARTCHAR uni520A
ENCODING 21002
SWIDTH 500 0
DWIDTH 6 0
BBX 10 10 0 -1
BITMAP
7C40
1140
1140
1140
FF40
1140
1140
1040
1040
11C0
ENDCHAR
STARTCHAR uni520C
ENCODING 21004
SWIDTH 500 0
DWIDTH 6 0
BBX 10 10 0 -1
BITMAP
0840
0940
FF40
0940
4940
2940
2940
0940
0840
39C0
ENDCHAR
STARTCHAR uni520D
ENCODING 21005
SWIDTH 500 0
DWIDTH 6 0
BBX 9 10 0 -1
BITMAP
2000
3E00
4400
8800
7F80
0080
7F80
0080
7F80
0080
ENDCHAR
STARTCHAR uni520E
ENCODING 21006
SWIDTH 500 0
DWIDTH 6 0
BBX 10 10 0 -1
BITMAP
4040
7D40
A540
2540
2540
4D40
9540
2440
4440
89C0
ENDCHAR
STARTCHAR uni5210
ENCODING 21008
SWIDTH 500 0
DWIDTH 6 0
BBX 10 10 0 -1
BITMAP
7C40
4540
6540
5540
FF40
4540
4540
4440
4440
9DC0
ENDCHAR
STARTCHAR uni5211
ENCODING 21009
SWIDTH 500 0
DWIDTH 6 0
BBX 10 10 0 -1
BITMAP
7C40
2940
2940
2940
FF40
2940
2940
2840
4840
89C0
ENDCHAR
STARTCHAR uni5212
ENCODING 21010
SWIDTH 500 0
DWIDTH 6 0
BBX 10 10 0 -1
BITMAP
3040
2940
2140
FD40
2140
2540
2940
1240
2A40
C6C0
ENDCHAR
STARTCHAR uni5213
ENCODING 21011
SWIDTH 500 0
DWIDTH 6 0
BBX 10 10 0 -1
BITMAP
7C40
0140
0140
FF40
2940
2940
2940
2A40
4C40
89C0
ENDCHAR
STARTCHAR uni5216
ENCODING 21014
SWIDTH 500 0
DWIDTH 6 0
BBX 10 10 0 -1
BITMAP
3C40
2540
2540
3D40
2540
3D40
2540
2440
4440
8DC0
ENDCHAR
STARTCHAR uni5217
ENCODING 21015
SWIDTH 500 0
DWIDTH 6 0
BBX 10 10 0 -1
BITMAP
FC40
2140
3D40
2540
4540
A940
2940
1040
2040
41C0
ENDCHAR
STARTCHAR uni5218
ENCODING 21016
SWIDTH 500 0
DWIDTH 6 0
BBX 10 10 0 -1
BITMAP
2040
1040
FD40
0140
4940
2940
1140
2840
4440
85C0
ENDCHAR
STARTCHAR uni5219
ENCODING 21017
SWIDTH 500 0
DWIDTH 6 0
BBX 9 10 0 -1
BITMAP
F880
8A80
AA80
AA80
AA80
AA80
AA80
2080
5080
8B80
ENDCHAR
STARTCHAR uni521A
ENCODING 21018
SWIDTH 500 0
DWIDTH 6 0
BBX 10 10 0 -1
BITMAP
FC40
8540
C540
AD40
9540
B540
CD40
8440
8440
8DC0
ENDCHAR
STARTCHAR uni521B
ENCODING 21019
SWIDTH 500 0
DWIDTH 6 0
BBX 10 10 0 -1
BITMAP
3040
4840
8540
7940
4940
4940
5940
4040
4440
3DC0
ENDCHAR
STARTCHAR uni521C
ENCODING 21020
SWIDTH 500 0
DWIDTH 6 0
BBX 10 10 0 -1
BITMAP
5040
FD40
5540
FD40
D140
FD40
5540
5C40
5040
91C0
ENDCHAR
STARTCHAR uni521D
ENCODING 21021
SWIDTH 500 0
DWIDTH 6 0
BBX 10 10 0 -1
BITMAP
4000
27C0
F240
1240
2A40
7240
AA40
2240
2440
2980
ENDCHAR
STARTCHAR uni521E
ENCODING 21022
SWIDTH 500 0
DWIDTH 6 0
BBX 10 10 0 -1
BITMAP
7C40
4540
4540
7D40
4540
4540
7D40
4440
4440
FEC0
ENDCHAR
STARTCHAR uni5220
ENCODING 21024
SWIDTH 500 0
DWIDTH 6 0
BBX 10 10 0 -1
BITMAP
EE40
AA40
AAC0
AAC0
FFC0
AAC0
AA40
AA40
AA40
B3C0
ENDCHAR
STARTCHAR uni5221
ENCODING 21025
SWIDTH 500 0
DWIDTH 6 0
BBX 10 10 0 -1
BITMAP
FC40
8540
FD40
9140
9140
FD40
9140
9440
AC40
C5C0
ENDCHAR
STARTCHAR uni5224
ENCODING 21028
SWIDTH 500 0
DWIDTH 6 0
BBX 10 10 0 -1
BITMAP
9240
5540
1140
FD40
1140
1140
FF40
1140
2040
41C0
ENDCHAR
STARTCHAR uni5225
ENCODING 21029
SWIDTH 500 0
DWIDTH 6 0
BBX 10 10 0 -1
BITMAP
7C40
4540
4540
7D40
2140
3D40
2540
2440
4440
99C0
ENDCHAR
STARTCHAR uni5228
ENCODING 21032
SWIDTH 500 0
DWIDTH 6 0
BBX 10 10 0 -1
BITMAP
4040
7D40
8540
7540
5540
7540
4540
5840
4440
3CC0
ENDCHAR
STARTCHAR uni5229
ENCODING 21033
SWIDTH 500 0
DWIDTH 6 0
BBX 10 10 0 -1
BITMAP
0C40
7140
1140
FD40
1140
3940
5540
9240
1040
11C0
ENDCHAR
STARTCHAR uni522A
ENCODING 21034
SWIDTH 500 0
DWIDTH 6 0
BBX 10 10 0 -1
BITMAP
7C40
5540
5540
5540
FF40
5540
5540
5540
5440
4DC0
ENDCHAR
STARTCHAR uni522B
ENCODING 21035
SWIDTH 500 0
DWIDTH 6 0
BBX 10 10 0 -1
BITMAP
7C40
4540
4540
7D40
2140
FD40
2540
2440
4440
99C0
ENDCHAR
STARTCHAR uni522D
ENCODING 21037
SWIDTH 500 0
DWIDTH 6 0
BBX 9 10 0 -1
BITMAP
F880
1280
3280
4A80
8680
FA80
2280
2080
3880
C380
ENDCHAR
STARTCHAR uni522E
ENCODING 21038
SWIDTH 500 0
DWIDTH 6 0
BBX 10 10 0 -1
BITMAP
0C40
7140
1140
FF40
1140
7D40
4540
4440
7C40
45C0
ENDCHAR
STARTCHAR uni5230
ENCODING 21040
SWIDTH 500 0
DWIDTH 6 0
BBX 10 10 0 -1
BITMAP
FC40
2140
4940
F540
1140
7D40
1140
1C40
E040
41C0
ENDCHAR
STARTCHAR uni5231
ENCODING 21041
SWIDTH 500 0
DWIDTH 6 0
BBX 10 10 0 -1
BITMAP
5780
5280
FA80
5280
56C0
FA80
5280
5280
5480
9900
ENDCHAR
STARTCHAR uni5232
ENCODING 21042
SWIDTH 500 0
DWIDTH 6 0
BBX 10 10 0 -1
BITMAP
1040
7D40
1140
FD40
1140
1140
7D40
1040
1E40
E1C0
ENDCHAR
STARTCHAR uni5233
ENCODING 21043
SWIDTH 500 0
DWIDTH 6 0
BBX 10 10 0 -1
BITMAP
1040
FF40
4540
BB40
0140
FF40
2140
7C40
0440
18C0
ENDCHAR
STARTCHAR uni5235
ENCODING 21045
SWIDTH 500 0
DWIDTH 6 0
BBX 10 10 0 -1
BITMAP
FC40
4940
7940
4940
7940
4940
4D40
F840
0840
09C0
ENDCHAR
STARTCHAR uni5236
ENCODING 21046
SWIDTH 500 0
DWIDTH 6 0
BBX 10 10 0 -1
BITMAP
5040
7D40
9140
7F40
1140
7D40
5540
5440
5C40
11C0
ENDCHAR
STARTCHAR uni5237
ENCODING 21047
SWIDTH 500 0
DWIDTH 6 0
BBX 10 10 0 -1
BITMAP
7C40
4540
7D40
5140
7D40
5540
5540
5440
9C40
90C0
ENDCHAR
STARTCHAR uni5238
ENCODING 21048
SWIDTH 500 0
DWIDTH 6 0
BBX 10 10 0 -1
BITMAP
2480
1500
7F80
0800
FFC0
2100
5F80
8940
1100
6700
ENDCHAR
STARTCHAR uni5239
ENCODING 21049
SWIDTH 500 0
DWIDTH 6 0
BBX 10 10 0 -1
BITMAP
6440
1940
6540
1140
7D40
1140
3940
5440
9240
30C0
ENDCHAR
STARTCHAR uni523A
ENCODING 21050
SWIDTH 500 0
DWIDTH 6 0
BBX 10 10 0 -1
BITMAP
1040
FD40
1140
7D40
5540
5540
5540
3940
5440
92C0
ENDCHAR
STARTCHAR uni523B
ENCODING 21051
SWIDTH 500 0
DWIDTH 6 0
BBX 10 10 0 -1
BITMAP
1040
FF40
2140
4540
F940
1340
2540
C840
1440
65C0
ENDCHAR
STARTCHAR uni523D
ENCODING 21053
SWIDTH 500 0
DWIDTH 6 0
BBX 10 10 0 -1
BITMAP
1040
2940
4540
B940
0140
FF40
2140
4840
FC40
45C0
ENDCHAR
STARTCHAR uni523F
ENCODING 21055
SWIDTH 500 0
DWIDTH 6 0
BBX 10 10 0 -1
BITMAP
5440
5540
7D40
2140
3D40
4540
A940
1040
2040
41C0
ENDCHAR
STARTCHAR uni5240
ENCODING 21056
SWIDTH 500 0
DWIDTH 6 0
BBX 9 10 0 -1
BITMAP
A880
AA80
FA80
0280
FA80
0A80
FA80
8080
B080
C380
ENDCHAR
STARTCHAR uni5241
ENCODING 21057
SWIDTH 500 0
DWIDTH 6 0
BBX 10 10 0 -1
BITMAP
7840
4940
4940
8F40
1140
FF40
1140
3840
5440
91C0
ENDCHAR
STARTCHAR uni5242
ENCODING 21058
SWIDTH 500 0
DWIDTH 6 0
BBX 10 10 0 -1
BITMAP
1040
FF40
4940
3140
CD40
0140
4940
4840
4840
89C0
ENDCHAR
STARTCHAR uni5243
ENCODING 21059
SWIDTH 500 0
DWIDTH 6 0
BBX 10 10 0 -1
BITMAP
5040
F940
2940
F940
A140
FD40
2540
6440
A840
21C0
ENDCHAR
STARTCHAR uni5244
ENCODING 21060
SWIDTH 500 0
DWIDTH 6 0
BBX 10 10 0 -1
BITMAP
FC40
5540
A940
A940
5540
FD40
1140
1040
1C40
E1C0
ENDCHAR
STARTCHAR uni5246
ENCODING 21062
SWIDTH 500 0
DWIDTH 6 0
BBX 9 10 0 -1
BITMAP
2080
FA80
8A80
FA80
8A80
FA80
A280
9080
A880
CB80
ENDCHAR
STARTCHAR uni5247
ENCODING 21063
SWIDTH 500 0
DWIDTH 6 0
BBX 9 10 0 -1
BITMAP
F880
8A80
FA80
8A80
FA80
8A80
FA80
A880
5080
8B80
ENDCHAR
STARTCHAR uni5249
ENCODING 21065
SWIDTH 500 0
DWIDTH 6 0
BBX 10 10 0 -1
BITMAP
1040
5540
5540
5540
BB40
1140
7D40
1140
1040
FEC0
ENDCHAR
STARTCHAR uni524A
ENCODING 21066
SWIDTH 500 0
DWIDTH 6 0
BBX 9 10 0 -1
BITMAP
A880
7280
2280
FA80
8A80
FA80
8A80
F880
8880
9B80
ENDCHAR
STARTCHAR uni524B
ENCODING 21067
SWIDTH 500 0
DWIDTH 6 0
BBX 10 10 0 -1
BITMAP
1040
FF40
1140
FD40
8540
FD40
5040
51C0
5040
8FC0
ENDCHAR
STARTCHAR uni524C
ENCODING 21068
SWIDTH 500 0
DWIDTH 6 0
BBX 10 10 0 -1
BITMAP
1040
FF40
1140
7D40
5540
7D40
1140
3840
5440
91C0
ENDCHAR
STARTCHAR uni524D
ENCODING 21069
SWIDTH 500 0
DWIDTH 6 0
BBX 9 10 0 -1
BITMAP
1200
FF80
0000
7A80
4A80
7A80
4A80
7A80
4880
5B80
ENDCHAR
STARTCHAR uni524E
ENCODING 21070
SWIDTH 500 0
DWIDTH 6 0
BBX 10 10 0 -1
BITMAP
6C40
1140
6D40
1140
1540
FF40
1140
3840
5440
95C0
ENDCHAR
STARTCHAR uni5250
ENCODING 21072
SWIDTH 500 0
DWIDTH 6 0
BBX 10 10 0 -1
BITMAP
7C40
4540
7D40
1140
FD40
9540
9540
AC40
C440
8DC0
ENDCHAR
STARTCHAR uni5251
ENCODING 21073
SWIDTH 500 0
DWIDTH 6 0
BBX 10 10 0 -1
BITMAP
1040
2940
4540
B940
0540
A540
5940
0840
7C40
01C0
ENDCHAR
STARTCHAR uni5252
ENCODING 21074
SWIDTH 500 0
DWIDTH 6 0
BBX 10 10 0 -1
BITMAP
2840
7D40
2940
FF40
0140
7D40
4540
7D40
4440
7DC0
ENDCHAR
STARTCHAR uni5254
ENCODING 21076
SWIDTH 500 0
DWIDTH 6 0
BBX 10 10 0 -1
BITMAP
F840
8940
F940
8940
F940
4140
FD40
5440
A440
4DC0
ENDCHAR
STARTCHAR uni5255
ENCODING 21077
SWIDTH 500 0
DWIDTH 6 0
BBX 10 10 0 -1
BITMAP
2840
2940
EF40
2940
EF40
2940
EF40
2840
2840
29C0
ENDCHAR
STARTCHAR uni5256
ENCODING 21078
SWIDTH 500 0
DWIDTH 6 0
BBX 10 10 0 -1
BITMAP
1040
7D40
2940
1140
FF40
0140
7D40
4440
7C40
44C0
ENDCHAR
STARTCHAR uni525A
ENCODING 21082
SWIDTH 500 0
DWIDTH 6 0
BBX 10 11 0 -1
BITMAP
0040
1040
FF40
5540
7D40
1540
FF40
1540
7D40
1040
71C0
ENDCHAR
STARTCHAR uni525B
ENCODING 21083
SWIDTH 500 0
DWIDTH 6 0
BBX 10 10 0 -1
BITMAP
FC40
D540
A540
FD40
A540
AD40
AD40
FD40
8440
8CC0
ENDCHAR
STARTCHAR uni525C
ENCODING 21084
SWIDTH 500 0
DWIDTH 6 0
BBX 10 10 0 -1
BITMAP
1040
FD40
A540
7D40
5540
9540
5D40
3040
5440
99C0
ENDCHAR
STARTCHAR uni525D
ENCODING 21085
SWIDTH 500 0
DWIDTH 6 0
BBX 10 10 0 -1
BITMAP
7840
4940
7940
0940
FF40
5140
3540
5940
9440
31C0
ENDCHAR
STARTCHAR uni525E
ENCODING 21086
SWIDTH 500 0
DWIDTH 6 0
BBX 10 10 0 -1
BITMAP
1040
FF40
2940
4540
FF40
0540
7540
5440
7440
0DC0
ENDCHAR
STARTCHAR uni525F
ENCODING 21087
SWIDTH 500 0
DWIDTH 6 0
BBX 10 10 0 -1
BITMAP
FC40
B540
4940
B540
0140
FD40
B540
4840
B440
B5C0
ENDCHAR
STARTCHAR uni5261
ENCODING 21089
SWIDTH 500 0
DWIDTH 6 0
BBX 9 11 0 -1
BITMAP
0080
2280
AA80
B280
4A80
A280
2A80
B280
A080
5080
8B80
ENDCHAR
STARTCHAR uni5262
ENCODING 21090
SWIDTH 500 0
DWIDTH 6 0
BBX 10 10 0 -1
BITMAP
FE40
2140
5340
9540
6940
6D40
9B40
2940
4840
30C0
ENDCHAR
STARTCHAR uni5265
ENCODING 21093
SWIDTH 500 0
DWIDTH 6 0
BBX 10 10 0 -1
BITMAP
7840
0940
7940
0940
FF40
5540
3940
5440
9240
31C0
ENDCHAR
STARTCHAR uni5267
ENCODING 21095
SWIDTH 500 0
DWIDTH 6 0
BBX 10 10 0 -1
BITMAP
7C40
4440
7D40
4940
7F40
4940
5D40
5440
5C40
95C0
ENDCHAR
STARTCHAR uni5269
ENCODING 21097
SWIDTH 500 0
DWIDTH 6 0
BBX 10 10 0 -1
BITMAP
7C40
1140
FF40
5540
D740
5540
D740
3840
5440
92C0
ENDCHAR
STARTCHAR uni526A
ENCODING 21098
SWIDTH 500 0
DWIDTH 6 0
BBX 10 10 0 -1
BITMAP
1100
FFC0
4880
7A80
4A80
7A80
4880
7F80
1080
6300
ENDCHAR
STARTCHAR uni526B
ENCODING 21099
SWIDTH 500 0
DWIDTH 6 0
BBX 10 10 0 -1
BITMAP
0840
7E40
5540
7F40
5540
7F40
5540
5440
8840
B6C0
ENDCHAR
STARTCHAR uni526C
ENCODING 21100
SWIDTH 500 0
DWIDTH 6 0
BBX 10 10 0 -1
BITMAP
9440
FD40
0140
FF40
1140
FF40
AB40
AA40
AA40
86C0
ENDCHAR
STARTCHAR uni526D
ENCODING 21101
SWIDTH 500 0
DWIDTH 6 0
BBX 10 10 0 -1
BITMAP
7E40
4340
7F40
4940
5540
7F40
4940
7E40
8840
BEC0
ENDCHAR
STARTCHAR uni526E
ENCODING 21102
SWIDTH 500 0
DWIDTH 6 0
BBX 10 10 0 -1
BITMAP
7C40
4540
5D40
5540
FF40
8340
BB40
AB40
BA40
86C0
ENDCHAR
STARTCHAR uni526F
ENCODING 21103
SWIDTH 500 0
DWIDTH 6 0
BBX 9 10 0 -1
BITMAP
F880
5280
5280
7280
0280
FA80
AA80
F880
A880
FB80
ENDCHAR
STARTCHAR uni5272
ENCODING 21106
SWIDTH 500 0
DWIDTH 6 0
BBX 10 10 0 -1
BITMAP
1040
FF40
9340
7D40
1140
7D40
1140
FE40
4440
7DC0
ENDCHAR
STARTCHAR uni5274
ENCODING 21108
SWIDTH 500 0
DWIDTH 6 0
BBX 9 10 0 -1
BITMAP
A880
FA80
0280
FA80
0280
FA80
8A80
FA80
5080
F980
ENDCHAR
STARTCHAR uni5275
ENCODING 21109
SWIDTH 500 0
DWIDTH 6 0
BBX 10 10 0 -1
BITMAP
3040
4940
9540
7940
4940
7940
4940
7D40
A440
BDC0
ENDCHAR
STARTCHAR uni5277
ENCODING 21111
SWIDTH 500 0
DWIDTH 6 0
BBX 10 10 0 -1
BITMAP
0840
7F40
1540
7F40
4940
7F40
4940
5D40
4840
BEC0
ENDCHAR
STARTCHAR uni5278
ENCODING 21112
SWIDTH 500 0
DWIDTH 6 0
BBX 10 10 0 -1
BITMAP
1040
FF40
5540
7D40
5540
FD40
0B40
FF40
8840
58C0
ENDCHAR
STARTCHAR uni527A
ENCODING 21114
SWIDTH 500 0
DWIDTH 6 0
BBX 10 10 0 -1
BITMAP
7BC0
1680
7900
5680
7FC0
4000
5F80
4480
4880
B300
ENDCHAR
STARTCHAR uni527B
ENCODING 21115
SWIDTH 500 0
DWIDTH 6 0
BBX 10 10 0 -1
BITMAP
5440
7D40
0140
7D40
5540
7D40
5540
7C40
5440
B4C0
ENDCHAR
STARTCHAR uni527C
ENCODING 21116
SWIDTH 500 0
DWIDTH 6 0
BBX 10 10 0 -1
BITMAP
2840
7D40
5540
FF40
2940
C740
2940
5440
2840
11C0
ENDCHAR
STARTCHAR uni527D
ENCODING 21117
SWIDTH 500 0
DWIDTH 6 0
BBX 10 10 0 -1
BITMAP
FE40
2940
FF40
A940
FF40
0140
FF40
5440
5240
B2C0
ENDCHAR
STARTCHAR uni527F
ENCODING 21119
SWIDTH 500 0
DWIDTH 6 0
BBX 10 10 0 -1
BITMAP
2A40
5540
7D40
5540
7D40
5540
FF40
3840
5440
92C0
ENDCHAR
STARTCHAR uni5280
ENCODING 21120
SWIDTH 500 0
DWIDTH 6 0
BBX 10 10 0 -1
BITMAP
7C40
2940
FD40
4940
FF40
AB40
FF40
AA40
BA40
86C0
ENDCHAR
STARTCHAR uni5281
ENCODING 21121
SWIDTH 500 0
DWIDTH 6 0
BBX 10 10 0 -1
BITMAP
4840
7F40
4940
FF40
4940
7F40
4940
7E40
5440
AAC0
ENDCHAR
STARTCHAR uni5282
ENCODING 21122
SWIDTH 500 0
DWIDTH 6 0
BBX 10 10 0 -1
BITMAP
FE40
D540
A540
FF40
A540
AD40
FD40
A440
AA40
D1C0
ENDCHAR
STARTCHAR uni5283
ENCODING 21123
SWIDTH 500 0
DWIDTH 6 0
BBX 10 10 0 -1
BITMAP
1040
7D40
1540
FF40
1540
FF40
5540
7C40
5440
FEC0
ENDCHAR
STARTCHAR uni5284
ENCODING 21124
SWIDTH 500 0
DWIDTH 6 0
BBX 10 10 0 -1
BITMAP
4200
7BC0
9480
3840
4540
BB40
0140
7D40
4440
7DC0
ENDCHAR
STARTCHAR uni5287
ENCODING 21127
SWIDTH 500 0
DWIDTH 6 0
BBX 10 10 0 -1
BITMAP
3C40
2140
FD40
A540
FD40
A140
D540
A840
C840
B5C0
ENDCHAR
STARTCHAR uni5288
ENCODING 21128
SWIDTH 500 0
DWIDTH 6 0
BBX 10 10 0 -1
BITMAP
7900
4FC0
7A80
47C0
7900
AFC0
2900
7F80
0880
7180
ENDCHAR
STARTCHAR uni5289
ENCODING 21129
SWIDTH 500 0
DWIDTH 6 0
BBX 10 10 0 -1
BITMAP
FE40
8A40
B240
D540
2940
7D40
9340
7C40
5440
FDC0
ENDCHAR
STARTCHAR uni528A
ENCODING 21130
SWIDTH 500 0
DWIDTH 6 0
BBX 10 10 0 -1
BITMAP
3040
CD40
3140
FD40
9540
FD40
4940
7840
4840
79C0
ENDCHAR
STARTCHAR uni528B
ENCODING 21131
SWIDTH 500 0
DWIDTH 6 0
BBX 10 10 0 -1
BITMAP
7840
4940
FD40
B540
FD40
1140
FF40
3940
5440
92C0
ENDCHAR
STARTCHAR uni528C
ENCODING 21132
SWIDTH 500 0
DWIDTH 6 0
BBX 10 10 0 -1
BITMAP
5C40
5140
FD40
1540
FF40
8940
FD40
AA40
D640
A2C0
ENDCHAR
STARTCHAR uni528D
ENCODING 21133
SWIDTH 500 0
DWIDTH 6 0
BBX 10 10 0 -1
BITMAP
3040
4940
FD40
0140
FD40
B540
FD40
4840
5440
A2C0
ENDCHAR
STARTCHAR uni5290
ENCODING 21136
SWIDTH 500 0
DWIDTH 6 0
BBX 10 10 0 -1
BITMAP
FE40
2940
7D40
C940
7D40
4940
7F40
2440
1840
66C0
ENDCHAR
STARTCHAR uni5291
ENCODING 21137
SWIDTH 500 0
DWIDTH 6 0
BBX 10 10 0 -1
BITMAP
1040
FF40
6940
5540
9340
4540
7D40
4440
7C40
85C0
ENDCHAR
STARTCHAR uni5293
ENCODING 21139
SWIDTH 500 0
DWIDTH 6 0
BBX 10 10 0 -1
BITMAP
1040
3D40
2540
3D40
2540
7D40
5540
FE40
2440
45C0
ENDCHAR
STARTCHAR uni5296
ENCODING 21142
SWIDTH 500 0
DWIDTH 6 0
BBX 10 10 0 -1
BITMAP
7840
C540
7D40
8B40
ED40
8940
FD40
5540
7C40
C6C0
ENDCHAR
STARTCHAR uni5297
ENCODING 21143
SWIDTH 500 0
DWIDTH 6 0
BBX 10 10 0 -1
BITMAP
7E40
A540
FF40
5540
FF40
4540
7D40
4440
7C40
C6C0
ENDCHAR
STARTCHAR uni5298
ENCODING 21144
SWIDTH 500 0
DWIDTH 6 0
BBX 10 10 0 -1
BITMAP
FE40
A540
FF40
A540
FF40
A940
EF40
A840
EE40
A8C0
ENDCHAR
STARTCHAR uni5299
ENCODING 21145
SWIDTH 500 0
DWIDTH 6 0
BBX 10 10 0 -1
BITMAP
3840
4940
FF40
5540
AB40
FF40
A540
FF40
2440
FEC0
ENDCHAR
STARTCHAR uni529B
ENCODING 21147
SWIDTH 500 0
DWIDTH 6 0
BBX 8 10 0 -1
BITMAP
10
10
FF
11
11
11
11
21
45
82
ENDCHAR
STARTCHAR uni529D
ENCODING 21149
SWIDTH 500 0
DWIDTH 6 0
BBX 10 10 0 -1
BITMAP
0100
F900
0FC0
4940
2940
1140
2940
4A40
8440
0980
ENDCHAR
STARTCHAR uni529E
ENCODING 21150
SWIDTH 500 0
DWIDTH 6 0
BBX 10 10 0 -1
BITMAP
0800
0800
FF00
0900
4980
4940
9140
1100
2100
C600
ENDCHAR
STARTCHAR uni529F
ENCODING 21151
SWIDTH 500 0
DWIDTH 6 0
BBX 10 10 0 -1
BITMAP
0200
FA00
27C0
2240
2240
2240
3A40
C440
0840
1180
ENDCHAR
STARTCHAR uni52A0
ENCODING 21152
SWIDTH 500 0
DWIDTH 6 0
BBX 10 10 0 -1
BITMAP
2000
23C0
FA40
2A40
2A40
2A40
2A40
2A40
4BC0
9240
ENDCHAR
STARTCHAR uni52A1
ENCODING 21153
SWIDTH 500 0
DWIDTH 6 0
BBX 9 10 0 -1
BITMAP
2000
3F00
5200
8C00
7380
0800
FF00
1100
2100
C600
ENDCHAR
STARTCHAR uni52A2
ENCODING 21154
SWIDTH 500 0
DWIDTH 6 0
BBX 10 10 0 -1
BITMAP
0100
FD00
23C0
3940
2940
2940
2940
4940
4A40
B4C0
ENDCHAR
STARTCHAR uni52A3
ENCODING 21155
SWIDTH 500 0
DWIDTH 6 0
BBX 9 10 0 -1
BITMAP
2B00
4880
8A80
0C00
3800
C800
3F80
1080
2080
C300
ENDCHAR
STARTCHAR uni52A6
ENCODING 21158
SWIDTH 500 0
DWIDTH 6 0
BBX 10 10 0 -1
BITMAP
0400
7F80
0480
0880
3300
2100
7BC0
2940
4A40
9480
ENDCHAR
STARTCHAR uni52A8
ENCODING 21160
SWIDTH 500 0
DWIDTH 6 0
BBX 10 10 0 -1
BITMAP
7200
0200
07C0
FA40
2240
2240
4240
4A40
FC40
0980
ENDCHAR
STARTCHAR uni52A9
ENCODING 21161
SWIDTH 500 0
DWIDTH 6 0
BBX 10 10 0 -1
BITMAP
7900
4900
4FC0
7940
4940
7940
4940
4A40
FC40
0980
ENDCHAR
STARTCHAR uni52AA
ENCODING 21162
SWIDTH 500 0
DWIDTH 6 0
BBX 10 10 0 -1
BITMAP
27C0
FA40
4A80
7100
2EC0
4400
3F80
0880
1080
6300
ENDCHAR
STARTCHAR uni52AB
ENCODING 21163
SWIDTH 500 0
DWIDTH 6 0
BBX 10 10 0 -1
BITMAP
2100
F900
27C0
2140
FD40
2140
2240
4A40
FC40
0980
ENDCHAR
STARTCHAR uni52AC
ENCODING 21164
SWIDTH 500 0
DWIDTH 6 0
BBX 10 10 0 -1
BITMAP
4100
7900
8BC0
0940
E940
A940
A940
E940
0A40
3480
ENDCHAR
STARTCHAR uni52AD
ENCODING 21165
SWIDTH 500 0
DWIDTH 6 0
BBX 10 10 0 -1
BITMAP
FD00
2500
27C0
4540
8940
F940
8940
8A40
FC40
8980
ENDCHAR
STARTCHAR uni52AE
ENCODING 21166
SWIDTH 500 0
DWIDTH 6 0
BBX 10 10 0 -1
BITMAP
1100
5100
7FC0
9140
1140
FD40
1140
2940
4640
8580
ENDCHAR
STARTCHAR uni52B1
ENCODING 21169
SWIDTH 500 0
DWIDTH 6 0
BBX 10 10 0 -1
BITMAP
7D00
4100
7FC0
5140
5D40
5540
5540
5540
A640
CD80
ENDCHAR
STARTCHAR uni52B2
ENCODING 21170
SWIDTH 500 0
DWIDTH 6 0
BBX 10 10 0 -1
BITMAP
F900
1100
27C0
5140
8940
F940
2140
2240
3C40
E980
ENDCHAR
STARTCHAR uni52B3
ENCODING 21171
SWIDTH 500 0
DWIDTH 6 0
BBX 9 10 0 -1
BITMAP
1200
FF80
1200
FF80
8880
7F00
0900
1100
2100
4600
ENDCHAR
STARTCHAR uni52BB
ENCODING 21179
SWIDTH 500 0
DWIDTH 6 0
BBX 10 10 0 -1
BITMAP
FD00
8100
FFC0
9140
B940
9140
FD40
8240
FC40
0980
ENDCHAR
STARTCHAR uni52BC
ENCODING 21180
SWIDTH 500 0
DWIDTH 6 0
BBX 10 10 0 -1
BITMAP
1100
FD00
13C0
7D40
0140
7940
4940
4940
7A40
4D80
ENDCHAR
STARTCHAR uni52BE
ENCODING 21182
SWIDTH 500 0
DWIDTH 6 0
BBX 10 10 0 -1
BITMAP
2100
F900
23C0
4940
F140
2540
4940
9A40
2440
4980
ENDCHAR
STARTCHAR uni52BF
ENCODING 21183
SWIDTH 500 0
DWIDTH 6 0
BBX 10 10 0 -1
BITMAP
2200
FF80
2A80
3680
E540
2440
7F80
0880
1080
6300
ENDCHAR
STARTCHAR uni52C0
ENCODING 21184
SWIDTH 500 0
DWIDTH 6 0
BBX 10 10 0 -1
BITMAP
2100
F900
27C0
F940
8940
F940
5140
5240
5440
9980
ENDCHAR
STARTCHAR uni52C1
ENCODING 21185
SWIDTH 500 0
DWIDTH 6 0
BBX 10 10 0 -1
BITMAP
FD00
5500
ABC0
A940
5540
FD40
2140
2240
3C40
E980
ENDCHAR
STARTCHAR uni52C2
ENCODING 21186
SWIDTH 500 0
DWIDTH 6 0
BBX 10 11 0 -1
BITMAP
0100
5100
7900
13C0
FD40
0140
7940
4940
4940
7A40
4D80
ENDCHAR
STARTCHAR uni52C3
ENCODING 21187
SWIDTH 500 0
DWIDTH 6 0
BBX 10 10 0 -1
BITMAP
1100
FD00
13C0
FD40
9540
2140
3140
E240
2440
6980
ENDCHAR
STARTCHAR uni52C7
ENCODING 21191
SWIDTH 500 0
DWIDTH 6 0
BBX 8 10 0 -1
BITMAP
7F
14
7F
49
7F
49
FF
11
21
C6
ENDCHAR
STARTCHAR uni52C9
ENCODING 21193
SWIDTH 500 0
DWIDTH 6 0
BBX 10 10 0 -1
BITMAP
2100
3900
53C0
FD40
5540
7D40
2A40
2D80
4840
87C0
ENDCHAR
STARTCHAR uni52CB
ENCODING 21195
SWIDTH 500 0
DWIDTH 6 0
BBX 10 10 0 -1
BITMAP
F200
9200
F7C0
0240
FA40
8A40
AA40
AA40
5440
8980
ENDCHAR
STARTCHAR uni52CD
ENCODING 21197
SWIDTH 500 0
DWIDTH 6 0
BBX 10 10 0 -1
BITMAP
1100
FD00
03C0
7D40
4540
7D40
1140
3A40
5440
B580
ENDCHAR
STARTCHAR uni52D0
ENCODING 21200
SWIDTH 500 0
DWIDTH 6 0
BBX 10 10 0 -1
BITMAP
FD00
1100
FFC0
1140
5140
2140
F940
A940
AA40
FCC0
ENDCHAR
STARTCHAR uni52D2
ENCODING 21202
SWIDTH 500 0
DWIDTH 6 0
BBX 10 10 0 -1
BITMAP
5100
F900
53C0
2140
F940
A940
F940
2240
FC40
2580
ENDCHAR
STARTCHAR uni52D3
ENCODING 21203
SWIDTH 500 0
DWIDTH 6 0
BBX 10 10 0 -1
BITMAP
A100
F900
A7C0
D940
2140
F940
8940
F940
8A40
FD80
ENDCHAR
STARTCHAR uni52D5
ENCODING 21205
SWIDTH 500 0
DWIDTH 6 0
BBX 10 10 0 -1
BITMAP
0D00
7100
13C0
FD40
5540
7D40
5540
FD40
1240
FCC0
ENDCHAR
STARTCHAR uni52D6
ENCODING 21206
SWIDTH 500 0
DWIDTH 6 0
BBX 10 10 0 -1
BITMAP
FD00
8500
B7C0
8540
7940
4940
6940
5940
4A40
7980
ENDCHAR
STARTCHAR uni52D7
ENCODING 21207
SWIDTH 500 0
DWIDTH 6 0
BBX 10 10 0 -1
BITMAP
3F80
2080
3F80
2080
7900
4FC0
6940
5940
4A40
FCC0
ENDCHAR
STARTCHAR uni52D8
ENCODING 21208
SWIDTH 500 0
DWIDTH 6 0
BBX 10 10 0 -1
BITMAP
4900
FD00
4BC0
6940
5940
4940
FF40
5140
6A40
7CC0
ENDCHAR
STARTCHAR uni52D9
ENCODING 21209
SWIDTH 500 0
DWIDTH 6 0
BBX 10 10 0 -1
BITMAP
FA00
57C0
2240
F980
2E40
6200
AFC0
2240
2440
6980
ENDCHAR
STARTCHAR uni52DB
ENCODING 21211
SWIDTH 500 0
DWIDTH 6 0
BBX 10 10 0 -1
BITMAP
7900
4900
FFC0
8540
F540
BD40
8540
FD40
2240
DCC0
ENDCHAR
STARTCHAR uni52DD
ENCODING 21213
SWIDTH 500 0
DWIDTH 6 0
BBX 10 10 0 -1
BITMAP
F240
AA80
FFC0
A200
BFC0
EA80
B7C0
A280
A480
B980
ENDCHAR
STARTCHAR uni52DE
ENCODING 21214
SWIDTH 500 0
DWIDTH 6 0
BBX 9 10 0 -1
BITMAP
AA80
B700
2200
5500
FF80
8880
7F00
1100
2100
C600
ENDCHAR
STARTCHAR uni52DF
ENCODING 21215
SWIDTH 500 0
DWIDTH 6 0
BBX 9 10 0 -1
BITMAP
1400
FF80
2200
3E00
2200
FF80
5100
BE80
1200
6600
ENDCHAR
STARTCHAR uni52E2
ENCODING 21218
SWIDTH 500 0
DWIDTH 6 0
BBX 10 10 0 -1
BITMAP
7A00
1780
FA80
5680
BBC0
1240
7F80
0880
1080
6700
ENDCHAR
STARTCHAR uni52E3
ENCODING 21219
SWIDTH 500 0
DWIDTH 6 0
BBX 10 10 0 -1
BITMAP
FD00
1100
7FC0
1140
FF40
4540
7D40
4540
7D40
C6C0
ENDCHAR
STARTCHAR uni52E4
ENCODING 21220
SWIDTH 500 0
DWIDTH 6 0
BBX 10 10 0 -1
BITMAP
FF00
2900
13C0
7D40
5540
7D40
1140
7D40
1240
FCC0
ENDCHAR
STARTCHAR uni52E6
ENCODING 21222
SWIDTH 500 0
DWIDTH 6 0
BBX 10 10 0 -1
BITMAP
5500
A900
7FC0
5540
7D40
5540
FD40
1140
3A40
D4C0
ENDCHAR
STARTCHAR uni52E9
ENCODING 21225
SWIDTH 500 0
DWIDTH 6 0
BBX 10 10 0 -1
BITMAP
A900
FF00
A9C0
A940
FD40
4540
7D40
4540
7E40
C2C0
ENDCHAR
STARTCHAR uni52EB
ENCODING 21227
SWIDTH 500 0
DWIDTH 6 0
BBX 10 10 0 -1
BITMAP
7D00
5500
FFC0
3940
5540
FD40
5540
7D40
5640
7CC0
ENDCHAR
STARTCHAR uni52EF
ENCODING 21231
SWIDTH 500 0
DWIDTH 6 0
BBX 10 10 0 -1
BITMAP
2100
FD00
B7C0
B540
8540
FD40
4940
7940
4A40
FCC0
ENDCHAR
STARTCHAR uni52F0
ENCODING 21232
SWIDTH 500 0
DWIDTH 6 0
BBX 10 10 0 -1
BITMAP
27C0
FD40
2FC0
4D40
97C0
5100
FC80
5740
9540
ADC0
ENDCHAR
STARTCHAR uni52F1
ENCODING 21233
SWIDTH 500 0
DWIDTH 6 0
BBX 10 10 0 -1
BITMAP
FD00
5100
FBC0
A940
F940
A940
FD40
9540
F540
8EC0
ENDCHAR
STARTCHAR uni52F3
ENCODING 21235
SWIDTH 500 0
DWIDTH 6 0
BBX 10 10 0 -1
BITMAP
7D00
1100
FFC0
5540
7D40
1140
7D40
1140
7D40
AAC0
ENDCHAR
STARTCHAR uni52F4
ENCODING 21236
SWIDTH 500 0
DWIDTH 6 0
BBX 10 10 0 -1
BITMAP
1D00
1100
FFC0
9140
BF40
AB40
BF40
9540
E940
BEC0
ENDCHAR
STARTCHAR uni52F5
ENCODING 21237
SWIDTH 500 0
DWIDTH 6 0
BBX 10 10 0 -1
BITMAP
FD00
A900
FFC0
A940
F940
A940
FD40
A540
F540
8EC0
ENDCHAR
STARTCHAR uni52F7
ENCODING 21239
SWIDTH 500 0
DWIDTH 6 0
BBX 10 10 0 -1
BITMAP
FD00
A900
FBC0
5140
FD40
5140
FD40
5540
CA40
6CC0
ENDCHAR
STARTCHAR uni52F8
ENCODING 21240
SWIDTH 500 0
DWIDTH 6 0
BBX 10 10 0 -1
BITMAP
4900
FD00
4BC0
FD40
A540
FD40
5140
FD40
5240
7CC0
ENDCHAR
STARTCHAR uni52F9
ENCODING 21241
SWIDTH 500 0
DWIDTH 6 0
BBX 10 10 0 -1
BITMAP
2000
3FC0
4040
8040
0040
0040
0040
0440
0380
0100
ENDCHAR
STARTCHAR uni52FA
ENCODING 21242
SWIDTH 500 0
DWIDTH 6 0
BBX 10 10 0 -1
BITMAP
2000
3FC0
4040
9040
0840
0840
0040
0040
0380
0100
ENDCHAR
STARTCHAR uni52FB
ENCODING 21243
SWIDTH 500 0
DWIDTH 6 0
BBX 10 10 0 -1
BITMAP
2000
3FC0
4040
9040
0840
0040
0E40
3040
0380
0100
ENDCHAR
STARTCHAR uni52FC
ENCODING 21244
SWIDTH 500 0
DWIDTH 6 0
BBX 10 10 0 -1
BITMAP
2000
3FC0
4040
9040
3C40
1440
1540
2740
4040
0180
ENDCHAR
STARTCHAR uni52FE
ENCODING 21246
SWIDTH 500 0
DWIDTH 6 0
BBX 10 10 0 -1
BITMAP
2000
3FC0
4040
8840
0840
1040
2440
7A40
0380
0100
ENDCHAR
STARTCHAR uni52FF
ENCODING 21247
SWIDTH 500 0
DWIDTH 6 0
BBX 10 10 0 -1
BITMAP
2000
3FC0
4940
8940
1240
1240
2440
4840
1280
2100
ENDCHAR
STARTCHAR uni5300
ENCODING 21248
SWIDTH 500 0
DWIDTH 6 0
BBX 9 10 0 -1
BITMAP
2000
3F80
4080
9080
0880
0080
0C80
7080
0080
0100
ENDCHAR
STARTCHAR uni5305
ENCODING 21253
SWIDTH 500 0
DWIDTH 6 0
BBX 10 10 0 -1
BITMAP
2000
3F80
4080
BC80
2480
3C80
2300
2040
2040
1FC0
ENDCHAR
STARTCHAR uni5306
ENCODING 21254
SWIDTH 500 0
DWIDTH 6 0
BBX 10 10 0 -1
BITMAP
1000
1FC0
2A40
4A40
9A40
1640
2540
48C0
1040
2180
ENDCHAR
STARTCHAR uni5308
ENCODING 21256
SWIDTH 500 0
DWIDTH 6 0
BBX 10 10 0 -1
BITMAP
2000
3FC0
4040
B540
2940
3540
2140
3F40
0040
0180
ENDCHAR
STARTCHAR uni5309
ENCODING 21257
SWIDTH 500 0
DWIDTH 6 0
BBX 10 10 0 -1
BITMAP
2000
3FC0
4040
BF40
4940
2A40
7F40
0840
0840
0980
ENDCHAR
STARTCHAR uni530A
ENCODING 21258
SWIDTH 500 0
DWIDTH 6 0
BBX 10 10 0 -1
BITMAP
2000
3FC0
4440
A4C0
1540
7FC0
1640
2540
4440
0580
ENDCHAR
STARTCHAR uni530B
ENCODING 21259
SWIDTH 500 0
DWIDTH 6 0
BBX 10 10 0 -1
BITMAP
2000
3FC0
5040
9E40
2840
7F40
0840
2A40
3E40
0180
ENDCHAR
STARTCHAR uni530D
ENCODING 21261
SWIDTH 500 0
DWIDTH 6 0
BBX 10 10 0 -1
BITMAP
2000
3FC0
4A40
FFC0
2940
3F40
2940
3F40
2940
2980
ENDCHAR
STARTCHAR uni530E
ENCODING 21262
SWIDTH 500 0
DWIDTH 6 0
BBX 10 10 0 -1
BITMAP
2000
7FC0
8840
7FC0
2A40
7F40
AAC0
3E40
0940
0F80
ENDCHAR
STARTCHAR uni530F
ENCODING 21263
SWIDTH 500 0
DWIDTH 6 0
BBX 10 10 0 -1
BITMAP
2400
FFC0
5440
FF40
0540
F740
44C0
F400
1440
63C0
ENDCHAR
STARTCHAR uni5310
ENCODING 21264
SWIDTH 500 0
DWIDTH 6 0
BBX 10 10 0 -1
BITMAP
2000
7FC0
8040
7F40
1440
3E40
2A40
3E40
2A40
3F80
ENDCHAR
STARTCHAR uni5311
ENCODING 21265
SWIDTH 500 0
DWIDTH 6 0
BBX 10 10 0 -1
BITMAP
7FC0
9040
7F40
4940
7B40
4A40
FB40
2940
4D40
9AC0
ENDCHAR
STARTCHAR uni5312
ENCODING 21266
SWIDTH 500 0
DWIDTH 6 0
BBX 10 10 0 -1
BITMAP
3FC0
5240
BFC0
1240
1E40
2D40
40C0
1E40
1240
1F80
ENDCHAR
STARTCHAR uni5315
ENCODING 21269
SWIDTH 500 0
DWIDTH 6 0
BBX 9 10 0 -1
BITMAP
2000
2200
2400
2800
3000
6000
A000
2080
2080
1F80
ENDCHAR
STARTCHAR uni5316
ENCODING 21270
SWIDTH 500 0
DWIDTH 6 0
BBX 10 10 0 -1
BITMAP
1200
1200
2240
2280
6300
A600
2A40
2240
2240
21C0
ENDCHAR
STARTCHAR uni5317
ENCODING 21271
SWIDTH 500 0
DWIDTH 6 0
BBX 10 10 0 -1
BITMAP
1200
1200
1200
F380
1200
1200
1200
3200
D240
13C0
ENDCHAR
STARTCHAR uni5319
ENCODING 21273
SWIDTH 500 0
DWIDTH 6 0
BBX 10 10 0 -1
BITMAP
7900
4940
7980
4900
FD00
1140
5D40
51C0
B000
9FC0
ENDCHAR
STARTCHAR uni531A
ENCODING 21274
SWIDTH 500 0
DWIDTH 6 0
BBX 9 10 0 -1
BITMAP
FF80
8000
8000
8000
8000
8000
8000
8100
FF80
8000
ENDCHAR
STARTCHAR uni531C
ENCODING 21276
SWIDTH 500 0
DWIDTH 6 0
BBX 9 10 0 -1
BITMAP
FF80
8400
A700
BD00
E500
A700
A080
9F80
8000
FF80
ENDCHAR
STARTCHAR uni531D
ENCODING 21277
SWIDTH 500 0
DWIDTH 6 0
BBX 10 10 0 -1
BITMAP
FFC0
8400
8400
BF80
A480
A480
A580
8400
8400
FFC0
ENDCHAR
STARTCHAR uni531F
ENCODING 21279
SWIDTH 500 0
DWIDTH 6 0
BBX 10 10 0 -1
BITMAP
FFC0
8400
BFC0
8000
9F00
9100
9140
A1C0
C000
FFC0
ENDCHAR
STARTCHAR uni5320
ENCODING 21280
SWIDTH 500 0
DWIDTH 6 0
BBX 10 10 0 -1
BITMAP
FFC0
8180
9E00
9000
9FC0
9100
9100
9100
A100
FFC0
ENDCHAR
STARTCHAR uni5321
ENCODING 21281
SWIDTH 500 0
DWIDTH 6 0
BBX 9 10 0 -1
BITMAP
FF80
8000
BF80
8400
9F00
8400
8400
BF80
8000
FF80
ENDCHAR
STARTCHAR uni5322
ENCODING 21282
SWIDTH 500 0
DWIDTH 6 0
BBX 9 10 0 -1
BITMAP
FF80
A000
BF00
D500
9500
A500
C900
9100
A200
FF80
ENDCHAR
STARTCHAR uni5323
ENCODING 21283
SWIDTH 500 0
DWIDTH 6 0
BBX 10 10 0 -1
BITMAP
FFC0
8000
BF80
A480
BF80
A480
BF80
8400
8400
FFC0
ENDCHAR
STARTCHAR uni5326
ENCODING 21286
SWIDTH 500 0
DWIDTH 6 0
BBX 10 10 0 -1
BITMAP
FFC0
9000
FA00
A780
FA80
9280
9E80
F2C0
9400
FFC0
ENDCHAR
STARTCHAR uni532A
ENCODING 21290
SWIDTH 500 0
DWIDTH 6 0
BBX 9 10 0 -1
BITMAP
FF80
9400
F780
9400
F700
9400
F780
9400
9400
FF80
ENDCHAR
STARTCHAR uni532D
ENCODING 21293
SWIDTH 500 0
DWIDTH 6 0
BBX 10 10 0 -1
BITMAP
FFC0
8A00
FE00
AB80
BE80
AA80
FE80
8AC0
8C00
FFC0
ENDCHAR
STARTCHAR uni532E
ENCODING 21294
SWIDTH 500 0
DWIDTH 6 0
BBX 10 10 0 -1
BITMAP
FFC0
8400
9F00
9500
FFC0
A080
A480
AA80
9100
FFC0
ENDCHAR
STARTCHAR uni532F
ENCODING 21295
SWIDTH 500 0
DWIDTH 6 0
BBX 10 10 0 -1
BITMAP
FFC0
A500
9480
C7C0
AD00
9780
E500
A780
A500
FFC0
ENDCHAR
STARTCHAR uni5330
ENCODING 21296
SWIDTH 500 0
DWIDTH 6 0
BBX 10 10 0 -1
BITMAP
FFC0
AA80
BB80
9F00
9500
9F00
9500
BF80
8400
FFC0
ENDCHAR
STARTCHAR uni5331
ENCODING 21297
SWIDTH 500 0
DWIDTH 6 0
BBX 10 10 0 -1
BITMAP
FFC0
9F00
9500
FFC0
9D00
9700
9100
9F00
B180
FFC0
ENDCHAR
STARTCHAR uni5334
ENCODING 21300
SWIDTH 500 0
DWIDTH 6 0
BBX 10 10 0 -1
BITMAP
FFC0
9D80
AA80
9F80
9080
9F80
9080
BFC0
9100
FFC0
ENDCHAR
STARTCHAR uni5337
ENCODING 21303
SWIDTH 500 0
DWIDTH 6 0
BBX 10 10 0 -1
BITMAP
FFC0
B540
AD40
BFC0
9200
BFC0
D200
9F80
9200
FFC0
ENDCHAR
STARTCHAR uni5338
ENCODING 21304
SWIDTH 500 0
DWIDTH 6 0
BBX 9 10 0 -1
BITMAP
0080
FF80
4000
4000
4000
4000
4000
4000
4000
7F80
ENDCHAR
STARTCHAR uni5339
ENCODING 21305
SWIDTH 500 0
DWIDTH 6 0
BBX 10 10 0 -1
BITMAP
FFC0
4A00
4A00
4A00
4A40
4A40
51C0
4000
7FC0
4000
ENDCHAR
STARTCHAR uni533A
ENCODING 21306
SWIDTH 500 0
DWIDTH 6 0
BBX 10 10 0 -1
BITMAP
FFC0
8000
9180
8900
8600
8600
8900
9080
8000
FFC0
ENDCHAR
STARTCHAR uni533B
ENCODING 21307
SWIDTH 500 0
DWIDTH 6 0
BBX 9 10 0 -1
BITMAP
FF80
9000
9F00
A400
8400
FF80
8C00
9200
A100
FF80
ENDCHAR
STARTCHAR uni533C
ENCODING 21308
SWIDTH 500 0
DWIDTH 6 0
BBX 9 10 0 -1
BITMAP
FF80
8800
9400
BE00
C100
BE00
A200
BE00
8000
FF80
ENDCHAR
STARTCHAR uni533D
ENCODING 21309
SWIDTH 500 0
DWIDTH 6 0
BBX 9 10 0 -1
BITMAP
FF80
9200
9E00
9200
FF80
8A00
9200
8C00
9200
FF80
ENDCHAR
STARTCHAR uni533E
ENCODING 21310
SWIDTH 500 0
DWIDTH 6 0
BBX 10 10 0 -1
BITMAP
FFC0
8400
9F80
9080
9FC0
9540
BFC0
D540
90C0
FFC0
ENDCHAR
STARTCHAR uni533F
ENCODING 21311
SWIDTH 500 0
DWIDTH 6 0
BBX 9 10 0 -1
BITMAP
FF80
9200
FF80
9200
FF80
9000
BF00
D100
9F00
FF80
ENDCHAR
STARTCHAR uni5340
ENCODING 21312
SWIDTH 500 0
DWIDTH 6 0
BBX 9 10 0 -1
BITMAP
FF80
9200
9200
9E00
8000
BB80
AA80
BB80
8000
FF80
ENDCHAR
STARTCHAR uni5341
ENCODING 21313
SWIDTH 500 0
DWIDTH 6 0
BBX 9 10 0 -1
BITMAP
0800
0800
0800
FF80
0800
0800
0800
0800
0800
0800
ENDCHAR
STARTCHAR uni5343
ENCODING 21315
SWIDTH 500 0
DWIDTH 6 0
BBX 9 10 0 -1
BITMAP
0700
7800
0800
0800
FF80
0800
0800
0800
0800
0800
ENDCHAR
STARTCHAR uni5344
ENCODING 21316
SWIDTH 500 0
DWIDTH 6 0
BBX 9 10 0 -1
BITMAP
2200
2200
2200
2200
FF80
2200
2200
2200
2200
2200
ENDCHAR
STARTCHAR uni5345
ENCODING 21317
SWIDTH 500 0
DWIDTH 6 0
BBX 10 10 0 -1
BITMAP
2480
2480
2480
2480
FFC0
2480
2480
2480
4480
8480
ENDCHAR
STARTCHAR uni5347
ENCODING 21319
SWIDTH 500 0
DWIDTH 6 0
BBX 10 10 0 -1
BITMAP
0D00
7100
1100
1100
FFC0
1100
1100
1100
2100
4100
ENDCHAR
STARTCHAR uni5348
ENCODING 21320
SWIDTH 500 0
DWIDTH 6 0
BBX 10 10 0 -1
BITMAP
2000
3F80
2400
4400
0400
FFC0
0400
0400
0400
0400
ENDCHAR
STARTCHAR uni5349
ENCODING 21321
SWIDTH 500 0
DWIDTH 6 0
BBX 9 10 0 -1
BITMAP
0800
FF80
0800
2A00
2200
FF80
2200
2200
4200
8200
ENDCHAR
STARTCHAR uni534A
ENCODING 21322
SWIDTH 500 0
DWIDTH 6 0
BBX 9 10 0 -1
BITMAP
4900
2A00
2A00
7F00
0800
0800
FF80
0800
0800
0800
ENDCHAR
STARTCHAR uni534C
ENCODING 21324
SWIDTH 500 0
DWIDTH 6 0
BBX 10 10 0 -1
BITMAP
2A80
2A80
2A80
2A80
FFC0
2A80
2A80
2A80
4A80
8A80
ENDCHAR
STARTCHAR uni534D
ENCODING 21325
SWIDTH 500 0
DWIDTH 6 0
BBX 9 10 0 -1
BITMAP
F880
0880
0880
0880
FF80
8800
8800
8800
8800
8F80
ENDCHAR
STARTCHAR uni534E
ENCODING 21326
SWIDTH 500 0
DWIDTH 6 0
BBX 10 10 0 -1
BITMAP
1240
2280
6300
AE40
2240
21C0
0400
7FC0
0400
0400
ENDCHAR
STARTCHAR uni534F
ENCODING 21327
SWIDTH 500 0
DWIDTH 6 0
BBX 10 10 0 -1
BITMAP
4400
4400
EF00
4500
5580
5540
6540
4900
5100
6600
ENDCHAR
STARTCHAR uni5351
ENCODING 21329
SWIDTH 500 0
DWIDTH 6 0
BBX 9 10 0 -1
BITMAP
1000
7F00
4900
7F00
4900
7F00
2400
FF80
0400
0400
ENDCHAR
STARTCHAR uni5352
ENCODING 21330
SWIDTH 500 0
DWIDTH 6 0
BBX 9 10 0 -1
BITMAP
0800
FF80
2200
5500
8880
0800
FF80
0800
0800
0800
ENDCHAR
STARTCHAR uni5353
ENCODING 21331
SWIDTH 500 0
DWIDTH 6 0
BBX 9 10 0 -1
BITMAP
0F00
0800
7F00
4100
7F00
4100
7F00
0800
FF80
0800
ENDCHAR
STARTCHAR uni5354
ENCODING 21332
SWIDTH 500 0
DWIDTH 6 0
BBX 10 10 0 -1
BITMAP
4400
5F80
E480
5980
5100
7FC0
5540
5540
5540
6EC0
ENDCHAR
STARTCHAR uni5355
ENCODING 21333
SWIDTH 500 0
DWIDTH 6 0
BBX 9 10 0 -1
BITMAP
2200
1400
7F00
4900
7F00
4900
7F00
0800
FF80
0800
ENDCHAR
STARTCHAR uni5356
ENCODING 21334
SWIDTH 500 0
DWIDTH 6 0
BBX 9 10 0 -1
BITMAP
0800
7F00
0800
FF80
5500
2400
FF80
0800
3600
C180
ENDCHAR
STARTCHAR uni5357
ENCODING 21335
SWIDTH 500 0
DWIDTH 6 0
BBX 9 10 0 -1
BITMAP
0800
FF80
0800
FF80
9480
FF80
8880
BE80
8880
8B80
ENDCHAR
STARTCHAR uni535A
ENCODING 21338
SWIDTH 500 0
DWIDTH 6 0
BBX 10 10 0 -1
BITMAP
4280
5FC0
EA40
4FC0
4A40
4FC0
4A80
5FC0
4880
4580
ENDCHAR
STARTCHAR uni535C
ENCODING 21340
SWIDTH 500 0
DWIDTH 6 0
BBX 5 10 0 -1
BITMAP
80
80
80
C0
B0
98
88
80
80
80
ENDCHAR
STARTCHAR uni535E
ENCODING 21342
SWIDTH 500 0
DWIDTH 6 0
BBX 9 10 0 -1
BITMAP
1000
0800
FF80
0800
0C00
0B00
0900
0800
0800
0800
ENDCHAR
STARTCHAR uni535F
ENCODING 21343
SWIDTH 500 0
DWIDTH 6 0
BBX 9 10 0 -1
BITMAP
0400
E400
A400
A600
A500
A480
E400
A400
0400
0400
ENDCHAR
STARTCHAR uni5360
ENCODING 21344
SWIDTH 500 0
DWIDTH 6 0
BBX 8 10 0 -1
BITMAP
10
10
1F
10
10
FE
82
82
FE
82
ENDCHAR
STARTCHAR uni5361
ENCODING 21345
SWIDTH 500 0
DWIDTH 6 0
BBX 9 10 0 -1
BITMAP
0800
0800
0F00
0800
FF80
0800
0C00
0A00
0900
0800
ENDCHAR
STARTCHAR uni5362
ENCODING 21346
SWIDTH 500 0
DWIDTH 6 0
BBX 10 10 0 -1
BITMAP
0400
07C0
0400
3F80
2080
3F80
2080
2000
4000
8000
ENDCHAR
STARTCHAR uni5363
ENCODING 21347
SWIDTH 500 0
DWIDTH 6 0
BBX 9 11 0 -1
BITMAP
1000
1F80
1000
FF00
8100
F900
8900
F900
8100
FF00
8100
ENDCHAR
STARTCHAR uni5364
ENCODING 21348
SWIDTH 500 0
DWIDTH 6 0
BBX 9 10 0 -1
BITMAP
0800
0F80
0800
FF80
A280
9480
8880
9480
A280
FF80
ENDCHAR
STARTCHAR uni5366
ENCODING 21350
SWIDTH 500 0
DWIDTH 6 0
BBX 10 10 0 -1
BITMAP
2200
FA00
2200
FB00
0280
2240
FA00
2200
3A00
E200
ENDCHAR
STARTCHAR uni5367
ENCODING 21351
SWIDTH 500 0
DWIDTH 6 0
BBX 10 10 0 -1
BITMAP
FA00
A200
A200
FB00
8A80
8A40
FA00
A200
A200
FA00
ENDCHAR
STARTCHAR uni5369
ENCODING 21353
SWIDTH 500 0
DWIDTH 6 0
BBX 5 10 0 -1
BITMAP
F8
88
88
88
88
88
98
80
80
80
ENDCHAR
STARTCHAR uni536B
ENCODING 21355
SWIDTH 500 0
DWIDTH 6 0
BBX 9 10 0 -1
BITMAP
FF00
1100
1100
1100
1100
1100
1300
1000
1000
FF80
ENDCHAR
STARTCHAR uni536C
ENCODING 21356
SWIDTH 500 0
DWIDTH 6 0
BBX 9 10 0 -1
BITMAP
F780
8480
8480
8480
8480
9480
A480
C580
8400
0400
ENDCHAR
STARTCHAR uni536E
ENCODING 21358
SWIDTH 500 0
DWIDTH 6 0
BBX 10 10 0 -1
BITMAP
3F80
2000
3FC0
2000
2F80
2880
2880
2B40
4840
87C0
ENDCHAR
STARTCHAR uni536F
ENCODING 21359
SWIDTH 500 0
DWIDTH 6 0
BBX 9 10 0 -1
BITMAP
F780
8480
9480
9480
9480
B480
D480
1580
2400
C400
ENDCHAR
STARTCHAR uni5370
ENCODING 21360
SWIDTH 500 0
DWIDTH 6 0
BBX 10 10 0 -1
BITMAP
7BC0
4240
4240
7A40
4240
4A40
5240
E2C0
4200
0200
ENDCHAR
STARTCHAR uni5371
ENCODING 21361
SWIDTH 500 0
DWIDTH 6 0
BBX 10 10 0 -1
BITMAP
1F00
2200
7FC0
A000
2F00
2900
2900
2B40
4840
87C0
ENDCHAR
STARTCHAR uni5372
ENCODING 21362
SWIDTH 500 0
DWIDTH 6 0
BBX 10 10 0 -1
BITMAP
FBC0
2A40
2A40
4A40
9240
FA40
8A40
8AC0
FA00
8A00
ENDCHAR
STARTCHAR uni5373
ENCODING 21363
SWIDTH 500 0
DWIDTH 6 0
BBX 9 10 0 -1
BITMAP
F780
9480
F480
9480
F480
8480
A480
B580
D400
0400
ENDCHAR
STARTCHAR uni5374
ENCODING 21364
SWIDTH 500 0
DWIDTH 6 0
BBX 10 10 0 -1
BITMAP
23C0
FA40
2240
2240
FE40
2240
2240
4AC0
F600
0200
ENDCHAR
STARTCHAR uni5375
ENCODING 21365
SWIDTH 500 0
DWIDTH 6 0
BBX 9 10 0 -1
BITMAP
F780
8480
9480
D680
B580
9480
F480
9580
2400
C400
ENDCHAR
STARTCHAR uni5377
ENCODING 21367
SWIDTH 500 0
DWIDTH 6 0
BBX 9 10 0 -1
BITMAP
4900
2A00
7F00
1000
FF80
2200
7D00
A480
2100
1F00
ENDCHAR
STARTCHAR uni5378
ENCODING 21368
SWIDTH 500 0
DWIDTH 6 0
BBX 10 10 0 -1
BITMAP
43C0
7E40
9240
1240
FE40
1240
5E40
52C0
5200
FE00
ENDCHAR
STARTCHAR uni5379
ENCODING 21369
SWIDTH 500 0
DWIDTH 6 0
BBX 10 10 0 -1
BITMAP
13C0
FE40
AA40
AA40
AA40
AA40
AA40
AAC0
FE00
0200
ENDCHAR
STARTCHAR uni537A
ENCODING 21370
SWIDTH 500 0
DWIDTH 6 0
BBX 10 10 0 -1
BITMAP
3F80
0280
F700
2C80
7FC0
8000
3F00
2100
2240
1FC0
ENDCHAR
STARTCHAR uni537B
ENCODING 21371
SWIDTH 500 0
DWIDTH 6 0
BBX 10 10 0 -1
BITMAP
2BC0
4640
9240
2A40
4640
FA40
4A40
4AC0
7A00
4A00
ENDCHAR
STARTCHAR uni537C
ENCODING 21372
SWIDTH 500 0
DWIDTH 6 0
BBX 10 10 0 -1
BITMAP
0780
FC80
57C0
5400
55C0
5540
5DC0
5500
4540
99C0
ENDCHAR
STARTCHAR uni537F
ENCODING 21375
SWIDTH 500 0
DWIDTH 6 0
BBX 10 10 0 -1
BITMAP
EF00
89C0
AF40
A940
AF40
A940
ED40
2B40
4D00
8100
ENDCHAR
STARTCHAR uni5382
ENCODING 21378
SWIDTH 500 0
DWIDTH 6 0
BBX 10 10 0 -1
BITMAP
7FC0
4000
4000
4000
4000
4000
4000
4000
8000
8000
ENDCHAR
STARTCHAR uni5384
ENCODING 21380
SWIDTH 500 0
DWIDTH 6 0
BBX 10 10 0 -1
BITMAP
3FC0
2000
2000
2F80
2880
2880
2B00
2840
4840
87C0
ENDCHAR
STARTCHAR uni5385
ENCODING 21381
SWIDTH 500 0
DWIDTH 6 0
BBX 10 10 0 -1
BITMAP
7FC0
4000
4000
5FC0
4200
4200
4200
4200
8A00
8400
ENDCHAR
STARTCHAR uni5386
ENCODING 21382
SWIDTH 500 0
DWIDTH 6 0
BBX 10 10 0 -1
BITMAP
7FC0
4000
4400
5F80
4480
4480
4480
4880
9280
A100
ENDCHAR
STARTCHAR uni5389
ENCODING 21385
SWIDTH 500 0
DWIDTH 6 0
BBX 10 10 0 -1
BITMAP
7FC0
4000
7FC0
4800
4F80
4880
4880
4880
9280
A100
ENDCHAR
STARTCHAR uni538A
ENCODING 21386
SWIDTH 500 0
DWIDTH 6 0
BBX 10 10 0 -1
BITMAP
7FC0
4000
5FC0
4900
5100
5FC0
4500
4900
5100
A700
ENDCHAR
STARTCHAR uni538B
ENCODING 21387
SWIDTH 500 0
DWIDTH 6 0
BBX 10 10 0 -1
BITMAP
7FC0
4000
4400
4400
5F80
4400
4500
4480
8400
BFC0
ENDCHAR
STARTCHAR uni538C
ENCODING 21388
SWIDTH 500 0
DWIDTH 6 0
BBX 10 10 0 -1
BITMAP
7FC0
4400
4500
4480
7FC0
4400
4600
4900
5080
A040
ENDCHAR
STARTCHAR uni538D
ENCODING 21389
SWIDTH 500 0
DWIDTH 6 0
BBX 10 10 0 -1
BITMAP
3FC0
2400
3FC0
2A00
2A00
3F80
2200
3FC0
4200
8200
ENDCHAR
STARTCHAR uni538E
ENCODING 21390
SWIDTH 500 0
DWIDTH 6 0
BBX 10 10 0 -1
BITMAP
7FC0
4080
5F00
5200
5FC0
5200
5200
5540
9AC0
9140
ENDCHAR
STARTCHAR uni538F
ENCODING 21391
SWIDTH 500 0
DWIDTH 6 0
BBX 10 10 0 -1
BITMAP
7FC0
4800
4FC0
5400
6400
4780
4400
47C0
8400
8400
ENDCHAR
STARTCHAR uni5392
ENCODING 21394
SWIDTH 500 0
DWIDTH 6 0
BBX 10 10 0 -1
BITMAP
7FC0
4800
4FC0
5200
4200
7FC0
4200
5240
9240
9FC0
ENDCHAR
STARTCHAR uni5394
ENCODING 21396
SWIDTH 500 0
DWIDTH 6 0
BBX 10 10 0 -1
BITMAP
7FC0
4000
5FC0
4400
4900
5F80
4200
5F80
8200
BFC0
ENDCHAR
STARTCHAR uni5395
ENCODING 21397
SWIDTH 500 0
DWIDTH 6 0
BBX 10 10 0 -1
BITMAP
FFC0
8000
BD40
A540
AD40
AD40
AD40
A940
9440
A2C0
ENDCHAR
STARTCHAR uni5396
ENCODING 21398
SWIDTH 500 0
DWIDTH 6 0
BBX 10 10 0 -1
BITMAP
7FC0
4840
4C80
4B40
7E80
4940
4A80
5900
A840
CFC0
ENDCHAR
STARTCHAR uni5397
ENCODING 21399
SWIDTH 500 0
DWIDTH 6 0
BBX 10 10 0 -1
BITMAP
7FC0
4200
5FC0
4880
4500
5FC0
4200
4F80
8200
8200
ENDCHAR
STARTCHAR uni5398
ENCODING 21400
SWIDTH 500 0
DWIDTH 6 0
BBX 10 10 0 -1
BITMAP
7FC0
5240
5FC0
5240
5FC0
5240
4200
5FC0
8200
BFC0
ENDCHAR
STARTCHAR uni5399
ENCODING 21401
SWIDTH 500 0
DWIDTH 6 0
BBX 10 10 0 -1
BITMAP
7FC0
4200
7FC0
5280
5F80
5280
5F80
4200
BFC0
8200
ENDCHAR
STARTCHAR uni539A
ENCODING 21402
SWIDTH 500 0
DWIDTH 6 0
BBX 10 10 0 -1
BITMAP
3FC0
2880
2F80
2880
3FC0
2100
2200
3FC0
4200
8600
ENDCHAR
STARTCHAR uni539C
ENCODING 21404
SWIDTH 500 0
DWIDTH 6 0
BBX 10 10 0 -1
BITMAP
7FC0
4180
5E00
5FC0
4A80
7FC0
4A80
5FC0
8200
BFC0
ENDCHAR
STARTCHAR uni539D
ENCODING 21405
SWIDTH 500 0
DWIDTH 6 0
BBX 10 10 0 -1
BITMAP
7FC0
4900
5FC0
4900
7FC0
5080
5F80
5080
9F80
9080
ENDCHAR
STARTCHAR uni539E
ENCODING 21406
SWIDTH 500 0
DWIDTH 6 0
BBX 10 10 0 -1
BITMAP
7FC0
4900
4900
79C0
4900
79C0
4900
79C0
8900
8900
ENDCHAR
STARTCHAR uni539F
ENCODING 21407
SWIDTH 500 0
DWIDTH 6 0
BBX 10 10 0 -1
BITMAP
7FC0
4400
5F80
5080
5F80
5080
5F80
5500
A480
CC40
ENDCHAR
STARTCHAR uni53A2
ENCODING 21410
SWIDTH 500 0
DWIDTH 6 0
BBX 10 10 0 -1
BITMAP
7FC0
4800
4BC0
7E40
4BC0
4E40
5BC0
6A40
4BC0
8A40
ENDCHAR
STARTCHAR uni53A3
ENCODING 21411
SWIDTH 500 0
DWIDTH 6 0
BBX 10 10 0 -1
BITMAP
7FC0
4500
7FC0
4880
7FC0
5280
5F80
5280
9F80
8200
ENDCHAR
STARTCHAR uni53A4
ENCODING 21412
SWIDTH 500 0
DWIDTH 6 0
BBX 10 10 0 -1
BITMAP
FF80
8000
BB80
9100
FF80
9100
BB80
D540
9100
9100
ENDCHAR
STARTCHAR uni53A5
ENCODING 21413
SWIDTH 500 0
DWIDTH 6 0
BBX 10 10 0 -1
BITMAP
FFC0
9500
FF00
89C0
AA40
AA80
BE80
8880
9140
A240
ENDCHAR
STARTCHAR uni53A6
ENCODING 21414
SWIDTH 500 0
DWIDTH 6 0
BBX 10 10 0 -1
BITMAP
7FC0
4400
5F80
5080
5F80
5080
5F80
5500
A200
9DC0
ENDCHAR
STARTCHAR uni53A7
ENCODING 21415
SWIDTH 500 0
DWIDTH 6 0
BBX 10 10 0 -1
BITMAP
7FC0
4200
7FC0
5080
5E80
5780
5080
7FC0
8900
B0C0
ENDCHAR
STARTCHAR uni53A8
ENCODING 21416
SWIDTH 500 0
DWIDTH 6 0
BBX 10 10 0 -1
BITMAP
7FC0
4080
5C80
43C0
5C80
5680
5D80
5480
8880
BD80
ENDCHAR
STARTCHAR uni53A9
ENCODING 21417
SWIDTH 500 0
DWIDTH 6 0
BBX 10 10 0 -1
BITMAP
7FC0
4000
5FC0
5480
5C80
57C0
5C80
5180
5E80
94C0
ENDCHAR
STARTCHAR uni53AC
ENCODING 21420
SWIDTH 500 0
DWIDTH 6 0
BBX 10 10 0 -1
BITMAP
7FC0
5080
5F80
5080
5F80
5580
6940
5FC0
9080
9F80
ENDCHAR
STARTCHAR uni53AD
ENCODING 21421
SWIDTH 500 0
DWIDTH 6 0
BBX 10 10 0 -1
BITMAP
7FC0
5500
5D80
5540
5FC0
5500
5D00
5500
5E80
A440
ENDCHAR
STARTCHAR uni53AE
ENCODING 21422
SWIDTH 500 0
DWIDTH 6 0
BBX 10 10 0 -1
BITMAP
7FC0
5440
7F80
5500
5DC0
5D40
5540
7F40
9540
A240
ENDCHAR
STARTCHAR uni53B2
ENCODING 21426
SWIDTH 500 0
DWIDTH 6 0
BBX 10 10 0 -1
BITMAP
7FC0
4900
5F80
5280
5F80
5280
7FC0
62C0
AF40
A0C0
ENDCHAR
STARTCHAR uni53B4
ENCODING 21428
SWIDTH 500 0
DWIDTH 6 0
BBX 10 10 0 -1
BITMAP
7FC0
5540
5FC0
5500
5FC0
5240
5FC0
5240
9FC0
8200
ENDCHAR
STARTCHAR uni53B6
ENCODING 21430
SWIDTH 500 0
DWIDTH 6 0
BBX 10 10 0 -1
BITMAP
0400
0400
0800
0800
1000
1100
2080
47C0
F840
4000
ENDCHAR
STARTCHAR uni53B9
ENCODING 21433
SWIDTH 500 0
DWIDTH 6 0
BBX 9 10 0 -1
BITMAP
2000
FC00
2400
2480
4480
9380
1000
2200
FF00
4100
ENDCHAR
STARTCHAR uni53BB
ENCODING 21435
SWIDTH 500 0
DWIDTH 6 0
BBX 9 10 0 -1
BITMAP
0800
7F00
0800
0800
FF80
0800
1000
2200
7F00
2100
ENDCHAR
STARTCHAR uni53BF
ENCODING 21439
SWIDTH 500 0
DWIDTH 6 0
BBX 9 10 0 -1
BITMAP
3E00
2200
3E00
2200
3E00
2200
FF80
1200
2700
7900
ENDCHAR
STARTCHAR uni53C1
ENCODING 21441
SWIDTH 500 0
DWIDTH 6 0
BBX 10 10 0 -1
BITMAP
0900
3F80
0480
7FC0
2100
5E80
8040
3F00
0000
7FC0
ENDCHAR
STARTCHAR uni53C2
ENCODING 21442
SWIDTH 500 0
DWIDTH 6 0
BBX 9 10 0 -1
BITMAP
2200
7F00
1100
FF80
2A00
D180
2400
1900
0200
7C00
ENDCHAR
STARTCHAR uni53C3
ENCODING 21443
SWIDTH 500 0
DWIDTH 6 0
BBX 9 10 0 -1
BITMAP
1400
3E00
5500
FF80
2200
D980
2400
1900
0200
7C00
ENDCHAR
STARTCHAR uni53C8
ENCODING 21448
SWIDTH 500 0
DWIDTH 6 0
BBX 10 10 0 -1
BITMAP
7F80
2080
2080
1100
1100
0A00
0400
0A00
3100
C0C0
ENDCHAR
STARTCHAR uni53C9
ENCODING 21449
SWIDTH 500 0
DWIDTH 6 0
BBX 10 10 0 -1
BITMAP
7F80
2880
2480
1500
1100
0A00
0400
0A00
3100
C0C0
ENDCHAR
STARTCHAR uni53CA
ENCODING 21450
SWIDTH 500 0
DWIDTH 6 0
BBX 10 10 0 -1
BITMAP
7F00
0900
0A00
0B80
0880
1500
1500
2200
4500
98C0
ENDCHAR
STARTCHAR uni53CB
ENCODING 21451
SWIDTH 500 0
DWIDTH 6 0
BBX 10 10 0 -1
BITMAP
0800
FFC0
0800
1000
1F00
1100
2900
4600
8900
30C0
ENDCHAR
STARTCHAR uni53CC
ENCODING 21452
SWIDTH 500 0
DWIDTH 6 0
BBX 9 9 0 -1
BITMAP
FF80
1480
9480
5500
2500
2200
5200
9500
0880
ENDCHAR
STARTCHAR uni53CD
ENCODING 21453
SWIDTH 500 0
DWIDTH 6 0
BBX 10 10 0 -1
BITMAP
2180
3E00
2000
3F80
2900
2900
2500
2200
4500
98C0
ENDCHAR
STARTCHAR uni53D1
ENCODING 21457
SWIDTH 500 0
DWIDTH 6 0
BBX 9 10 0 -1
BITMAP
4A00
4900
FF80
1000
1E00
3200
5200
8C00
1200
6180
ENDCHAR
STARTCHAR uni53D4
ENCODING 21460
SWIDTH 500 0
DWIDTH 6 0
BBX 10 10 0 -1
BITMAP
1080
1FC0
1280
1280
FE80
1280
5A80
9500
1280
3440
ENDCHAR
STARTCHAR uni53D6
ENCODING 21462
SWIDTH 500 0
DWIDTH 6 0
BBX 10 10 0 -1
BITMAP
FC00
4FC0
7A40
4A40
7A40
4A80
5E80
E900
0A80
0C40
ENDCHAR
STARTCHAR uni53D7
ENCODING 21463
SWIDTH 500 0
DWIDTH 6 0
BBX 10 10 0 -1
BITMAP
7F80
2880
1500
FFC0
8040
3F00
1200
0C00
3300
C0C0
ENDCHAR
STARTCHAR uni53D8
ENCODING 21464
SWIDTH 500 0
DWIDTH 6 0
BBX 9 10 0 -1
BITMAP
0800
FF80
1400
5500
9480
7F00
2200
1400
1C00
E380
ENDCHAR
STARTCHAR uni53D9
ENCODING 21465
SWIDTH 500 0
DWIDTH 6 0
BBX 10 10 0 -1
BITMAP
1000
2BC0
4640
BA40
1240
FE80
5280
5900
9680
3440
ENDCHAR
STARTCHAR uni53DB
ENCODING 21467
SWIDTH 500 0
DWIDTH 6 0
BBX 10 10 0 -1
BITMAP
A8C0
7700
2400
FFC0
2440
FC80
2680
2500
4A80
9440
ENDCHAR
STARTCHAR uni53DF
ENCODING 21471
SWIDTH 500 0
DWIDTH 6 0
BBX 10 10 0 -1
BITMAP
EBC0
8840
FBC0
8840
FFC0
0800
7F80
2100
1E00
E1C0
ENDCHAR
STARTCHAR uni53E0
ENCODING 21472
SWIDTH 500 0
DWIDTH 6 0
BBX 9 10 0 -1
BITMAP
3F00
1400
FF80
A500
5A80
FF80
A280
3E00
2200
FF80
ENDCHAR
STARTCHAR uni53E1
ENCODING 21473
SWIDTH 500 0
DWIDTH 6 0
BBX 10 10 0 -1
BITMAP
1FC0
1140
FD40
B540
4940
FD40
4940
7880
4940
7A40
ENDCHAR
STARTCHAR uni53E2
ENCODING 21474
SWIDTH 500 0
DWIDTH 6 0
BBX 9 10 0 -1
BITMAP
5500
FF80
1400
7F00
0800
FF80
5500
7500
5200
FD80
ENDCHAR
STARTCHAR uni53E3
ENCODING 21475
SWIDTH 500 0
DWIDTH 6 0
BBX 8 9 0 0
BITMAP
82
FF
82
82
82
82
82
FE
82
ENDCHAR
STARTCHAR uni53E4
ENCODING 21476
SWIDTH 500 0
DWIDTH 6 0
BBX 9 10 0 -1
BITMAP
0800
0800
FF80
0800
0800
7F00
4100
4100
7F00
4100
ENDCHAR
STARTCHAR uni53E5
ENCODING 21477
SWIDTH 500 0
DWIDTH 6 0
BBX 10 10 0 -1
BITMAP
2000
3FC0
4040
BE40
2240
2240
3E40
2240
0040
0180
ENDCHAR
STARTCHAR uni53E6
ENCODING 21478
SWIDTH 500 0
DWIDTH 6 0
BBX 9 10 0 -1
BITMAP
7F00
4100
7F00
4100
0800
FF80
0880
1080
2080
C700
ENDCHAR
STARTCHAR uni53E8
ENCODING 21480
SWIDTH 500 0
DWIDTH 6 0
BBX 10 10 0 -1
BITMAP
0FC0
F240
9240
9240
9240
F240
9440
0440
0940
3080
ENDCHAR
STARTCHAR uni53E9
ENCODING 21481
SWIDTH 500 0
DWIDTH 6 0
BBX 10 10 0 -1
BITMAP
F7C0
9440
9440
9440
9440
F440
9540
0480
0400
0400
ENDCHAR
STARTCHAR uni53EA
ENCODING 21482
SWIDTH 500 0
DWIDTH 6 0
BBX 9 10 0 -1
BITMAP
7F00
4100
4100
4100
7F00
4100
1200
2100
4080
8080
ENDCHAR
STARTCHAR uni53EB
ENCODING 21483
SWIDTH 500 0
DWIDTH 6 0
BBX 10 10 0 -1
BITMAP
0040
F440
9440
9440
94C0
9540
F640
9040
0040
0040
ENDCHAR
STARTCHAR uni53EC
ENCODING 21484
SWIDTH 500 0
DWIDTH 6 0
BBX 8 10 0 -1
BITMAP
FF
11
11
25
42
BF
21
21
3F
21
ENDCHAR
STARTCHAR uni53ED
ENCODING 21485
SWIDTH 500 0
DWIDTH 6 0
BBX 10 10 0 -1
BITMAP
0500
E500
A500
A500
A500
A500
E480
A880
0840
1040
ENDCHAR
STARTCHAR uni53EE
ENCODING 21486
SWIDTH 500 0
DWIDTH 6 0
BBX 10 10 0 -1
BITMAP
F7C0
9100
9100
9100
9100
F100
9100
0100
0500
0200
ENDCHAR
STARTCHAR uni53EF
ENCODING 21487
SWIDTH 500 0
DWIDTH 6 0
BBX 10 10 0 -1
BITMAP
FFC0
0100
0100
7900
4900
4900
7900
4900
0500
0200
ENDCHAR
STARTCHAR uni53F0
ENCODING 21488
SWIDTH 500 0
DWIDTH 6 0
BBX 9 10 0 -1
BITMAP
1000
2200
4100
FF80
0080
7F00
4100
4100
7F00
4100
ENDCHAR
STARTCHAR uni53F1
ENCODING 21489
SWIDTH 500 0
DWIDTH 6 0
BBX 10 10 0 -1
BITMAP
0200
F200
92C0
9280
9300
9200
F600
9A40
0240
01C0
ENDCHAR
STARTCHAR uni53F2
ENCODING 21490
SWIDTH 500 0
DWIDTH 6 0
BBX 10 10 0 -1
BITMAP
0400
7FC0
4440
4440
7FC0
4440
1400
0C00
3300
C0C0
ENDCHAR
STARTCHAR uni53F3
ENCODING 21491
SWIDTH 500 0
DWIDTH 6 0
BBX 10 10 0 -1
BITMAP
0800
0800
FFC0
0800
1000
3F80
5080
9080
1F80
1080
ENDCHAR
STARTCHAR uni53F5
ENCODING 21493
SWIDTH 500 0
DWIDTH 6 0
BBX 9 10 0 -1
BITMAP
FF80
8000
8000
9E00
9200
9200
9E00
8000
8000
FF80
ENDCHAR
STARTCHAR uni53F6
ENCODING 21494
SWIDTH 500 0
DWIDTH 6 0
BBX 10 10 0 -1
BITMAP
0100
F100
9100
97C0
9100
9100
F100
9100
0100
0100
ENDCHAR
STARTCHAR uni53F7
ENCODING 21495
SWIDTH 500 0
DWIDTH 6 0
BBX 9 10 0 -1
BITMAP
7F00
4100
7F00
0000
FF80
2000
7F00
0100
0100
0E00
ENDCHAR
STARTCHAR uni53F8
ENCODING 21496
SWIDTH 500 0
DWIDTH 6 0
BBX 10 10 0 -1
BITMAP
FFC0
0040
FE40
0040
7C40
4440
7C40
4440
0140
0080
ENDCHAR
STARTCHAR uni53F9
ENCODING 21497
SWIDTH 500 0
DWIDTH 6 0
BBX 10 10 0 -1
BITMAP
0F80
E880
A880
A880
A500
A500
E200
A500
0880
1040
ENDCHAR
STARTCHAR uni53FB
ENCODING 21499
SWIDTH 500 0
DWIDTH 6 0
BBX 10 10 0 -1
BITMAP
0200
F200
9FC0
9240
9240
9240
F240
9440
0940
1080
ENDCHAR
STARTCHAR uni53FC
ENCODING 21500
SWIDTH 500 0
DWIDTH 6 0
BBX 10 10 0 -1
BITMAP
0FC0
F040
9040
9140
9240
F440
9840
0040
0140
0080
ENDCHAR
STARTCHAR uni53FD
ENCODING 21501
SWIDTH 500 0
DWIDTH 6 0
BBX 10 10 0 -1
BITMAP
0F00
E900
A900
A900
A900
A900
E900
A940
1140
20C0
ENDCHAR
STARTCHAR uni5401
ENCODING 21505
SWIDTH 500 0
DWIDTH 6 0
BBX 10 10 0 -1
BITMAP
0FC0
F100
9100
9100
9FC0
F100
9100
0100
0500
0300
ENDCHAR
STARTCHAR uni5403
ENCODING 21507
SWIDTH 500 0
DWIDTH 6 0
BBX 10 10 0 -1
BITMAP
0400
F7C0
9800
9780
9080
9100
F200
9440
0440
03C0
ENDCHAR
STARTCHAR uni5404
ENCODING 21508
SWIDTH 500 0
DWIDTH 6 0
BBX 9 10 0 -1
BITMAP
3E00
2200
5400
8800
3600
C180
3E00
2200
3E00
2200
ENDCHAR
STARTCHAR uni5406
ENCODING 21510
SWIDTH 500 0
DWIDTH 6 0
BBX 10 10 0 -1
BITMAP
0200
E200
A4C0
A880
BF00
A100
E200
A480
0BC0
1C40
ENDCHAR
STARTCHAR uni5407
ENCODING 21511
SWIDTH 500 0
DWIDTH 6 0
BBX 10 10 0 -1
BITMAP
1F80
E100
A200
A200
BFC0
A200
E200
A200
0A00
0400
ENDCHAR
STARTCHAR uni5408
ENCODING 21512
SWIDTH 500 0
DWIDTH 6 0
BBX 9 10 0 -1
BITMAP
0800
1400
2200
4100
BE80
0000
7F00
4100
7F00
4100
ENDCHAR
STARTCHAR uni5409
ENCODING 21513
SWIDTH 500 0
DWIDTH 6 0
BBX 9 10 0 -1
BITMAP
0800
FF80
0800
0800
7F00
0000
7F00
4100
7F00
4100
ENDCHAR
STARTCHAR uni540A
ENCODING 21514
SWIDTH 500 0
DWIDTH 6 0
BBX 9 10 0 -1
BITMAP
7F00
4100
7F00
4900
0800
FF80
8880
8880
8B80
0800
ENDCHAR
STARTCHAR uni540B
ENCODING 21515
SWIDTH 500 0
DWIDTH 6 0
BBX 10 10 0 -1
BITMAP
0100
E100
BFC0
A100
A900
A500
E500
A100
0100
0700
ENDCHAR
STARTCHAR uni540C
ENCODING 21516
SWIDTH 500 0
DWIDTH 6 0
BBX 9 10 0 -1
BITMAP
FF80
8080
BE80
8080
BE80
A280
BE80
A280
8080
8380
ENDCHAR
STARTCHAR uni540D
ENCODING 21517
SWIDTH 500 0
DWIDTH 6 0
BBX 9 10 0 -1
BITMAP
1000
1F80
2100
D200
0C00
1F80
F080
1080
1F80
1080
ENDCHAR
STARTCHAR uni540E
ENCODING 21518
SWIDTH 500 0
DWIDTH 6 0
BBX 10 10 0 -1
BITMAP
0180
3E00
2000
3FC0
2000
2F80
2880
2880
4F80
8880
ENDCHAR
STARTCHAR uni540F
ENCODING 21519
SWIDTH 500 0
DWIDTH 6 0
BBX 9 10 0 -1
BITMAP
0800
FF80
0800
7F00
4900
7F00
4900
3000
1800
E780
ENDCHAR
STARTCHAR uni5410
ENCODING 21520
SWIDTH 500 0
DWIDTH 6 0
BBX 10 10 0 -1
BITMAP
0200
E200
A200
AF80
A200
A200
E200
A200
0200
1FC0
ENDCHAR
STARTCHAR uni5411
ENCODING 21521
SWIDTH 500 0
DWIDTH 6 0
BBX 10 10 0 -1
BITMAP
0800
1000
FFC0
8040
9E40
9240
9240
9E40
8040
81C0
ENDCHAR
STARTCHAR uni5412
ENCODING 21522
SWIDTH 500 0
DWIDTH 6 0
BBX 10 10 0 -1
BITMAP
0180
EE00
A200
A200
A3C0
AE00
E200
A240
0240
01C0
ENDCHAR
STARTCHAR uni5413
ENCODING 21523
SWIDTH 500 0
DWIDTH 6 0
BBX 10 10 0 -1
BITMAP
0FC0
E200
A200
A300
A280
A240
E200
A200
0200
0200
ENDCHAR
STARTCHAR uni5415
ENCODING 21525
SWIDTH 500 0
DWIDTH 6 0
BBX 8 10 0 -1
BITMAP
7E
42
42
7E
00
FF
81
81
FF
81
ENDCHAR
STARTCHAR uni5416
ENCODING 21526
SWIDTH 500 0
DWIDTH 6 0
BBX 10 10 0 -1
BITMAP
10C0
E880
A500
A200
A200
A200
E200
A200
0200
0200
ENDCHAR
STARTCHAR uni5417
ENCODING 21527
SWIDTH 500 0
DWIDTH 6 0
BBX 10 10 0 -1
BITMAP
0F80
E480
A480
A900
AFC0
A040
E040
AF40
0040
0180
ENDCHAR
STARTCHAR uni5418
ENCODING 21528
SWIDTH 500 0
DWIDTH 6 0
BBX 10 10 0 -1
BITMAP
0800
EF80
B200
A200
A200
BFC0
E200
A200
0200
0200
ENDCHAR
STARTCHAR uni5419
ENCODING 21529
SWIDTH 500 0
DWIDTH 6 0
BBX 10 10 0 -1
BITMAP
0200
E200
AAC0
AA80
B300
A200
E200
A500
08C0
1040
ENDCHAR
STARTCHAR uni541B
ENCODING 21531
SWIDTH 500 0
DWIDTH 6 0
BBX 9 10 0 -1
BITMAP
7F00
1100
FF80
2100
FF00
4000
7F00
A100
3F00
2100
ENDCHAR
STARTCHAR uni541C
ENCODING 21532
SWIDTH 500 0
DWIDTH 6 0
BBX 10 10 0 -1
BITMAP
1F80
E480
A480
A480
BF80
A480
E480
A480
0480
3FC0
ENDCHAR
STARTCHAR uni541D
ENCODING 21533
SWIDTH 500 0
DWIDTH 6 0
BBX 9 10 0 -1
BITMAP
0800
FF80
2200
1C00
2200
C180
7F00
4100
7F00
4100
ENDCHAR
STARTCHAR uni541E
ENCODING 21534
SWIDTH 500 0
DWIDTH 6 0
BBX 10 10 0 -1
BITMAP
7F80
0800
FFC0
1200
2100
FFC0
2100
2100
3F00
2100
ENDCHAR
STARTCHAR uni541F
ENCODING 21535
SWIDTH 500 0
DWIDTH 6 0
BBX 10 10 0 -1
BITMAP
0200
E500
A880
B240
A100
AFC0
E080
A080
0100
0200
ENDCHAR
STARTCHAR uni5420
ENCODING 21536
SWIDTH 500 0
DWIDTH 6 0
BBX 10 10 0 -1
BITMAP
0200
F280
9240
9FC0
9200
9200
F200
9500
0880
1040
ENDCHAR
STARTCHAR uni5421
ENCODING 21537
SWIDTH 500 0
DWIDTH 6 0
BBX 10 10 0 -1
BITMAP
0900
E900
A940
AF80
A900
A900
E900
AB40
0D40
09C0
ENDCHAR
STARTCHAR uni5423
ENCODING 21539
SWIDTH 500 0
DWIDTH 6 0
BBX 10 10 0 -1
BITMAP
0200
E100
A100
A400
A480
AC40
F440
A400
0480
0380
ENDCHAR
STARTCHAR uni5424
ENCODING 21540
SWIDTH 500 0
DWIDTH 6 0
BBX 10 10 0 -1
BITMAP
0200
E500
A880
B040
A480
A480
E480
A480
0880
1080
ENDCHAR
STARTCHAR uni5425
ENCODING 21541
SWIDTH 500 0
DWIDTH 6 0
BBX 10 10 0 -1
BITMAP
1FC0
E200
A200
A700
AA80
B240
E200
A200
0200
0200
ENDCHAR
STARTCHAR uni5426
ENCODING 21542
SWIDTH 500 0
DWIDTH 6 0
BBX 9 10 0 -1
BITMAP
FF80
0800
1A00
2900
C880
7F00
4100
4100
7F00
4100
ENDCHAR
STARTCHAR uni5427
ENCODING 21543
SWIDTH 500 0
DWIDTH 6 0
BBX 10 10 0 -1
BITMAP
0F80
EA80
AA80
AA80
AF80
A800
E800
A840
0840
07C0
ENDCHAR
STARTCHAR uni5428
ENCODING 21544
SWIDTH 500 0
DWIDTH 6 0
BBX 10 10 0 -1
BITMAP
0200
EFC0
A200
AA80
AA80
AA80
EF80
A200
0240
03C0
ENDCHAR
STARTCHAR uni5429
ENCODING 21545
SWIDTH 500 0
DWIDTH 6 0
BBX 10 10 0 -1
BITMAP
0500
E500
A880
B040
AF80
E480
A480
0480
0A80
1100
ENDCHAR
STARTCHAR uni542A
ENCODING 21546
SWIDTH 500 0
DWIDTH 6 0
BBX 10 10 0 -1
BITMAP
0600
EA00
AA00
BA80
AB00
AE00
EA00
AA40
0A40
09C0
ENDCHAR
STARTCHAR uni542B
ENCODING 21547
SWIDTH 500 0
DWIDTH 6 0
BBX 9 10 0 -1
BITMAP
1C00
2200
5100
8880
7E00
0400
7F00
4100
7F00
4100
ENDCHAR
STARTCHAR uni542C
ENCODING 21548
SWIDTH 500 0
DWIDTH 6 0
BBX 10 10 0 -1
BITMAP
F7C0
9400
9400
97C0
9480
F480
9480
0480
0880
1080
ENDCHAR
STARTCHAR uni542D
ENCODING 21549
SWIDTH 500 0
DWIDTH 6 0
BBX 10 10 0 -1
BITMAP
0200
FFC0
A000
A700
A500
A500
E500
A540
0940
10C0
ENDCHAR
STARTCHAR uni542E
ENCODING 21550
SWIDTH 500 0
DWIDTH 6 0
BBX 10 10 0 -1
BITMAP
0200
E400
A880
BFC0
A540
A500
E500
A540
0940
30C0
ENDCHAR
STARTCHAR uni542F
ENCODING 21551
SWIDTH 500 0
DWIDTH 6 0
BBX 10 10 0 -1
BITMAP
0400
7FC0
4040
7FC0
4000
5FC0
5040
5040
5FC0
9040
ENDCHAR
STARTCHAR uni5430
ENCODING 21552
SWIDTH 500 0
DWIDTH 6 0
BBX 10 10 0 -1
BITMAP
0400
E400
BFC0
A400
A500
A500
EA00
9480
2FC0
0440
ENDCHAR
STARTCHAR uni5431
ENCODING 21553
SWIDTH 500 0
DWIDTH 6 0
BBX 10 10 0 -1
BITMAP
0200
FFC0
A200
A200
BFC0
E880
A500
0200
0500
18C0
ENDCHAR
STARTCHAR uni5432
ENCODING 21554
SWIDTH 500 0
DWIDTH 6 0
BBX 10 10 0 -1
BITMAP
0F40
E140
AF40
A940
A840
AF40
E140
A140
0940
0640
ENDCHAR
STARTCHAR uni5433
ENCODING 21555
SWIDTH 500 0
DWIDTH 6 0
BBX 9 10 0 -1
BITMAP
1F00
5100
5F00
4000
7F00
0900
FF80
1400
2200
C180
ENDCHAR
STARTCHAR uni5434
ENCODING 21556
SWIDTH 500 0
DWIDTH 6 0
BBX 9 10 0 -1
BITMAP
7F00
4100
7F00
0000
7F00
0800
FF80
1400
2200
C180
ENDCHAR
STARTCHAR uni5435
ENCODING 21557
SWIDTH 500 0
DWIDTH 6 0
BBX 10 10 0 -1
BITMAP
0200
E200
AA80
AA40
B200
A240
E080
A100
0600
1800
ENDCHAR
STARTCHAR uni5436
ENCODING 21558
SWIDTH 500 0
DWIDTH 6 0
BBX 10 10 0 -1
BITMAP
0100
E100
AFC0
A940
A940
AAC0
EC40
A840
0840
08C0
ENDCHAR
STARTCHAR uni5437
ENCODING 21559
SWIDTH 500 0
DWIDTH 6 0
BBX 10 10 0 -1
BITMAP
0200
E200
AF80
A280
A280
BFC0
E200
A500
0880
1040
ENDCHAR
STARTCHAR uni5438
ENCODING 21560
SWIDTH 500 0
DWIDTH 6 0
BBX 10 10 0 -1
BITMAP
0F80
F480
9500
9580
9480
F480
9680
0900
1280
2C40
ENDCHAR
STARTCHAR uni5439
ENCODING 21561
SWIDTH 500 0
DWIDTH 6 0
BBX 10 10 0 -1
BITMAP
0800
EFC0
A840
B280
A200
A200
E200
A500
0880
1040
ENDCHAR
STARTCHAR uni543B
ENCODING 21563
SWIDTH 500 0
DWIDTH 6 0
BBX 10 10 0 -1
BITMAP
0800
E800
AFC0
B540
A540
E540
AA40
1240
0440
0980
ENDCHAR
STARTCHAR uni543C
ENCODING 21564
SWIDTH 500 0
DWIDTH 6 0
BBX 10 10 0 -1
BITMAP
1F00
E500
A900
AB00
AD00
B900
E900
A940
0940
18C0
ENDCHAR
STARTCHAR uni543D
ENCODING 21565
SWIDTH 500 0
DWIDTH 6 0
BBX 10 10 0 -1
BITMAP
0A00
EA00
AF80
B200
A200
BFC0
E200
A200
0200
0200
ENDCHAR
STARTCHAR uni543E
ENCODING 21566
SWIDTH 500 0
DWIDTH 6 0
BBX 10 10 0 -1
BITMAP
7F80
0800
3F00
0900
FFC0
0000
3F80
2080
3F80
2080
ENDCHAR
STARTCHAR uni5440
ENCODING 21568
SWIDTH 500 0
DWIDTH 6 0
BBX 10 10 0 -1
BITMAP
0FC0
F080
9480
9480
9FC0
F180
9280
0480
0880
1380
ENDCHAR
STARTCHAR uni5441
ENCODING 21569
SWIDTH 500 0
DWIDTH 6 0
BBX 10 10 0 -1
BITMAP
0400
F7C0
9840
9440
9240
90C0
F340
9C40
0040
0180
ENDCHAR
STARTCHAR uni5442
ENCODING 21570
SWIDTH 500 0
DWIDTH 6 0
BBX 9 10 0 -1
BITMAP
7F00
4100
4100
7F00
0800
FF80
8080
8080
FF80
8080
ENDCHAR
STARTCHAR uni5443
ENCODING 21571
SWIDTH 500 0
DWIDTH 6 0
BBX 10 10 0 -1
BITMAP
0FC0
E800
ABC0
AA40
AA40
EAC0
AA00
0A40
1240
21C0
ENDCHAR
STARTCHAR uni5445
ENCODING 21573
SWIDTH 500 0
DWIDTH 6 0
BBX 10 10 0 -1
BITMAP
0200
FFC0
A880
A880
A500
A500
E200
A500
0880
1040
ENDCHAR
STARTCHAR uni5446
ENCODING 21574
SWIDTH 500 0
DWIDTH 6 0
BBX 10 10 0 -1
BITMAP
3F80
2080
2080
3F80
0400
7FC0
1600
2500
4480
8440
ENDCHAR
STARTCHAR uni5447
ENCODING 21575
SWIDTH 500 0
DWIDTH 6 0
BBX 9 10 0 -1
BITMAP
0980
FA00
2C00
4A00
A980
1000
7F00
4100
7F00
4100
ENDCHAR
STARTCHAR uni5448
ENCODING 21576
SWIDTH 500 0
DWIDTH 6 0
BBX 9 10 0 -1
BITMAP
7F00
4100
7F00
4100
0600
7800
0800
7F00
0800
FF80
ENDCHAR
STARTCHAR uni544A
ENCODING 21578
SWIDTH 500 0
DWIDTH 6 0
BBX 9 10 0 -1
BITMAP
4800
7F00
8800
0800
FF80
0000
7F00
4100
7F00
4100
ENDCHAR
STARTCHAR uni544B
ENCODING 21579
SWIDTH 500 0
DWIDTH 6 0
BBX 10 10 0 -1
BITMAP
0200
EF80
A200
A200
BFC0
A200
E200
A500
0880
1040
ENDCHAR
STARTCHAR uni544E
ENCODING 21582
SWIDTH 500 0
DWIDTH 6 0
BBX 10 10 0 -1
BITMAP
0F80
E880
A880
AF80
AA80
EA00
AA00
1100
2080
4040
ENDCHAR
STARTCHAR uni544F
ENCODING 21583
SWIDTH 500 0
DWIDTH 6 0
BBX 10 10 0 -1
BITMAP
0280
EC80
A480
A480
BFC0
A480
E480
A480
0880
1080
ENDCHAR
STARTCHAR uni5450
ENCODING 21584
SWIDTH 500 0
DWIDTH 6 0
BBX 10 10 0 -1
BITMAP
0100
F100
97C0
9540
9540
9540
F6C0
9440
0440
04C0
ENDCHAR
STARTCHAR uni5452
ENCODING 21586
SWIDTH 500 0
DWIDTH 6 0
BBX 10 10 0 -1
BITMAP
0FC0
E200
A200
BFC0
A500
A500
E500
A940
1140
20C0
ENDCHAR
STARTCHAR uni5453
ENCODING 21587
SWIDTH 500 0
DWIDTH 6 0
BBX 10 10 0 -1
BITMAP
0500
FFC0
A500
AF80
A100
A200
E400
A840
0840
07C0
ENDCHAR
STARTCHAR uni5454
ENCODING 21588
SWIDTH 500 0
DWIDTH 6 0
BBX 10 10 0 -1
BITMAP
0200
E200
BFC0
A200
A200
A200
E500
A880
1440
2240
ENDCHAR
STARTCHAR uni5455
ENCODING 21589
SWIDTH 500 0
DWIDTH 6 0
BBX 10 10 0 -1
BITMAP
0FC0
E800
AC80
AA80
A900
A900
EA80
AC80
0800
0FC0
ENDCHAR
STARTCHAR uni5456
ENCODING 21590
SWIDTH 500 0
DWIDTH 6 0
BBX 10 10 0 -1
BITMAP
0FC0
E900
A900
AFC0
A940
A940
E940
AA40
1440
2980
ENDCHAR
STARTCHAR uni5457
ENCODING 21591
SWIDTH 500 0
DWIDTH 6 0
BBX 9 10 0 -1
BITMAP
0F80
E880
AA80
AA80
AA80
AA80
EA80
A200
0500
0880
ENDCHAR
STARTCHAR uni5458
ENCODING 21592
SWIDTH 500 0
DWIDTH 6 0
BBX 9 10 0 -1
BITMAP
7F00
4100
7F00
0000
FF80
8080
8880
8880
3600
C180
ENDCHAR
STARTCHAR uni5459
ENCODING 21593
SWIDTH 500 0
DWIDTH 6 0
BBX 9 10 0 -1
BITMAP
7F00
4100
7F00
0800
FF80
8880
9480
A280
8080
8380
ENDCHAR
STARTCHAR uni545B
ENCODING 21595
SWIDTH 500 0
DWIDTH 6 0
BBX 10 10 0 -1
BITMAP
0300
E480
A840
B780
A480
A480
E580
A400
0440
03C0
ENDCHAR
STARTCHAR uni545C
ENCODING 21596
SWIDTH 500 0
DWIDTH 6 0
BBX 10 10 0 -1
BITMAP
0200
EF80
A880
A980
A800
AFC0
E040
AF40
0040
0180
ENDCHAR
STARTCHAR uni5460
ENCODING 21600
SWIDTH 500 0
DWIDTH 6 0
BBX 10 10 0 -1
BITMAP
0200
FFC0
A200
A700
AA80
F240
A200
0F80
0200
0200
ENDCHAR
STARTCHAR uni5461
ENCODING 21601
SWIDTH 500 0
DWIDTH 6 0
BBX 10 10 0 -1
BITMAP
0FC0
E840
AFC0
A900
A900
AFC0
E900
A940
0AC0
0C40
ENDCHAR
STARTCHAR uni5462
ENCODING 21602
SWIDTH 500 0
DWIDTH 6 0
BBX 10 10 0 -1
BITMAP
0F80
E880
A880
AF80
AA00
AA80
EB00
1240
2240
41C0
ENDCHAR
STARTCHAR uni5463
ENCODING 21603
SWIDTH 500 0
DWIDTH 6 0
BBX 10 10 0 -1
BITMAP
0F80
EC80
AA80
BFC0
AC80
EA80
AA80
1FC0
0080
0300
ENDCHAR
STARTCHAR uni5464
ENCODING 21604
SWIDTH 500 0
DWIDTH 6 0
BBX 10 10 0 -1
BITMAP
0300
E480
A840
A200
A100
AFC0
E080
A700
0100
0100
ENDCHAR
STARTCHAR uni5465
ENCODING 21605
SWIDTH 500 0
DWIDTH 6 0
BBX 10 10 0 -1
BITMAP
0200
EF80
AA80
AF80
AA80
BFC0
E880
A880
0880
0980
ENDCHAR
STARTCHAR uni5466
ENCODING 21606
SWIDTH 500 0
DWIDTH 6 0
BBX 10 10 0 -1
BITMAP
0500
E500
ABC0
B540
BD40
A540
EB40
BD40
0240
04C0
ENDCHAR
STARTCHAR uni5467
ENCODING 21607
SWIDTH 500 0
DWIDTH 6 0
BBX 10 10 0 -1
BITMAP
0F80
EA00
AA00
AA00
AF80
AA00
EA00
A940
0CC0
0A40
ENDCHAR
STARTCHAR uni5468
ENCODING 21608
SWIDTH 500 0
DWIDTH 6 0
BBX 10 10 0 -1
BITMAP
7FC0
4440
5F40
4440
7FC0
4040
5F40
5140
5F40
80C0
ENDCHAR
STARTCHAR uni546B
ENCODING 21611
SWIDTH 500 0
DWIDTH 6 0
BBX 10 10 0 -1
BITMAP
0200
E200
A3C0
A200
A200
AFC0
E840
A840
0FC0
0840
ENDCHAR
STARTCHAR uni546C
ENCODING 21612
SWIDTH 500 0
DWIDTH 6 0
BBX 10 10 0 -1
BITMAP
1FC0
F540
B540
B540
B540
B5C0
F840
B040
1FC0
1040
ENDCHAR
STARTCHAR uni546F
ENCODING 21615
SWIDTH 500 0
DWIDTH 6 0
BBX 10 10 0 -1
BITMAP
EF80
A200
B240
AA80
A200
BFC0
E200
A200
0200
0200
ENDCHAR
STARTCHAR uni5470
ENCODING 21616
SWIDTH 500 0
DWIDTH 6 0
BBX 10 10 0 -1
BITMAP
12C0
5F00
5240
5240
FDC0
0000
3F80
2080
3F80
2080
ENDCHAR
STARTCHAR uni5471
ENCODING 21617
SWIDTH 500 0
DWIDTH 6 0
BBX 10 10 0 -1
BITMAP
00C0
EF80
AA80
AA80
AA80
AA80
EA80
AA80
1340
22C0
ENDCHAR
STARTCHAR uni5472
ENCODING 21618
SWIDTH 500 0
DWIDTH 6 0
BBX 10 10 0 -1
BITMAP
0500
E500
B540
B780
B500
B500
F500
9540
1D40
01C0
ENDCHAR
STARTCHAR uni5473
ENCODING 21619
SWIDTH 500 0
DWIDTH 6 0
BBX 10 10 0 -1
BITMAP
0200
EF80
A200
A200
BFC0
A200
E700
AA80
1240
2240
ENDCHAR
STARTCHAR uni5474
ENCODING 21620
SWIDTH 500 0
DWIDTH 6 0
BBX 10 10 0 -1
BITMAP
0800
EFC0
A840
B740
A540
A540
E740
A040
0040
0180
ENDCHAR
STARTCHAR uni5475
ENCODING 21621
SWIDTH 500 0
DWIDTH 6 0
BBX 10 10 0 -1
BITMAP
1FC0
E080
AE80
AA80
AA80
AA80
EE80
A080
0080
0380
ENDCHAR
STARTCHAR uni5476
ENCODING 21622
SWIDTH 500 0
DWIDTH 6 0
BBX 10 10 0 -1
BITMAP
0400
E5C0
BF40
A940
A940
AB40
E540
A480
0B40
1240
ENDCHAR
STARTCHAR uni5477
ENCODING 21623
SWIDTH 500 0
DWIDTH 6 0
BBX 10 10 0 -1
BITMAP
07C0
F540
9540
97C0
9540
9540
F7C0
9540
0100
0100
ENDCHAR
STARTCHAR uni5478
ENCODING 21624
SWIDTH 500 0
DWIDTH 6 0
BBX 10 10 0 -1
BITMAP
0F80
E200
A200
A200
A680
AA40
F240
8200
0200
1FC0
ENDCHAR
STARTCHAR uni547A
ENCODING 21626
SWIDTH 500 0
DWIDTH 6 0
BBX 10 10 0 -1
BITMAP
0780
E480
A780
A000
AFC0
A400
EFC0
A040
0240
0180
ENDCHAR
STARTCHAR uni547B
ENCODING 21627
SWIDTH 500 0
DWIDTH 6 0
BBX 10 10 0 -1
BITMAP
0100
EFC0
A940
A940
AFC0
A940
EFC0
A940
0100
0100
ENDCHAR
STARTCHAR uni547C
ENCODING 21628
SWIDTH 500 0
DWIDTH 6 0
BBX 10 10 0 -1
BITMAP
00C0
EF00
A940
A580
A100
AFC0
E100
A100
0500
0200
ENDCHAR
STARTCHAR uni547D
ENCODING 21629
SWIDTH 500 0
DWIDTH 6 0
BBX 9 10 0 -1
BITMAP
1C00
2200
5D00
8080
7700
5500
5500
7500
5700
0400
ENDCHAR
STARTCHAR uni547E
ENCODING 21630
SWIDTH 500 0
DWIDTH 6 0
BBX 10 10 0 -1
BITMAP
0F80
E880
A880
AF80
A880
A880
EF80
A880
0000
1FC0
ENDCHAR
STARTCHAR uni547F
ENCODING 21631
SWIDTH 500 0
DWIDTH 6 0
BBX 10 10 0 -1
BITMAP
0200
EF80
A200
A200
BFC0
A200
E400
A880
1FC0
0840
ENDCHAR
STARTCHAR uni5480
ENCODING 21632
SWIDTH 500 0
DWIDTH 6 0
BBX 10 10 0 -1
BITMAP
0780
F480
9480
9780
9480
9480
F780
9480
0480
1FC0
ENDCHAR
STARTCHAR uni5481
ENCODING 21633
SWIDTH 500 0
DWIDTH 6 0
BBX 10 10 0 -1
BITMAP
0900
E900
BFC0
A900
A900
AF00
E900
A900
0F00
0900
ENDCHAR
STARTCHAR uni5482
ENCODING 21634
SWIDTH 500 0
DWIDTH 6 0
BBX 10 10 0 -1
BITMAP
1FC0
F100
B100
B7C0
B540
B540
F5C0
9100
1100
1FC0
ENDCHAR
STARTCHAR uni5484
ENCODING 21636
SWIDTH 500 0
DWIDTH 6 0
BBX 10 10 0 -1
BITMAP
0100
E940
A940
AFC0
A100
A100
E940
A940
0940
0FC0
ENDCHAR
STARTCHAR uni5486
ENCODING 21638
SWIDTH 500 0
DWIDTH 6 0
BBX 10 10 0 -1
BITMAP
0800
EF80
B080
AE80
AA80
AE80
E880
AB40
0840
07C0
ENDCHAR
STARTCHAR uni5487
ENCODING 21639
SWIDTH 500 0
DWIDTH 6 0
BBX 10 10 0 -1
BITMAP
0240
E140
A440
A480
A480
AD40
F640
A400
0C40
13C0
ENDCHAR
STARTCHAR uni5488
ENCODING 21640
SWIDTH 500 0
DWIDTH 6 0
BBX 10 10 0 -1
BITMAP
0500
FFC0
A540
BFC0
B500
BFC0
E540
A5C0
0900
1100
ENDCHAR
STARTCHAR uni548B
ENCODING 21643
SWIDTH 500 0
DWIDTH 6 0
BBX 10 10 0 -1
BITMAP
0400
E7C0
AA00
B200
A3C0
A200
E200
A3C0
0200
0200
ENDCHAR
STARTCHAR uni548C
ENCODING 21644
SWIDTH 500 0
DWIDTH 6 0
BBX 10 10 0 -1
BITMAP
1800
E3C0
2240
FA40
2240
3240
6A40
ABC0
2240
2000
ENDCHAR
STARTCHAR uni548D
ENCODING 21645
SWIDTH 500 0
DWIDTH 6 0
BBX 10 10 0 -1
BITMAP
0200
E200
A480
BFC0
A040
AF80
E880
A880
0F80
0880
ENDCHAR
STARTCHAR uni548E
ENCODING 21646
SWIDTH 500 0
DWIDTH 6 0
BBX 10 10 0 -1
BITMAP
2100
3D80
4540
A900
1000
6FC0
0000
3F80
2080
3F80
ENDCHAR
STARTCHAR uni548F
ENCODING 21647
SWIDTH 500 0
DWIDTH 6 0
BBX 10 10 0 -1
BITMAP
0100
EF80
A100
BF40
A580
A500
E500
A980
1140
2340
ENDCHAR
STARTCHAR uni5490
ENCODING 21648
SWIDTH 500 0
DWIDTH 6 0
BBX 10 10 0 -1
BITMAP
0880
E880
AFC0
B880
AC80
AA80
EA80
A880
0880
0980
ENDCHAR
STARTCHAR uni5491
ENCODING 21649
SWIDTH 500 0
DWIDTH 6 0
BBX 10 10 0 -1
BITMAP
07C0
E480
BE80
A480
A680
AC80
F480
A480
0480
0D80
ENDCHAR
STARTCHAR uni5492
ENCODING 21650
SWIDTH 500 0
DWIDTH 6 0
BBX 9 10 0 -1
BITMAP
F780
9480
9480
F780
0000
3E00
2200
2280
4280
8180
ENDCHAR
STARTCHAR uni5494
ENCODING 21652
SWIDTH 500 0
DWIDTH 6 0
BBX 10 10 0 -1
BITMAP
0200
E3C0
A200
BFC0
A200
A200
E300
A280
0240
0200
ENDCHAR
STARTCHAR uni5495
ENCODING 21653
SWIDTH 500 0
DWIDTH 6 0
BBX 10 10 0 -1
BITMAP
0200
E200
BFC0
A200
A200
AF80
E880
A880
0F80
0880
ENDCHAR
STARTCHAR uni5496
ENCODING 21654
SWIDTH 500 0
DWIDTH 6 0
BBX 10 10 0 -1
BITMAP
0800
E9C0
BF40
AB40
AB40
AB40
EB40
0B40
13C0
2D40
ENDCHAR
STARTCHAR uni5498
ENCODING 21656
SWIDTH 500 0
DWIDTH 6 0
BBX 10 10 0 -1
BITMAP
0200
FFC0
A200
A500
AFC0
B540
E540
A540
05C0
0100
ENDCHAR
STARTCHAR uni5499
ENCODING 21657
SWIDTH 500 0
DWIDTH 6 0
BBX 10 10 0 -1
BITMAP
0500
E480
BFC0
A500
A500
A540
E580
8940
1340
24C0
ENDCHAR
STARTCHAR uni549A
ENCODING 21658
SWIDTH 500 0
DWIDTH 6 0
BBX 10 10 0 -1
BITMAP
0400
E7C0
A480
AB00
A480
A840
E300
A0C0
0600
0180
ENDCHAR
STARTCHAR uni549B
ENCODING 21659
SWIDTH 500 0
DWIDTH 6 0
BBX 10 10 0 -1
BITMAP
0200
EFC0
A840
A000
AFC0
A100
E100
A100
0500
0200
ENDCHAR
STARTCHAR uni549D
ENCODING 21661
SWIDTH 500 0
DWIDTH 6 0
BBX 10 10 0 -1
BITMAP
0480
E480
AB00
B140
BF80
A480
E900
BDC0
0000
1FC0
ENDCHAR
STARTCHAR uni54A0
ENCODING 21664
SWIDTH 500 0
DWIDTH 6 0
BBX 9 10 0 -1
BITMAP
3E00
2200
FF80
2200
3E00
2200
3E00
2380
FE00
0200
ENDCHAR
STARTCHAR uni54A1
ENCODING 21665
SWIDTH 500 0
DWIDTH 6 0
BBX 10 10 0 -1
BITMAP
1FC0
E480
A780
A480
A480
A780
E480
A7C0
1C80
0080
ENDCHAR
ENDFONT
